<?xml version="1.0" encoding="UTF-8"?>
<svg version="1.1" xmlns="http://www.w3.org/2000/svg" width="500" height="423">
<path d="M0 0 C165 0 330 0 500 0 C500 139.59 500 279.18 500 423 C335 423 170 423 0 423 C0 283.41 0 143.82 0 0 Z " fill="#FAFAFA" transform="translate(0,0)"/>
<path d="M0 0 C2.70093772 1.23191625 4.59644864 2.8828 6.796875 4.87109375 C7.59609375 5.58136719 8.3953125 6.29164062 9.21875 7.0234375 C11.046875 8.93359375 11.046875 8.93359375 11.046875 10.93359375 C11.93632812 11.32998047 11.93632812 11.32998047 12.84375 11.734375 C15.12716554 12.977298 16.52114223 14.23761021 18.296875 16.12109375 C20.7670791 18.67030224 23.28842023 21.06178868 25.984375 23.37109375 C28.79263847 25.78977154 31.44658093 28.29259058 34.046875 30.93359375 C36.60677634 33.53341558 39.2146704 35.99627773 41.984375 38.37109375 C44.97489216 40.94024646 47.77804184 43.62676631 50.546875 46.43359375 C55.12094321 51.06258216 59.87535616 55.45702924 65.0078125 59.46484375 C74.11942135 66.81175365 81.61826041 77.12872579 83.046875 88.93359375 C84.53247238 106.29971481 80.06806067 118.85381314 69.17578125 132.34765625 C61.18118553 141.78044617 51.3946472 148.2249833 39.046875 149.93359375 C33.01237262 150.25874151 26.98355075 150.28875113 20.94140625 150.3046875 C19.1717675 150.31367242 17.40212944 150.32279455 15.63249207 150.33204651 C11.93165248 150.34847817 8.23090272 150.35622573 4.5300293 150.35913086 C-0.17579227 150.36450303 -4.88075079 150.40215997 -9.58632946 150.44787502 C-13.24043235 150.47785055 -16.89433269 150.48485886 -20.54854774 150.48585701 C-22.28144589 150.49002016 -24.01434689 150.50229418 -25.74712181 150.52337456 C-39.45066909 150.67680449 -50.3855408 149.03286266 -61.953125 140.93359375 C-62.7575 140.37671875 -63.561875 139.81984375 -64.390625 139.24609375 C-68.09063145 135.90706354 -71.17930884 132.07433373 -73.953125 127.93359375 C-73.953125 127.27359375 -73.953125 126.61359375 -73.953125 125.93359375 C-74.613125 125.93359375 -75.273125 125.93359375 -75.953125 125.93359375 C-83.79421472 112.58597824 -86.99658947 100.69143951 -84.51953125 85.2265625 C-80.40452266 71.04128443 -68.61133205 60.78816074 -57.78125 51.54296875 C-55.3155438 49.37230431 -53.04291241 47.03415353 -50.7421875 44.69140625 C-48.20346781 42.19703101 -45.5120063 39.8957244 -42.8125 37.578125 C-41.15295815 36.11033693 -39.60954267 34.59507396 -38.078125 32.99609375 C-35.953125 30.93359375 -35.953125 30.93359375 -33.953125 30.93359375 C-33.72367188 30.36898437 -33.49421875 29.804375 -33.2578125 29.22265625 C-31.60633133 26.32514738 -29.56987896 24.51937842 -27.078125 22.30859375 C-25.78261719 21.14457031 -25.78261719 21.14457031 -24.4609375 19.95703125 C-21.953125 17.93359375 -21.953125 17.93359375 -19.7578125 16.91015625 C-17.40505867 15.63702106 -17.11527502 14.31384916 -15.953125 11.93359375 C-14.38345354 10.35571843 -12.7515653 8.83845757 -11.078125 7.37109375 C-10.21445313 6.60667969 -9.35078125 5.84226562 -8.4609375 5.0546875 C-7.21957031 4.00474609 -7.21957031 4.00474609 -5.953125 2.93359375 C-5.26992187 2.32644531 -4.58671875 1.71929687 -3.8828125 1.09375 C-1.953125 -0.06640625 -1.953125 -0.06640625 0 0 Z " fill="#F9FAFB" transform="translate(233.953125,95.06640625)"/>
<path d="M0 0 C2.70093772 1.23191625 4.59644864 2.8828 6.796875 4.87109375 C7.59609375 5.58136719 8.3953125 6.29164062 9.21875 7.0234375 C11.046875 8.93359375 11.046875 8.93359375 11.046875 10.93359375 C11.93632812 11.32998047 11.93632812 11.32998047 12.84375 11.734375 C15.12716554 12.977298 16.52114223 14.23761021 18.296875 16.12109375 C20.7670791 18.67030224 23.28842023 21.06178868 25.984375 23.37109375 C28.79263847 25.78977154 31.44658093 28.29259058 34.046875 30.93359375 C36.60677634 33.53341558 39.2146704 35.99627773 41.984375 38.37109375 C44.97489216 40.94024646 47.77804184 43.62676631 50.546875 46.43359375 C55.12094321 51.06258216 59.87535616 55.45702924 65.0078125 59.46484375 C74.11942135 66.81175365 81.61826041 77.12872579 83.046875 88.93359375 C84.53247238 106.29971481 80.06806067 118.85381314 69.17578125 132.34765625 C61.18118553 141.78044617 51.3946472 148.2249833 39.046875 149.93359375 C33.01237262 150.25874151 26.98355075 150.28875113 20.94140625 150.3046875 C19.1717675 150.31367242 17.40212944 150.32279455 15.63249207 150.33204651 C11.93165248 150.34847817 8.23090272 150.35622573 4.5300293 150.35913086 C-0.17579227 150.36450303 -4.88075079 150.40215997 -9.58632946 150.44787502 C-13.24043235 150.47785055 -16.89433269 150.48485886 -20.54854774 150.48585701 C-22.28144589 150.49002016 -24.01434689 150.50229418 -25.74712181 150.52337456 C-39.45066909 150.67680449 -50.3855408 149.03286266 -61.953125 140.93359375 C-62.7575 140.37671875 -63.561875 139.81984375 -64.390625 139.24609375 C-68.09063145 135.90706354 -71.17930884 132.07433373 -73.953125 127.93359375 C-73.953125 127.27359375 -73.953125 126.61359375 -73.953125 125.93359375 C-74.613125 125.93359375 -75.273125 125.93359375 -75.953125 125.93359375 C-83.79421472 112.58597824 -86.99658947 100.69143951 -84.51953125 85.2265625 C-80.40452266 71.04128443 -68.61133205 60.78816074 -57.78125 51.54296875 C-55.3155438 49.37230431 -53.04291241 47.03415353 -50.7421875 44.69140625 C-48.20346781 42.19703101 -45.5120063 39.8957244 -42.8125 37.578125 C-41.15295815 36.11033693 -39.60954267 34.59507396 -38.078125 32.99609375 C-35.953125 30.93359375 -35.953125 30.93359375 -33.953125 30.93359375 C-33.72367188 30.36898437 -33.49421875 29.804375 -33.2578125 29.22265625 C-31.60633133 26.32514738 -29.56987896 24.51937842 -27.078125 22.30859375 C-25.78261719 21.14457031 -25.78261719 21.14457031 -24.4609375 19.95703125 C-21.953125 17.93359375 -21.953125 17.93359375 -19.7578125 16.91015625 C-17.40505867 15.63702106 -17.11527502 14.31384916 -15.953125 11.93359375 C-14.38345354 10.35571843 -12.7515653 8.83845757 -11.078125 7.37109375 C-10.21445313 6.60667969 -9.35078125 5.84226562 -8.4609375 5.0546875 C-7.21957031 4.00474609 -7.21957031 4.00474609 -5.953125 2.93359375 C-5.26992187 2.32644531 -4.58671875 1.71929687 -3.8828125 1.09375 C-1.953125 -0.06640625 -1.953125 -0.06640625 0 0 Z M-1.953125 19.93359375 C-3.78943049 21.82709564 -5.43030484 23.69838657 -7.078125 25.74609375 C-7.56676025 26.33849854 -8.05539551 26.93090332 -8.55883789 27.54125977 C-10.03253127 29.3316185 -11.49411629 31.13125904 -12.953125 32.93359375 C-14.43196252 34.74636232 -15.9111038 36.55888314 -17.390625 38.37109375 C-18.10863281 39.25410156 -18.82664063 40.13710937 -19.56640625 41.046875 C-22.358605 44.42401883 -25.21471838 47.74185869 -28.078125 51.05859375 C-31.93556772 55.53130459 -35.67679788 60.05301213 -39.265625 64.74609375 C-44.15463862 71.083704 -49.30366899 77.20508534 -54.56054688 83.23876953 C-64.78573654 94.06121769 -64.78573654 94.06121769 -69.3203125 107.73046875 C-68.43681088 113.03147847 -64.36126989 116.48521615 -60.765625 120.18359375 C-52.24564461 125.48491488 -42.97655334 127.08516298 -33.08691406 127.07885742 C-32.32181519 127.08221603 -31.55671631 127.08557465 -30.76843262 127.08903503 C-28.25185499 127.09849372 -25.73534428 127.10048573 -23.21875 127.1015625 C-21.45766168 127.10477912 -19.69657361 127.1081435 -17.93548584 127.11164856 C-14.24702333 127.1176275 -10.5585842 127.11948978 -6.87011719 127.11889648 C-2.16524236 127.11879505 2.53948093 127.13243336 7.24431992 127.14966869 C10.88194454 127.16083953 14.51953314 127.16281412 18.15717316 127.16228676 C19.89055146 127.16345975 21.62393091 127.16784293 23.35729218 127.17561913 C35.35279379 127.22438703 45.8417323 126.49865189 57.046875 121.93359375 C57.046875 121.27359375 57.046875 120.61359375 57.046875 119.93359375 C57.830625 119.62421875 58.614375 119.31484375 59.421875 118.99609375 C63.57942945 117.31327409 64.84944641 115.88418085 67.2421875 112.015625 C68.34920021 109.15136395 68.33379083 106.98498236 68.046875 103.93359375 C64.4060747 95.72897335 57.80513404 88.93962906 51.9296875 82.26171875 C48.87975143 78.78347683 46.08109115 75.14458599 43.3515625 71.41015625 C42.92101562 70.92289063 42.49046875 70.435625 42.046875 69.93359375 C41.386875 69.93359375 40.726875 69.93359375 40.046875 69.93359375 C39.77746094 69.35480469 39.50804687 68.77601563 39.23046875 68.1796875 C35.42973086 60.9670661 29.31016951 54.85073258 24.03442383 48.67333984 C21.02194562 45.13163546 18.1785341 41.51491958 15.4375 37.7578125 C13.36064197 35.0333948 11.06740782 32.51401088 8.78125 29.96484375 C6.45941556 27.24557819 4.42509829 24.35122328 2.40625 21.40234375 C1.95765625 20.91765625 1.5090625 20.43296875 1.046875 19.93359375 C0.056875 19.93359375 -0.933125 19.93359375 -1.953125 19.93359375 Z " fill="#205F74" transform="translate(233.953125,95.06640625)"/>
<path d="M0 0 C2.99769264 4.49653896 2.58906043 8.72585428 2 14 C0.93881594 17.47883819 -0.41153825 20.730889 -2 24 C-2.66 24 -3.32 24 -4 24 C-4.020625 24.70125 -4.04125 25.4025 -4.0625 26.125 C-5.8523595 31.61390246 -10.95543822 34.5979717 -15.875 37.25 C-25.93554721 41.73525117 -36.32218542 41.34265245 -47.10546875 41.37109375 C-48.8751075 41.38007867 -50.64474556 41.3892008 -52.41438293 41.39845276 C-56.11522252 41.41488442 -59.81597228 41.42263198 -63.5168457 41.42553711 C-68.22266727 41.43090928 -72.92762579 41.46856622 -77.63320446 41.51428127 C-81.28730735 41.5442568 -84.94120769 41.55126511 -88.59542274 41.55226326 C-90.32832089 41.55642641 -92.06122189 41.56870043 -93.79399681 41.58978081 C-107.38812349 41.74198563 -118.59604153 40.21351523 -130 32 C-137.29570902 24.03163696 -139.61122252 15.02175971 -139.17578125 4.421875 C-139.11777344 3.62265625 -139.05976563 2.8234375 -139 2 C-135.4044716 3.21648711 -133.57856548 4.14549652 -131.5 7.3125 C-126.26489811 13.84274428 -116.98057524 15.90859405 -109 17 C-106.3688446 17.09530918 -103.76439327 17.14694093 -101.13378906 17.14526367 C-100.36869019 17.14862228 -99.60359131 17.1519809 -98.81530762 17.15544128 C-96.29872999 17.16489997 -93.78221928 17.16689198 -91.265625 17.16796875 C-89.50453668 17.17118537 -87.74344861 17.17454975 -85.98236084 17.17805481 C-82.29389833 17.18403375 -78.6054592 17.18589603 -74.91699219 17.18530273 C-70.21211736 17.1852013 -65.50739407 17.19883961 -60.80255508 17.21607494 C-57.16493046 17.22724578 -53.52734186 17.22922037 -49.88970184 17.22869301 C-48.15632354 17.229866 -46.42294409 17.23424918 -44.68958282 17.24202538 C-30.4297065 17.79611904 -30.4297065 17.79611904 -16.9932251 13.93058777 C-15 13 -15 13 -11 13 C-11 12.34 -11 11.68 -11 11 C-6.61538462 8 -6.61538462 8 -4 8 C-3.896875 7.4225 -3.79375 6.845 -3.6875 6.25 C-2.90207202 3.67950842 -1.69495803 2.06342716 0 0 Z " fill="#212C5B" transform="translate(302,204)"/>
<path d="M0 0 C5.94 0 11.88 0 18 0 C18 5.28 18 10.56 18 16 C24.6 16 31.2 16 38 16 C38 20.95 38 25.9 38 31 C31.4 31 24.8 31 18 31 C18 36.28 18 41.56 18 47 C12.06 47 6.12 47 0 47 C0 41.72 0 36.44 0 31 C-6.6 31 -13.2 31 -20 31 C-20 26.05 -20 21.1 -20 16 C-13.4 16 -6.8 16 0 16 C0 10.72 0 5.44 0 0 Z " fill="#222D5B" transform="translate(224,156)"/>
<path d="M0 0 C2.31 0 4.62 0 7 0 C6.07361787 2.38212548 5.16764006 4.69430342 3.9375 6.9375 C2.73861104 9.57505571 2.38972169 12.14204094 2 15 C1.34 15 0.68 15 0 15 C-0.66 17.97 -1.32 20.94 -2 24 C-3.65 24.33 -5.3 24.66 -7 25 C-6.505 25.94875 -6.01 26.8975 -5.5 27.875 C-4 31 -4 31 -4 33 C-1.65941363 30.87219421 -0.29299694 28.88437779 1 26 C1.99 26 2.98 26 4 26 C4 29.63 4 33.26 4 37 C3.34 37 2.68 37 2 37 C1.505 34.03 1.505 34.03 1 31 C0.01 32.65 -0.98 34.3 -2 36 C-5 35 -5 35 -6.1875 32.9375 C-6.455625 32.298125 -6.72375 31.65875 -7 31 C-7.33 32.98 -7.66 34.96 -8 37 C-11.96 37 -15.92 37 -20 37 C-20.33 36.34 -20.66 35.68 -21 35 C-21.66 35.66 -22.32 36.32 -23 37 C-29.83889695 37.55152395 -29.83889695 37.55152395 -33.5 35.8125 C-35 34 -35 34 -35.4375 31.5 C-34.91783333 28.53047619 -34.37965617 27.79508846 -32 26 C-29.51953125 25.70703125 -29.51953125 25.70703125 -26.8125 25.8125 C-25.46091797 25.85310547 -25.46091797 25.85310547 -24.08203125 25.89453125 C-23.05142578 25.94673828 -23.05142578 25.94673828 -22 26 C-22 26.99 -22 27.98 -22 29 C-21.34 29 -20.68 29 -20 29 C-19.67 27.68 -19.34 26.36 -19 25 C-15.535 24.505 -15.535 24.505 -12 24 C-12 23.01 -12 22.02 -12 21 C-11.34 21 -10.68 21 -10 21 C-9.67 17.37 -9.34 13.74 -9 10 C-9.66 10 -10.32 10 -11 10 C-11.33 7.03 -11.66 4.06 -12 1 C-9.125 1.25 -9.125 1.25 -6 2 C-4.13209062 4.54714915 -4 5.80869 -4 9 C-3.34 9 -2.68 9 -2 9 C-1.34 6.03 -0.68 3.06 0 0 Z " fill="#D4F3F2" transform="translate(265,258)"/>
<path d="M0 0 C2.31 0 4.62 0 7 0 C7.84114171 1.43294498 8.67265687 2.87154405 9.5 4.3125 C9.9640625 5.11300781 10.428125 5.91351563 10.90625 6.73828125 C12 9 12 9 12 12 C12.66 12 13.32 12 14 12 C14.268125 11.29875 14.53625 10.5975 14.8125 9.875 C16.0681449 6.8350176 17.50235123 3.9272226 19 1 C21.31 1 23.62 1 26 1 C26 7.27 26 13.54 26 20 C24.02 20 22.04 20 20 20 C19.67 17.36 19.34 14.72 19 12 C18.01 14.31 17.02 16.62 16 19 C14.02 19 12.04 19 10 19 C9.01 16.69 8.02 14.38 7 12 C6.67 14.64 6.34 17.28 6 20 C4.02 20 2.04 20 0 20 C0 13.4 0 6.8 0 0 Z " fill="#535C7A" transform="translate(162,254)"/>
<path d="M0 0 C8.96607814 7.87928079 13.42605319 17.14808881 14.28125 28.84765625 C15.10138199 46.17766085 8.73626278 57.51576559 -1.75073242 70.75341797 C-3 72 -3 72 -5 72 C-5 71.01 -5 70.02 -5 69 C-4.34 69 -3.68 69 -3 69 C0.43692245 59.56892113 1.51577864 50.44147226 -1.67578125 40.7578125 C-4.60546965 34.65645553 -8.92693109 29.37253858 -13 24 C-13.66 23.01 -14.32 22.02 -15 21 C-13.68 21 -12.36 21 -11 21 C-11 21.66 -11 22.32 -11 23 C-10.34 23 -9.68 23 -9 23 C-9 23.99 -9 24.98 -9 26 C-8.34 26 -7.68 26 -7 26 C-7 26.66 -7 27.32 -7 28 C-6.01 28.33 -5.02 28.66 -4 29 C2.43237968 36.99174446 2.29366112 45.21129598 2 55 C5.55227468 53.81590844 6.40576683 52.39390491 8.1484375 49.16796875 C9.99812034 44.4589138 10.01412929 39.37725316 9.984375 34.37109375 C10.00131146 31.8009853 10.42848027 29.50039882 11 27 C10.67 27 10.34 27 10 27 C9.97421875 26.25234375 9.9484375 25.5046875 9.921875 24.734375 C9.74997677 18.67156271 9.74997677 18.67156271 7 13.5 C6.34 13.005 5.68 12.51 5 12 C4.67 11.01 4.34 10.02 4 9 C3.505 8.566875 3.01 8.13375 2.5 7.6875 C0.39495139 5.31932032 0.34279827 3.08518447 0 0 Z " fill="#31928A" transform="translate(303,159)"/>
<path d="M0 0 C0.99 0.33 1.98 0.66 3 1 C-5.23141912 11.10038868 -5.23141912 11.10038868 -8.71875 15.2265625 C-9.16234863 15.75282227 -9.60594727 16.27908203 -10.06298828 16.82128906 C-11.31803483 18.30754069 -12.57689708 19.79056767 -13.8359375 21.2734375 C-17.05578645 25.3302147 -19.28682951 28.44585739 -19.625 33.6875 C-19.91780822 37.83561644 -19.91780822 37.83561644 -21 40 C-21.66 39.67 -22.32 39.34 -23 39 C-22.85058625 47.42150229 -21.61451035 54.01669802 -17.9609375 61.63671875 C-17.64382812 62.41660156 -17.32671875 63.19648438 -17 64 C-17.33 64.66 -17.66 65.32 -18 66 C-19.33918806 64.37982158 -20.6711969 62.75370657 -22 61.125 C-22.7425 60.22007812 -23.485 59.31515625 -24.25 58.3828125 C-26 56 -26 56 -26 54 C-26.66 54 -27.32 54 -28 54 C-35.71224672 40.87170946 -37.46902454 30.97404262 -37 16 C-36.67 16 -36.34 16 -36 16 C-35.83564453 17.19882813 -35.83564453 17.19882813 -35.66796875 18.421875 C-34.54760207 31.65708924 -34.54760207 31.65708924 -29 43 C-28.34 43.66 -27.68 44.32 -27 45 C-26.67 41.7 -26.34 38.4 -26 35 C-25.34 35 -24.68 35 -24 35 C-24 34.01 -24 33.02 -24 32 C-23.34 32 -22.68 32 -22 32 C-21.896875 31.113125 -21.79375 30.22625 -21.6875 29.3125 C-20.98316997 25.91890987 -19.90520689 23.85781033 -18 21 C-17.67 20.34 -17.34 19.68 -17 19 C-16.34 19 -15.68 19 -15 19 C-14.6596875 18.195625 -14.6596875 18.195625 -14.3125 17.375 C-13.15149389 15.27413181 -11.97921002 13.6929702 -10.4375 11.875 C-8.03993582 9.27761964 -8.03993582 9.27761964 -7 7 C-6.34 7.33 -5.68 7.66 -5 8 C-5 7.01 -5 6.02 -5 5 C-4.01 5 -3.02 5 -2 5 C-1.855625 4.360625 -1.71125 3.72125 -1.5625 3.0625 C-1 1 -1 1 0 0 Z " fill="#27908F" transform="translate(186,167)"/>
<path d="M0 0 C1.66611905 -0.042721 3.33382885 -0.04063832 5 0 C6 1 6 1 6.11352539 2.94946289 C6.10828857 3.7821167 6.10305176 4.61477051 6.09765625 5.47265625 C6.09443359 6.37177734 6.09121094 7.27089844 6.08789062 8.19726562 C6.07951172 9.14279297 6.07113281 10.08832031 6.0625 11.0625 C6.05798828 12.01189453 6.05347656 12.96128906 6.04882812 13.93945312 C6.0370011 16.29303065 6.02052025 18.64648477 6 21 C3.39337049 20.94000853 0.79248111 20.85303451 -1.8125 20.75 C-2.55048828 20.73582031 -3.28847656 20.72164063 -4.04882812 20.70703125 C-9.5112132 20.4598645 -9.5112132 20.4598645 -11.98046875 18.13671875 C-13.41518207 15.12986745 -13.53789182 13.29458742 -13 10 C-11 7.0625 -11 7.0625 -8 5 C-5.11169279 4.88254573 -2.8625181 5.36927567 0 6 C0 4.02 0 2.04 0 0 Z " fill="#56B6A9" transform="translate(224,253)"/>
<path d="M0 0 C1.00289063 0.10183594 2.00578125 0.20367187 3.0390625 0.30859375 C3.80992187 0.39238281 4.58078125 0.47617187 5.375 0.5625 C5.375 1.2225 5.375 1.8825 5.375 2.5625 C4.055 2.5625 2.735 2.5625 1.375 2.5625 C1.375 5.8625 1.375 9.1625 1.375 12.5625 C0.385 12.2325 -0.605 11.9025 -1.625 11.5625 C-1.625 8.9225 -1.625 6.2825 -1.625 3.5625 C-2.615 3.5625 -3.605 3.5625 -4.625 3.5625 C-4.625 6.5325 -4.625 9.5025 -4.625 12.5625 C-9.77360706 11.27534823 -10.48961447 9.65591999 -13.625 5.5625 C-13.955 7.5425 -14.285 9.5225 -14.625 11.5625 C-18.29910785 12.73821451 -21.79429183 12.63616746 -25.625 12.5625 C-25.625 8.6025 -25.625 4.6425 -25.625 0.5625 C-23.68625 0.541875 -21.7475 0.52125 -19.75 0.5 C-18.65945313 0.48839844 -17.56890625 0.47679687 -16.4453125 0.46484375 C-13.625 0.5625 -13.625 0.5625 -11.625 1.5625 C-10.89424352 3.8765622 -10.22361742 6.21078869 -9.625 8.5625 C-8.965 8.5625 -8.305 8.5625 -7.625 8.5625 C-7.625 5.9225 -7.625 3.2825 -7.625 0.5625 C-4.89657939 -0.80171031 -3.01546682 -0.31557211 0 0 Z " fill="#AAABB8" transform="translate(297.625,282.4375)"/>
<path d="M0 0 C2.77000217 1.16577372 4.62119329 2.80849221 6.84765625 4.8203125 C7.646875 5.53058594 8.44609375 6.24085937 9.26953125 6.97265625 C11.09765625 8.8828125 11.09765625 8.8828125 11.09765625 10.8828125 C11.98710937 11.27919922 11.98710937 11.27919922 12.89453125 11.68359375 C15.17794679 12.92651675 16.57192348 14.18682896 18.34765625 16.0703125 C20.79792217 18.59877839 23.29597676 20.97037126 25.97265625 23.2578125 C29.0758894 25.94809095 32.08439284 28.71307566 35.03515625 31.5703125 C35.78667969 32.29605469 36.53820312 33.02179688 37.3125 33.76953125 C39.10814561 35.89522988 39.71110172 37.16465924 40.09765625 39.8828125 C37.72265625 39.1328125 37.72265625 39.1328125 35.09765625 37.8828125 C34.78828125 37.2434375 34.47890625 36.6040625 34.16015625 35.9453125 C33.20031514 33.56619484 33.20031514 33.56619484 30.16015625 32.5078125 C26.38738418 30.50593344 25.86736094 28.66354524 24.09765625 24.8828125 C22.14744542 23.65753302 22.14744542 23.65753302 20.09765625 22.8828125 C18.34765625 21.4453125 18.34765625 21.4453125 17.09765625 19.8828125 C17.09765625 18.8928125 17.09765625 17.9028125 17.09765625 16.8828125 C14.45765625 16.5528125 11.81765625 16.2228125 9.09765625 15.8828125 C9.75765625 14.8928125 10.41765625 13.9028125 11.09765625 12.8828125 C9.77765625 12.5528125 8.45765625 12.2228125 7.09765625 11.8828125 C7.09765625 11.2228125 7.09765625 10.5628125 7.09765625 9.8828125 C6.43765625 9.5528125 5.77765625 9.2228125 5.09765625 8.8828125 C5.09765625 8.2228125 5.09765625 7.5628125 5.09765625 6.8828125 C4.10765625 6.8828125 3.11765625 6.8828125 2.09765625 6.8828125 C1.76765625 7.5428125 1.43765625 8.2028125 1.09765625 8.8828125 C1.09765625 7.8928125 1.09765625 6.9028125 1.09765625 5.8828125 C0.19015625 6.1921875 -0.71734375 6.5015625 -1.65234375 6.8203125 C-4.06797713 7.6100388 -6.4301466 8.31230547 -8.90234375 8.8828125 C-8.64893184 5.46175174 -7.59452191 4.57499066 -5.08984375 2.0703125 C-1.90234375 -0.1171875 -1.90234375 -0.1171875 0 0 Z " fill="#284A63" transform="translate(233.90234375,95.1171875)"/>
<path d="M0 0 C0.9796875 0.00515625 1.959375 0.0103125 2.96875 0.015625 C3.9484375 0.01046875 4.928125 0.0053125 5.9375 0 C8.46875 0.265625 8.46875 0.265625 10.46875 2.265625 C10.46875 3.255625 10.46875 4.245625 10.46875 5.265625 C6.61229879 5.48599364 3.97651784 4.86917601 0.46875 3.265625 C0.46875 4.255625 0.46875 5.245625 0.46875 6.265625 C1.53416016 6.57306641 1.53416016 6.57306641 2.62109375 6.88671875 C3.99974609 7.29083984 3.99974609 7.29083984 5.40625 7.703125 C6.32277344 7.96996094 7.23929688 8.23679687 8.18359375 8.51171875 C10.46875 9.265625 10.46875 9.265625 11.46875 10.265625 C11.50938832 11.93179615 11.511471 13.59950595 11.46875 15.265625 C9.48875 16.255625 9.48875 16.255625 7.46875 17.265625 C7.46875 17.925625 7.46875 18.585625 7.46875 19.265625 C1.79697615 19.71936691 -1.1287768 18.91645643 -5.53125 15.265625 C-5.53125 14.605625 -5.53125 13.945625 -5.53125 13.265625 C-1.31246808 13.06940259 1.63885894 13.46332332 5.46875 15.265625 C5.13875 14.275625 4.80875 13.285625 4.46875 12.265625 C2.66797327 11.3190339 2.66797327 11.3190339 0.53125 10.703125 C-2.25975228 9.80655984 -3.40899645 9.38787855 -5.53125 7.265625 C-5.11811627 3.13428772 -4.55006934 0.47747641 0 0 Z " fill="#343D5D" transform="translate(238.53125,254.734375)"/>
<path d="M0 0 C3.96 0 7.92 0 12 0 C12.9765625 1.79036458 13.953125 3.58072917 14.9296875 5.37109375 C15.91410024 7.16618315 15.91410024 7.16618315 18 8 C18.268125 7.030625 18.53625 6.06125 18.8125 5.0625 C19.204375 4.051875 19.59625 3.04125 20 2 C20.99 1.67 21.98 1.34 23 1 C23 4.3 23 7.6 23 11 C22.34 11 21.68 11 21 11 C20.67 10.01 20.34 9.02 20 8 C19.01 9.485 19.01 9.485 18 11 C17.01 11 16.02 11 15 11 C14.34 9.68 13.68 8.36 13 7 C12.67 8.65 12.34 10.3 12 12 C8.04 12 4.08 12 0 12 C0 8.04 0 4.08 0 0 Z " fill="#E1E4EC" transform="translate(353,283)"/>
<path d="M0 0 C0.90105469 0.02707031 1.80210937 0.05414063 2.73046875 0.08203125 C3.76107422 0.13423828 3.76107422 0.13423828 4.8125 0.1875 C4.8125 1.1775 4.8125 2.1675 4.8125 3.1875 C5.4725 3.1875 6.1325 3.1875 6.8125 3.1875 C6.8125 2.1975 6.8125 1.2075 6.8125 0.1875 C9.4525 0.1875 12.0925 0.1875 14.8125 0.1875 C14.8125 0.5175 14.8125 0.8475 14.8125 1.1875 C13.1625 1.1875 11.5125 1.1875 9.8125 1.1875 C9.8125 2.1775 9.8125 3.1675 9.8125 4.1875 C11.1325 4.1875 12.4525 4.1875 13.8125 4.1875 C13.8125 4.8475 13.8125 5.5075 13.8125 6.1875 C12.4925 6.1875 11.1725 6.1875 9.8125 6.1875 C9.8125 7.1775 9.8125 8.1675 9.8125 9.1875 C11.4625 9.1875 13.1125 9.1875 14.8125 9.1875 C14.8125 9.8475 14.8125 10.5075 14.8125 11.1875 C12.1725 11.1875 9.5325 11.1875 6.8125 11.1875 C6.4825 10.5275 6.1525 9.8675 5.8125 9.1875 C5.1525 9.8475 4.4925 10.5075 3.8125 11.1875 C-3.02639695 11.73902395 -3.02639695 11.73902395 -6.6875 10 C-8.1875 8.1875 -8.1875 8.1875 -8.625 5.6875 C-7.71855634 0.50782192 -4.86862661 -0.18968675 0 0 Z " fill="#E9EBF2" transform="translate(238.1875,283.8125)"/>
<path d="M0 0 C2.4375 1.25 2.4375 1.25 4 3 C4 4.65 4 6.3 4 8 C0.04 8 -3.92 8 -8 8 C-8 8.99 -8 9.98 -8 11 C-4.7 10.67 -1.4 10.34 2 10 C1 13 1 13 -1 14 C-5.28454373 14.50455052 -8.81954446 14.71978996 -12.5625 12.4375 C-14.55465386 9.05949997 -14.56014129 6.85097134 -14 3 C-9.79271152 -1.35236739 -5.66332562 -1.19227908 0 0 Z " fill="#4DAEA2" transform="translate(205,259)"/>
<path d="M0 0 C2.31 0 4.62 0 7 0 C5.61587429 3.67991116 3.93902516 7.01996816 2 10.4375 C-0.09696656 14.22226892 -1.8645936 17.79899631 -3 22 C-4.98 22 -6.96 22 -9 22 C-8.47731534 19.23723823 -7.89130413 16.6739124 -7 14 C-7.98253692 11.54097175 -7.98253692 11.54097175 -9.4375 9 C-12 4.30790191 -12 4.30790191 -12 1 C-9.125 1.25 -9.125 1.25 -6 2 C-4.13209062 4.54714915 -4 5.80869 -4 9 C-3.34 9 -2.68 9 -2 9 C-1.34 6.03 -0.68 3.06 0 0 Z " fill="#2CABA4" transform="translate(265,258)"/>
<path d="M0 0 C12.12391304 -0.48985507 12.12391304 -0.48985507 15.90625 1.625 C18.60073324 4.68142875 18.53055873 6.2377193 18.3125 10.25 C18.24482422 11.86648438 18.24482422 11.86648438 18.17578125 13.515625 C18.11777344 14.33546875 18.05976563 15.1553125 18 16 C16.02 16 14.04 16 12 16 C11.67 12.37 11.34 8.74 11 5 C9.35 5 7.7 5 6 5 C5.67 8.3 5.34 11.6 5 15 C3.35 15 1.7 15 0 15 C0 10.05 0 5.1 0 0 Z " fill="#52B7B1" transform="translate(274,258)"/>
<path d="M0 0 C2.375 0.75 2.375 0.75 4 2 C4.33 3.32 4.66 4.64 5 6 C1.37 5.67 -2.26 5.34 -6 5 C-6 6.98 -6 8.96 -6 11 C-0.555 10.505 -0.555 10.505 5 10 C3 14 3 14 1 15 C-1.27734375 15.23828125 -1.27734375 15.23828125 -3.9375 15.3125 C-5.25041016 15.36857422 -5.25041016 15.36857422 -6.58984375 15.42578125 C-9 15 -9 15 -10.78515625 13.19921875 C-12.59077034 9.93053472 -12.52340158 7.66381106 -12 4 C-8.42634327 -0.22341249 -5.36372734 -0.58513389 0 0 Z " fill="#43B3AA" transform="translate(307,258)"/>
<path d="M0 0 C3.5625 0.1875 3.5625 0.1875 5.5625 2.1875 C5.1875 4.8125 5.1875 4.8125 4.5625 7.1875 C2.5825 7.1875 0.6025 7.1875 -1.4375 7.1875 C-1.4375 8.8375 -1.4375 10.4875 -1.4375 12.1875 C-3.22843191 12.26836147 -5.02039628 12.32662702 -6.8125 12.375 C-8.30910156 12.42720703 -8.30910156 12.42720703 -9.8359375 12.48046875 C-10.69445312 12.38378906 -11.55296875 12.28710938 -12.4375 12.1875 C-13.0975 11.1975 -13.7575 10.2075 -14.4375 9.1875 C-12.1275 9.5175 -9.8175 9.8475 -7.4375 10.1875 C-8.94413783 7.17422434 -11.46916411 6.57693382 -14.4375 5.1875 C-14.1075 3.8675 -13.7775 2.5475 -13.4375 1.1875 C-12.79941406 1.19910156 -12.16132812 1.21070313 -11.50390625 1.22265625 C-10.67761719 1.23167969 -9.85132812 1.24070312 -9 1.25 C-7.76443359 1.26740234 -7.76443359 1.26740234 -6.50390625 1.28515625 C-3.55778879 1.14592575 -3.40843458 0.18591461 0 0 Z " fill="#E5E9F1" transform="translate(127.4375,282.8125)"/>
<path d="M0 0 C1.69141656 0.08963062 3.37959602 0.24577676 5.0625 0.4375 C6.44115234 0.59025391 6.44115234 0.59025391 7.84765625 0.74609375 C8.55792969 0.82988281 9.26820313 0.91367187 10 1 C10 1.66 10 2.32 10 3 C8.68 3 7.36 3 6 3 C6 5.97 6 8.94 6 12 C5.34 12 4.68 12 4 12 C4 10.68 4 9.36 4 8 C2.05000871 8.19471111 2.05000871 8.19471111 0 9 C-1.28436734 10.9837767 -1.28436734 10.9837767 -2 13 C-3.98 13 -5.96 13 -8 13 C-8.33 12.01 -8.66 11.02 -9 10 C-6.03 10.495 -6.03 10.495 -3 11 C-3 10.01 -3 9.02 -3 8 C-4.65 7.67 -6.3 7.34 -8 7 C-8.5625 5.0625 -8.5625 5.0625 -9 3 C-7.06729418 1.06729418 -3.61358612 1.37336945 -1 1 C-0.67 0.67 -0.34 0.34 0 0 Z " fill="#BCBEC6" transform="translate(341,282)"/>
<path d="M0 0 C0 1.65 0 3.3 0 5 C0.66 5 1.32 5 2 5 C2.33 3.68 2.66 2.36 3 1 C3.66 1 4.32 1 5 1 C4.01 4.3 3.02 7.6 2 11 C1.34 11 0.68 11 0 11 C0 9.68 0 8.36 0 7 C-1.65 7.33 -3.3 7.66 -5 8 C-5.33 9.32 -5.66 10.64 -6 12 C-11.75 12.125 -11.75 12.125 -14 11 C-14 10.34 -14 9.68 -14 9 C-11.03 9.495 -11.03 9.495 -8 10 C-8 9.01 -8 8.02 -8 7 C-10.97 6.505 -10.97 6.505 -14 6 C-13.67 4.35 -13.34 2.7 -13 1 C-8.62426048 0.40667939 -4.42471556 -0.13827236 0 0 Z " fill="#AEB0B9" transform="translate(324,283)"/>
<path d="M0 0 C1.97265625 0.265625 1.97265625 0.265625 4.97265625 2.265625 C5.41015625 5.203125 5.41015625 5.203125 4.97265625 8.265625 C3.41015625 10.203125 3.41015625 10.203125 0.97265625 11.265625 C-5.35461648 10.93835227 -5.35461648 10.93835227 -8.02734375 8.265625 C-8.27734375 5.265625 -8.27734375 5.265625 -8.02734375 2.265625 C-5.42029477 -0.34142398 -3.55396134 0.02657167 0 0 Z " fill="#757880" transform="translate(106.02734375,283.734375)"/>
<path d="M0 0 C7.34104552 6.45122182 13.17665396 15.11984751 14 25 C14.76369189 37.78476792 14.76369189 37.78476792 12.48046875 41.41796875 C11.99191406 41.94003906 11.50335938 42.46210938 11 43 C9.25293858 37.75881575 9.67208284 32.31166864 11 27 C10.67 27 10.34 27 10 27 C9.97421875 26.25234375 9.9484375 25.5046875 9.921875 24.734375 C9.74997677 18.67156271 9.74997677 18.67156271 7 13.5 C6.34 13.005 5.68 12.51 5 12 C4.67 11.01 4.34 10.02 4 9 C3.2575 8.3503125 3.2575 8.3503125 2.5 7.6875 C0.39495139 5.31932032 0.34279827 3.08518447 0 0 Z " fill="#2B7979" transform="translate(303,159)"/>
<path d="M0 0 C0 0.99 0 1.98 0 3 C2.64 3 5.28 3 8 3 C7.67 3.66 7.34 4.32 7 5 C5.68 4.67 4.36 4.34 3 4 C3.20625 4.78375 3.4125 5.5675 3.625 6.375 C3.74875 7.24125 3.8725 8.1075 4 9 C3.34 9.66 2.68 10.32 2 11 C1.28072705 13.31765729 0.6090107 15.65095874 0 18 C-1.32 17.67 -2.64 17.34 -4 17 C-3.01 16.34 -2.02 15.68 -1 15 C-1 13.35 -1 11.7 -1 10 C-5.95 8.02 -5.95 8.02 -11 6 C-11 5.01 -11 4.02 -11 3 C-10.278125 3.144375 -9.55625 3.28875 -8.8125 3.4375 C-7.4203125 3.7159375 -7.4203125 3.7159375 -6 4 C-4.33333333 4.33333333 -2.66666667 4.66666667 -1 5 C-1.62628423 2.95310804 -1.62628423 2.95310804 -3 1 C-5.41679707 0.29823412 -5.41679707 0.29823412 -8.125 0.25 C-9.03507813 0.19328125 -9.94515625 0.1365625 -10.8828125 0.078125 C-11.58148438 0.05234375 -12.28015625 0.0265625 -13 0 C-12.67 -0.66 -12.34 -1.32 -12 -2 C-6.97514586 -3.49387555 -4.30301713 -2.86867809 0 0 Z " fill="#DEE0EA" transform="translate(250,255)"/>
<path d="M0 0 C1.93875 -0.020625 3.8775 -0.04125 5.875 -0.0625 C6.96554687 -0.07410156 8.05609375 -0.08570313 9.1796875 -0.09765625 C12 0 12 0 14 1 C13.67 1.99 13.34 2.98 13 4 C13 3.34 13 2.68 13 2 C11.68 1.67 10.36 1.34 9 1 C9 4.3 9 7.6 9 11 C6.04335481 12.4783226 3.25770263 12.06032783 0 12 C0 8.04 0 4.08 0 0 Z " fill="#DCDEE6" transform="translate(272,283)"/>
<path d="M0 0 C1.98 0 3.96 0 6 0 C7.9375 2.375 7.9375 2.375 9 5 C8.67 5.66 8.34 6.32 8 7 C6.68 7.33 5.36 7.66 4 8 C4 11.3 4 14.6 4 18 C2.68 18 1.36 18 0 18 C0 12.06 0 6.12 0 0 Z " fill="#263056" transform="translate(163,255)"/>
<path d="M0 0 C0.99 0.33 1.98 0.66 3 1 C1.70912176 2.5839762 0.41723178 4.16712785 -0.875 5.75 C-1.69226563 6.75160156 -2.50953125 7.75320312 -3.3515625 8.78515625 C-5.09740377 10.91456339 -6.86295286 13.02483185 -8.6484375 15.12109375 C-13.23963692 20.5237132 -17.45105266 25.84849129 -21 32 C-22 29 -22 29 -20.6875 26.0625 C-20.130625 25.051875 -19.57375 24.04125 -19 23 C-18.608125 22.21625 -18.21625 21.4325 -17.8125 20.625 C-17.544375 20.08875 -17.27625 19.5525 -17 19 C-16.34 19 -15.68 19 -15 19 C-14.6596875 18.195625 -14.6596875 18.195625 -14.3125 17.375 C-13.15149389 15.27413181 -11.97921002 13.6929702 -10.4375 11.875 C-8.03993582 9.27761964 -8.03993582 9.27761964 -7 7 C-6.34 7.33 -5.68 7.66 -5 8 C-5 7.01 -5 6.02 -5 5 C-4.01 5 -3.02 5 -2 5 C-1.855625 4.360625 -1.71125 3.72125 -1.5625 3.0625 C-1 1 -1 1 0 0 Z " fill="#327D7F" transform="translate(186,167)"/>
<path d="M0 0 C1.98 0 3.96 0 6 0 C6 5.94 6 11.88 6 18 C4.35 18 2.7 18 1 18 C1.33 14.37 1.66 10.74 2 7 C0.68 6.67 -0.64 6.34 -2 6 C-1.34 4.02 -0.68 2.04 0 0 Z " fill="#313A59" transform="translate(182,255)"/>
<path d="M0 0 C1 2 1 2 0.9375 4.875 C0.99919206 7.95960319 1.41229856 9.41998516 3 12 C1.6696875 11.9071875 1.6696875 11.9071875 0.3125 11.8125 C-3.01624883 11.728853 -3.01624883 11.728853 -5.4375 13.5625 C-8.92895091 15.5211188 -11.18160151 14.82357614 -15 14 C-15 13.34 -15 12.68 -15 12 C-14.28972656 11.87882812 -13.57945312 11.75765625 -12.84765625 11.6328125 C-11.92855469 11.46523438 -11.00945312 11.29765625 -10.0625 11.125 C-8.68771484 10.88136719 -8.68771484 10.88136719 -7.28515625 10.6328125 C-6.53105469 10.42398437 -5.77695313 10.21515625 -5 10 C-4.67 9.34 -4.34 8.68 -4 8 C-7.3 8.33 -10.6 8.66 -14 9 C-14 8.01 -14 7.02 -14 6 C-10.04 6 -6.08 6 -2 6 C-2 4.35 -2 2.7 -2 1 C-1.34 0.67 -0.68 0.34 0 0 Z " fill="#C5F0EB" transform="translate(211,261)"/>
<path d="M0 0 C1.4783226 2.95664519 1.06032783 5.74229737 1 9 C0.01 8.67 -0.98 8.34 -2 8 C-1.85058625 16.42150229 -0.61451035 23.01669802 3.0390625 30.63671875 C3.51472656 31.80654297 3.51472656 31.80654297 4 33 C3.67 33.66 3.34 34.32 3 35 C1.66081194 33.37982158 0.3288031 31.75370657 -1 30.125 C-2.11375 28.76761719 -2.11375 28.76761719 -3.25 27.3828125 C-5 25 -5 25 -5 23 C-5.66 23 -6.32 23 -7 23 C-7.33 21.68 -7.66 20.36 -8 19 C-6.35 19.33 -4.7 19.66 -3 20 C-3 13.73 -3 7.46 -3 1 C-2.01 0.67 -1.02 0.34 0 0 Z " fill="#3E898F" transform="translate(165,198)"/>
<path d="M0 0 C1.32 0 2.64 0 4 0 C4 0.66 4 1.32 4 2 C4.66 2 5.32 2 6 2 C6 2.99 6 3.98 6 5 C6.66 5 7.32 5 8 5 C8 5.66 8 6.32 8 7 C8.99 7.33 9.98 7.66 11 8 C16.69536724 15.07606233 17.36624903 22.21002321 17 31 C15.4857849 28.21132052 14.6744329 25.7126381 14 22.625 C11.8457073 15.05677801 6.6815725 9.17517883 2 3 C1.34 2.01 0.68 1.02 0 0 Z " fill="#2D8385" transform="translate(288,180)"/>
<path d="M0 0 C0.6875 1.8125 0.6875 1.8125 1 4 C-0.4375 5.5625 -0.4375 5.5625 -2 7 C-2 7.99 -2 8.98 -2 10 C-3.3921875 10.5878125 -3.3921875 10.5878125 -4.8125 11.1875 C-8.32451158 13.18452619 -9.13395294 14.52236684 -11 18 C-13.0625 20.3125 -13.0625 20.3125 -15 22 C-15.66 22 -16.32 22 -17 22 C-17.061875 22.7425 -17.12375 23.485 -17.1875 24.25 C-18.24185138 27.8185739 -19.99909773 28.92245228 -23 31 C-23.66 30.67 -24.32 30.34 -25 30 C-24.31035156 29.18917969 -23.62070313 28.37835938 -22.91015625 27.54296875 C-17.52943468 21.20642312 -12.19846733 14.83673995 -6.94921875 8.390625 C-4.65397477 5.57561635 -2.33260241 2.78407384 0 0 Z " fill="#C8DDE3" transform="translate(218,132)"/>
<path d="M0 0 C4.95 0.33 9.9 0.66 15 1 C15.33 2.65 15.66 4.3 16 6 C15.67 5.34 15.34 4.68 15 4 C10.68511831 2.34043012 5.79085977 2.21936882 1.5625 4.0625 C-0.79775694 6.98921861 -0.32530717 9.35655971 0 13 C0.33 13.99 0.66 14.98 1 16 C-0.65 16.33 -2.3 16.66 -4 17 C-4.03867187 15.87851562 -4.03867187 15.87851562 -4.078125 14.734375 C-4.28686884 8.59307795 -4.28686884 8.59307795 -7.0625 3.3125 C-7.701875 2.879375 -8.34125 2.44625 -9 2 C-5.87709365 2.48578543 -3.00419641 2.9986012 0 4 C0 2.68 0 1.36 0 0 Z " fill="#D5FAFB" transform="translate(296,256)"/>
<path d="M0 0 C1.65 0 3.3 0 5 0 C5 0.66 5 1.32 5 2 C6.65 2 8.3 2 10 2 C9.35546875 2.38800781 8.7109375 2.77601563 8.046875 3.17578125 C5.79121416 4.83946485 5.79121416 4.83946485 5.390625 7.48046875 C5.34421875 8.37378906 5.2978125 9.26710938 5.25 10.1875 C5.19328125 11.08855469 5.1365625 11.98960937 5.078125 12.91796875 C5.05234375 13.60503906 5.0265625 14.29210937 5 15 C3.35 15 1.7 15 0 15 C0 10.05 0 5.1 0 0 Z " fill="#26A8A2" transform="translate(274,258)"/>
<path d="M0 0 C4.29 0 8.58 0 13 0 C13 0.66 13 1.32 13 2 C11.68 2 10.36 2 9 2 C9 4.97 9 7.94 9 11 C8.01 11 7.02 11 6 11 C6 8.36 6 5.72 6 3 C5.34 3 4.68 3 4 3 C3.67 5.64 3.34 8.28 3 11 C2.01 11 1.02 11 0 11 C0 7.37 0 3.74 0 0 Z " fill="#999BA8" transform="translate(135,283)"/>
<path d="M0 0 C2.5 0.125 2.5 0.125 3.5 1.125 C3.57226502 2.97787502 3.5838122 4.83333878 3.5625 6.6875 C3.55347656 7.69941406 3.54445313 8.71132813 3.53515625 9.75390625 C3.52355469 10.53636719 3.51195312 11.31882812 3.5 12.125 C2.84 12.125 2.18 12.125 1.5 12.125 C1.5 11.135 1.5 10.145 1.5 9.125 C0.84 9.125 0.18 9.125 -0.5 9.125 C-0.83 10.115 -1.16 11.105 -1.5 12.125 C-3.81 12.125 -6.12 12.125 -8.5 12.125 C-8.5 11.795 -8.5 11.465 -8.5 11.125 C-6.85 11.125 -5.2 11.125 -3.5 11.125 C-3.51160156 10.41472656 -3.52320313 9.70445312 -3.53515625 8.97265625 C-3.54869141 7.59400391 -3.54869141 7.59400391 -3.5625 6.1875 C-3.57410156 5.27097656 -3.58570313 4.35445313 -3.59765625 3.41015625 C-3.4600356 0.18983308 -3.22968262 0.16148413 0 0 Z " fill="#EFFEFE" transform="translate(282.5,261.875)"/>
<path d="M0 0 C0.99 0 1.98 0 3 0 C3.45375 0.969375 3.9075 1.93875 4.375 2.9375 C5.65786221 6.07079582 5.65786221 6.07079582 8 7 C8.268125 6.030625 8.53625 5.06125 8.8125 4.0625 C9.4003125 2.5465625 9.4003125 2.5465625 10 1 C10.99 0.67 11.98 0.34 13 0 C13 3.3 13 6.6 13 10 C12.34 10 11.68 10 11 10 C10.67 9.01 10.34 8.02 10 7 C9.01 8.485 9.01 8.485 8 10 C7.01 10 6.02 10 5 10 C4.34 8.68 3.68 7.36 3 6 C2.67 7.65 2.34 9.3 2 11 C1.34 11 0.68 11 0 11 C0 7.37 0 3.74 0 0 Z " fill="#6F7180" transform="translate(363,284)"/>
<path d="M0 0 C0.99 0 1.98 0 3 0 C6 4.22222222 6 4.22222222 6 7 C8.34058637 4.87219421 9.70700306 2.88437779 11 0 C11.99 0 12.98 0 14 0 C14 3.63 14 7.26 14 11 C13.34 11 12.68 11 12 11 C11.67 9.02 11.34 7.04 11 5 C9.515 7.475 9.515 7.475 8 10 C5 9 5 9 3.8125 6.9375 C3.544375 6.298125 3.27625 5.65875 3 5 C2.67 6.98 2.34 8.96 2 11 C1.34 11 0.68 11 0 11 C0 7.37 0 3.74 0 0 Z " fill="#6B6F7E" transform="translate(255,284)"/>
<path d="M0 0 C0.99 0 1.98 0 3 0 C3 2.31 3 4.62 3 7 C5.97 7.495 5.97 7.495 9 8 C9 7.34 9 6.68 9 6 C10.98 6 12.96 6 15 6 C13.25 9.875 13.25 9.875 11 11 C9.33654418 11.12082534 7.66779409 11.1753794 6 11.1875 C4.6696875 11.20876953 4.6696875 11.20876953 3.3125 11.23046875 C1 11 1 11 -1 9 C-1.32752234 6.28545044 -1.1308425 3.74769241 -1 1 C-0.67 0.67 -0.34 0.34 0 0 Z " fill="#33A9A0" transform="translate(297,262)"/>
<path d="M0 0 C3.76687864 1.88343932 4.79421646 2.69132469 7 6 C7.928125 4.515 7.928125 4.515 8.875 3 C9.57625 2.01 10.2775 1.02 11 0 C11.66 0 12.32 0 13 0 C13 3.63 13 7.26 13 11 C12.34 10.67 11.68 10.34 11 10 C10.375 7.9375 10.375 7.9375 10 6 C9.34 7.32 8.68 8.64 8 10 C7.01 10 6.02 10 5 10 C4.34 8.68 3.68 7.36 3 6 C2.67 7.32 2.34 8.64 2 10 C1.34 10 0.68 10 0 10 C0 6.7 0 3.4 0 0 Z " fill="#6D7180" transform="translate(176,284)"/>
<path d="M0 0 C0.66 0 1.32 0 2 0 C1.814375 0.7425 1.62875 1.485 1.4375 2.25 C1.00151177 4.99049743 1.02775229 6.4368015 2 9 C2.66 9.66 3.32 10.32 4 11 C3.01 11 2.02 11 1 11 C0.731875 11.969375 0.46375 12.93875 0.1875 13.9375 C-0.204375 14.948125 -0.59625 15.95875 -1 17 C-1.99 17.33 -2.98 17.66 -4 18 C-7 13.375 -7 13.375 -7 10 C-6.06414062 9.89365234 -6.06414062 9.89365234 -5.109375 9.78515625 C-2.80770679 9.19995468 -2.80770679 9.19995468 -1.953125 6.93359375 C-1.72109375 6.10988281 -1.4890625 5.28617187 -1.25 4.4375 C-1.00765625 3.61121094 -0.7653125 2.78492188 -0.515625 1.93359375 C-0.34546875 1.29550781 -0.1753125 0.65742188 0 0 Z " fill="#EEF3F7" transform="translate(265,273)"/>
<path d="M0 0 C2.42026895 1.37148574 4.0784323 2.94511664 5.875 5.0625 C5.875 5.7225 5.875 6.3825 5.875 7.0625 C4.555 7.0625 3.235 7.0625 1.875 7.0625 C1.545 7.7225 1.215 8.3825 0.875 9.0625 C0.875 8.0725 0.875 7.0825 0.875 6.0625 C-0.0325 6.371875 -0.94 6.68125 -1.875 7 C-4.29063338 7.7897263 -6.65280285 8.49199297 -9.125 9.0625 C-8.87158809 5.64143924 -7.81717816 4.75467816 -5.3125 2.25 C-2.125 0.0625 -2.125 0.0625 0 0 Z " fill="#29365A" transform="translate(234.125,94.9375)"/>
<path d="M0 0 C4.03520597 1.58962659 8.01811282 3.28232318 12 5 C12 5.99 12 6.98 12 8 C11.29875 7.855625 10.5975 7.71125 9.875 7.5625 C6.92443859 6.98521625 3.96729849 6.48304859 1 6 C2.32 7.65 3.64 9.3 5 11 C3.35 11.33 1.7 11.66 0 12 C-1.12256131 9.75487738 -1.13413762 8.48543351 -1.125 6 C-1.12886719 4.948125 -1.12886719 4.948125 -1.1328125 3.875 C-1 2 -1 2 0 0 Z " fill="#EBEFF5" transform="translate(232,262)"/>
<path d="M0 0 C1.32 0 2.64 0 4 0 C4.33 1.98 4.66 3.96 5 6 C8.3 6 11.6 6 15 6 C14 9 14 9 12 10 C9.94140625 10.203125 9.94140625 10.203125 7.5625 10.25 C6.78003906 10.27578125 5.99757812 10.3015625 5.19140625 10.328125 C3 10 3 10 1.2265625 8.71484375 C-0.73746451 5.96895886 -0.18456979 3.26073302 0 0 Z " fill="#2EA797" transform="translate(192,263)"/>
<path d="M0 0 C0.66 0 1.32 0 2 0 C2 3.96 2 7.92 2 12 C1.01 12 0.02 12 -1 12 C-1 10.35 -1 8.7 -1 7 C-2.98 7 -4.96 7 -7 7 C-7 8.65 -7 10.3 -7 12 C-7.66 12 -8.32 12 -9 12 C-9 8.37 -9 4.74 -9 1 C-8.34 1 -7.68 1 -7 1 C-7 2.32 -7 3.64 -7 5 C-5.02 5 -3.04 5 -1 5 C-0.67 3.35 -0.34 1.7 0 0 Z " fill="#7F828E" transform="translate(94,283)"/>
<path d="M0 0 C3.375 -0.125 3.375 -0.125 7 0 C7.66 0.66 8.32 1.32 9 2 C8.625 4.625 8.625 4.625 8 7 C6.02 7 4.04 7 2 7 C2 8.65 2 10.3 2 12 C1.34 12 0.68 12 0 12 C0 8.04 0 4.08 0 0 Z " fill="#747680" transform="translate(124,283)"/>
<path d="M0 0 C-3 2 -3 2 -5 2 C-4.34 4.31 -3.68 6.62 -3 9 C-0.03 9.495 -0.03 9.495 3 10 C1 12 1 12 -2.625 12.125 C-3.73875 12.08375 -4.8525 12.0425 -6 12 C-6.33 11.34 -6.66 10.68 -7 10 C-7.99 9.67 -8.98 9.34 -10 9 C-10.125 3.25 -10.125 3.25 -9 1 C-5.8035914 -0.06546953 -3.34252724 -0.07427838 0 0 Z " fill="#32A795" transform="translate(221,260)"/>
<path d="M0 0 C1.32 0 2.64 0 4 0 C4.67119549 1.4562545 5.33681807 2.91507867 6 4.375 C6.556875 5.59316406 6.556875 5.59316406 7.125 6.8359375 C8 9 8 9 8 11 C7.34 11 6.68 11 6 11 C5.67 10.34 5.34 9.68 5 9 C1.95613276 8.91773332 -0.07175348 9.02391783 -3 10 C-2.39009109 6.44219804 -1.4216319 3.3171411 0 0 Z " fill="#7F828F" transform="translate(221,284)"/>
<path d="M0 0 C0.99 0.33 1.98 0.66 3 1 C3.33 2.65 3.66 4.3 4 6 C3.67 6 3.34 6 3 6 C3.39589062 15.39849343 3.39589062 15.39849343 8 23 C8.33 23.99 8.66 24.98 9 26 C8.34 26 7.68 26 7 26 C7 25.34 7 24.68 7 24 C6.01 23.67 5.02 23.34 4 23 C-0.56124172 15.86066514 -0.4619308 8.18644031 0 0 Z " fill="#123958" transform="translate(163,206)"/>
<path d="M0 0 C0.66 0 1.32 0 2 0 C2 3.63 2 7.26 2 11 C1.01 11 0.02 11 -1 11 C-3.1875 8.5 -3.1875 8.5 -5 6 C-5.33 7.65 -5.66 9.3 -6 11 C-6.66 11 -7.32 11 -8 11 C-8 7.7 -8 4.4 -8 1 C-7.01 1 -6.02 1 -5 1 C-2 4.33333333 -2 4.33333333 -2 7 C-1.34 7 -0.68 7 0 7 C0 4.69 0 2.38 0 0 Z " fill="#707382" transform="translate(213,283)"/>
<path d="M0 0 C6.15234375 -0.09765625 6.15234375 -0.09765625 8 0 C9 1 9 1 9.09765625 3.28515625 C9.08605469 4.20167969 9.07445312 5.11820312 9.0625 6.0625 C9.05347656 6.98160156 9.04445312 7.90070313 9.03515625 8.84765625 C9.02355469 9.55792969 9.01195312 10.26820313 9 11 C8.01 11.495 8.01 11.495 7 12 C7 11.34 7 10.68 7 10 C5.35 10 3.7 10 2 10 C2 9.01 2 8.02 2 7 C3.32 7 4.64 7 6 7 C6 6.34 6 5.68 6 5 C4.68 5 3.36 5 2 5 C2 4.01 2 3.02 2 2 C1.34 1.34 0.68 0.68 0 0 Z " fill="#E6E9F0" transform="translate(246,283)"/>
<path d="M0 0 C4.27210984 1.06802746 4.84168743 1.43878426 7 5 C7 5.66 7 6.32 7 7 C7.66 7 8.32 7 9 7 C9 4.69 9 2.38 9 0 C9.66 0 10.32 0 11 0 C11 3.63 11 7.26 11 11 C6.9915966 8.9957983 5.58590343 7.50944037 3 4 C2.67 5.98 2.34 7.96 2 10 C1.34 10 0.68 10 0 10 C0 6.7 0 3.4 0 0 Z " fill="#6D7080" transform="translate(281,284)"/>
<path d="M0 0 C3.125 0.375 3.125 0.375 6 1 C6.625 3.375 6.625 3.375 7 6 C6.34 6.66 5.68 7.32 5 8 C1.375 7.625 1.375 7.625 -2 7 C-2.125 4.625 -2.125 4.625 -2 2 C-1.34 1.34 -0.68 0.68 0 0 Z " fill="#EFF1F5" transform="translate(102,285)"/>
<path d="M0 0 C0.97608217 2.92824652 1.08226668 4.95613276 1 8 C0.67 7.34 0.34 6.68 0 6 C-3.63 6.33 -7.26 6.66 -11 7 C-11 5.02 -11 3.04 -11 1 C-7.37 1.33 -3.74 1.66 0 2 C0 1.34 0 0.68 0 0 Z " fill="#DCFBFA" transform="translate(312,262)"/>
<path d="M0 0 C0.99 0 1.98 0 3 0 C3.67119549 1.4562545 4.33681807 2.91507867 5 4.375 C5.556875 5.59316406 5.556875 5.59316406 6.125 6.8359375 C7 9 7 9 7 11 C6.01 10.67 5.02 10.34 4 10 C4 9.34 4 8.68 4 8 C2.02 8 0.04 8 -2 8 C-2 8.66 -2 9.32 -2 10 C-2.66 10 -3.32 10 -4 10 C-3.29445932 6.33118845 -1.72264494 3.29549466 0 0 Z " fill="#797C89" transform="translate(196,284)"/>
<path d="M0 0 C0.99 0 1.98 0 3 0 C6.125 6.625 6.125 6.625 5 10 C2.69 9.34 0.38 8.68 -2 8 C-2 8.66 -2 9.32 -2 10 C-2.66 10 -3.32 10 -4 10 C-3.43768609 6.06380262 -2.38314183 3.20807554 0 0 Z " fill="#5B5D6D" transform="translate(154,284)"/>
<path d="M0 0 C0.98871094 -0.01417969 1.97742188 -0.02835938 2.99609375 -0.04296875 C5.5625 0.1875 5.5625 0.1875 7.5625 2.1875 C7.5625 3.1775 7.5625 4.1675 7.5625 5.1875 C4.07015756 5.28728121 0.96812852 4.96592938 -2.4375 4.1875 C-3.4275 5.6725 -3.4275 5.6725 -4.4375 7.1875 C-5.0975 7.1875 -5.7575 7.1875 -6.4375 7.1875 C-6.48004356 5.18795254 -6.47830783 3.18708364 -6.4375 1.1875 C-4.69900372 -0.55099628 -2.3588363 0.01533704 0 0 Z " fill="#233152" transform="translate(241.4375,254.8125)"/>
<path d="M0 0 C0.33 0.99 0.66 1.98 1 3 C-1.64 2.67 -4.28 2.34 -7 2 C-7.38218767 3.65614657 -7.71395102 5.32457024 -8 7 C-6.87465895 8.35618499 -6.87465895 8.35618499 -3.9375 8.0625 C-2.968125 8.041875 -1.99875 8.02125 -1 8 C-0.67 7.34 -0.34 6.68 0 6 C-1.65 6 -3.3 6 -5 6 C-5 5.67 -5 5.34 -5 5 C-2.69 5 -0.38 5 2 5 C1.6875 6.875 1.6875 6.875 1 9 C-2.25763222 11.17175481 -3.22439213 11.46043998 -7 11 C-9.3125 9.8125 -9.3125 9.8125 -11 8 C-11.49315303 5.1819827 -11.38323858 3.69461993 -10 1.1875 C-6.76011038 -0.73618446 -3.7174181 -0.18282384 0 0 Z " fill="#6A6C79" transform="translate(241,284)"/>
<path d="M0 0 C0.33 0 0.66 0 1 0 C1.18175781 1.25103516 1.18175781 1.25103516 1.3671875 2.52734375 C2.51493023 10.24493133 2.51493023 10.24493133 4.125 17.875 C5.02579723 21.68227578 5.16613608 25.09580205 5 29 C-0.31464982 23.20220019 -0.29228592 15.42492135 -0.125 8 C-0.11597656 7.22527344 -0.10695312 6.45054687 -0.09765625 5.65234375 C-0.07439388 3.76809157 -0.0385364 1.88400168 0 0 Z " fill="#489393" transform="translate(149,183)"/>
<path d="M0 0 C2.64 0 5.28 0 8 0 C8 0.33 8 0.66 8 1 C6.35 1 4.7 1 3 1 C3 1.99 3 2.98 3 4 C4.32 4 5.64 4 7 4 C7 4.66 7 5.32 7 6 C5.68 6 4.36 6 3 6 C3 6.99 3 7.98 3 9 C4.65 9 6.3 9 8 9 C8 9.66 8 10.32 8 11 C5.36 11 2.72 11 0 11 C0 7.37 0 3.74 0 0 Z " fill="#838691" transform="translate(245,284)"/>
<path d="M0 0 C1.32 0 2.64 0 4 0 C4 6.27 4 12.54 4 19 C2.68 18.67 1.36 18.34 0 18 C0.99 17.67 1.98 17.34 3 17 C3 14.69 3 12.38 3 10 C0.525 9.01 0.525 9.01 -2 8 C-1.34 7.67 -0.68 7.34 0 7 C0 4.69 0 2.38 0 0 Z " fill="#34A090" transform="translate(225,254)"/>
<path d="M0 0 C2.5 1.375 2.5 1.375 5 3 C5 3.66 5 4.32 5 5 C5.59296875 5.25523438 6.1859375 5.51046875 6.796875 5.7734375 C9.21224538 7.11816498 10.51211706 8.49214367 12.25 10.625 C12.77078125 11.25664063 13.2915625 11.88828125 13.828125 12.5390625 C14.40820312 13.26222656 14.40820312 13.26222656 15 14 C14.01 14.495 14.01 14.495 13 15 C12.34 14.67 11.68 14.34 11 14 C11 13.01 11 12.02 11 11 C8.36 10.67 5.72 10.34 3 10 C3.66 9.01 4.32 8.02 5 7 C3.68 6.67 2.36 6.34 1 6 C1 5.34 1 4.68 1 4 C0.34 3.67 -0.32 3.34 -1 3 C-0.67 2.01 -0.34 1.02 0 0 Z " fill="#2F4262" transform="translate(240,101)"/>
<path d="M0 0 C2.64 0 5.28 0 8 0 C8 2.64 8 5.28 8 8 C8.66 8 9.32 8 10 8 C10.144375 9.093125 10.28875 10.18625 10.4375 11.3125 C10.88288104 14.93122987 10.88288104 14.93122987 12 18 C12.66 18.33 13.32 18.66 14 19 C11.69 19 9.38 19 7 19 C7 13.06 7 7.12 7 1 C4.69 1 2.38 1 0 1 C0 0.67 0 0.34 0 0 Z " fill="#D0E2E6" transform="translate(181,254)"/>
<path d="M0 0 C5.78201806 5.08116739 11.84005172 12.37812165 12.9375 20.1875 C12.958125 21.115625 12.97875 22.04375 13 23 C12.34 22.67 11.68 22.34 11 22 C10.566875 20.6078125 10.566875 20.6078125 10.125 19.1875 C8.9178463 15.76723119 7.60035803 14.432593 5 12 C4.67 11.01 4.34 10.02 4 9 C3.2575 8.3503125 3.2575 8.3503125 2.5 7.6875 C0.39495139 5.31932032 0.34279827 3.08518447 0 0 Z " fill="#467B84" transform="translate(303,159)"/>
<path d="M0 0 C0.66 0.99 1.32 1.98 2 3 C1.34 3.66 0.68 4.32 0 5 C-0.33 4.34 -0.66 3.68 -1 3 C-1.45375 3.66 -1.9075 4.32 -2.375 5 C-2.91125 5.66 -3.4475 6.32 -4 7 C-4.66 7 -5.32 7 -6 7 C-6 8.65 -6 10.3 -6 12 C-7.65 12.33 -9.3 12.66 -11 13 C-11.33 12.34 -11.66 11.68 -12 11 C-10.75 8.4375 -10.75 8.4375 -9 6 C-8.01 5.67 -7.02 5.34 -6 5 C-5.67 4.01 -5.34 3.02 -5 2 C-2.4375 0.8125 -2.4375 0.8125 0 0 Z " fill="#2F4464" transform="translate(222,106)"/>
<path d="M0 0 C2.31 0 4.62 0 7 0 C5.31326082 4.49797113 3.18326108 8.72886302 1 13 C-0.49050192 8.52849424 -1.51303606 4.53910817 0 0 Z " fill="#51B7B2" transform="translate(265,258)"/>
<path d="M0 0 C0.66 1.32 1.32 2.64 2 4 C0.625 5.5 0.625 5.5 -1 7 C-1.66 7 -2.32 7 -3 7 C-3.144375 7.969375 -3.28875 8.93875 -3.4375 9.9375 C-4 13 -4 13 -5 14 C-5.36760731 16.32817964 -5.70241581 18.6618385 -6 21 C-8 19 -8 19 -8.22265625 17.1875 C-7.69784081 10.01928915 -4.41176255 5.51758293 0 0 Z " fill="#D5F0F1" transform="translate(173,186)"/>
<path d="M0 0 C0 0.99 0 1.98 0 3 C2.64 3 5.28 3 8 3 C7.67 3.66 7.34 4.32 7 5 C5.68 4.67 4.36 4.34 3 4 C3.33 5.65 3.66 7.3 4 9 C3.01 8.34 2.02 7.68 1 7 C1 6.34 1 5.68 1 5 C0.34 5 -0.32 5 -1 5 C-1.22429687 4.35546875 -1.44859375 3.7109375 -1.6796875 3.046875 C-2.82889456 0.75611148 -2.82889456 0.75611148 -5.3828125 0.390625 C-6.74019531 0.32101563 -6.74019531 0.32101563 -8.125 0.25 C-9.03507813 0.19328125 -9.94515625 0.1365625 -10.8828125 0.078125 C-11.58148438 0.05234375 -12.28015625 0.0265625 -13 0 C-12.67 -0.66 -12.34 -1.32 -12 -2 C-6.97514586 -3.49387555 -4.30301713 -2.86867809 0 0 Z " fill="#D4D8E3" transform="translate(250,255)"/>
<path d="M0 0 C0.33 0 0.66 0 1 0 C1 3.3 1 6.6 1 10 C1.66 10 2.32 10 3 10 C3 8.02 3 6.04 3 4 C4.65 5.65 6.3 7.3 8 9 C6.68 9 5.36 9 4 9 C4 9.66 4 10.32 4 11 C2.68 11 1.36 11 0 11 C-1.484375 9.3203125 -1.484375 9.3203125 -2.75 7.125 C-3.39195312 6.04605469 -3.39195312 6.04605469 -4.046875 4.9453125 C-5 3 -5 3 -5 1 C-4.01 1 -3.02 1 -2 1 C-1.67 1.99 -1.34 2.98 -1 4 C-0.67 2.68 -0.34 1.36 0 0 Z " fill="#D8DBE3" transform="translate(204,284)"/>
<path d="M0 0 C0.598125 0.20625 1.19625 0.4125 1.8125 0.625 C2.19468767 2.28114657 2.52645102 3.94957024 2.8125 5.625 C1.8125 6.625 1.8125 6.625 -1.25 6.6875 C-2.219375 6.666875 -3.18875 6.64625 -4.1875 6.625 C-4.5175 4.975 -4.8475 3.325 -5.1875 1.625 C-2.1875 -0.375 -2.1875 -0.375 0 0 Z " fill="#B4ECE6" transform="translate(221.1875,262.375)"/>
<path d="M0 0 C4.56030824 3.80475422 8.85089392 7.74969621 13 12 C12.67 12.66 12.34 13.32 12 14 C10.68 13.67 9.36 13.34 8 13 C7.67 11.68 7.34 10.36 7 9 C6.34 9.66 5.68 10.32 5 11 C4.87625 10.360625 4.7525 9.72125 4.625 9.0625 C4.41875 8.381875 4.2125 7.70125 4 7 C3.34 6.67 2.68 6.34 2 6 C2 5.34 2 4.68 2 4 C0.68 3.67 -0.64 3.34 -2 3 C-1.34 2.67 -0.68 2.34 0 2 C0 1.34 0 0.68 0 0 Z " fill="#316673" transform="translate(290,147)"/>
<path d="M0 0 C2.31 0 4.62 0 7 0 C7 0.33 7 0.66 7 1 C5.35 1 3.7 1 2 1 C2.66 1.99 3.32 2.98 4 4 C4.99 4 5.98 4 7 4 C7 4.66 7 5.32 7 6 C5.35 6 3.7 6 2 6 C2 6.99 2 7.98 2 9 C3.65 9 5.3 9 7 9 C7 9.66 7 10.32 7 11 C4.69 11 2.38 11 0 11 C0 7.37 0 3.74 0 0 Z " fill="#757984" transform="translate(353,284)"/>
<path d="M0 0 C2.23465229 3.35197843 2.27108649 4.57791246 2.25 8.5 C2.25515625 9.4590625 2.2603125 10.418125 2.265625 11.40625 C2 14 2 14 0 17 C-0.33 14.03 -0.66 11.06 -1 8 C-1.99 8.66 -2.98 9.32 -4 10 C-4.41176754 6.39703406 -4.1535853 5.21597933 -2 2.1875 C-1.34 1.465625 -0.68 0.74375 0 0 Z " fill="#164966" transform="translate(302,204)"/>
<path d="M0 0 C1.4540625 0.0309375 1.4540625 0.0309375 2.9375 0.0625 C3.2675 0.7225 3.5975 1.3825 3.9375 2.0625 C0.9675 1.5675 0.9675 1.5675 -2.0625 1.0625 C-2.0625 2.0525 -2.0625 3.0425 -2.0625 4.0625 C-0.4125 4.3925 1.2375 4.7225 2.9375 5.0625 C3.31968767 6.71864657 3.65145102 8.38707024 3.9375 10.0625 C2.9375 11.0625 2.9375 11.0625 -0.125 11.125 C-1.094375 11.104375 -2.06375 11.08375 -3.0625 11.0625 C-3.3925 10.0725 -3.7225 9.0825 -4.0625 8.0625 C-1.0925 8.5575 -1.0925 8.5575 1.9375 9.0625 C1.9375 8.0725 1.9375 7.0825 1.9375 6.0625 C0.2875 5.7325 -1.3625 5.4025 -3.0625 5.0625 C-3.625 3.125 -3.625 3.125 -4.0625 1.0625 C-3.0625 0.0625 -3.0625 0.0625 0 0 Z " fill="#5B5D6A" transform="translate(336.0625,283.9375)"/>
<path d="M0 0 C1.32 0.33 2.64 0.66 4 1 C5.17571451 4.67410785 5.07366746 8.16929183 5 12 C3.68 12 2.36 12 1 12 C0.67 8.04 0.34 4.08 0 0 Z " fill="#15A59F" transform="translate(286,261)"/>
<path d="M0 0 C0.33 0 0.66 0 1 0 C0.98839844 0.61488281 0.97679687 1.22976562 0.96484375 1.86328125 C0.95582031 2.67152344 0.94679688 3.47976562 0.9375 4.3125 C0.92589844 5.11300781 0.91429687 5.91351563 0.90234375 6.73828125 C0.90342145 9.16861334 0.90342145 9.16861334 2 12 C0.85546875 14.04296875 0.85546875 14.04296875 -0.8125 16.1875 C-1.35519531 16.90292969 -1.89789063 17.61835938 -2.45703125 18.35546875 C-2.96621094 18.89816406 -3.47539062 19.44085938 -4 20 C-4.66 20 -5.32 20 -6 20 C-6 19.01 -6 18.02 -6 17 C-5.34 17 -4.68 17 -4 17 C-2.19003784 11.34244531 -0.64270983 5.9129304 0 0 Z " fill="#418C94" transform="translate(304,211)"/>
<path d="M0 0 C1.98 0 3.96 0 6 0 C6.33 0.66 6.66 1.32 7 2 C4.03 1.505 4.03 1.505 1 1 C1 1.99 1 2.98 1 4 C3.31 4.66 5.62 5.32 8 6 C7.125 9.875 7.125 9.875 6 11 C3.5625 11.25 3.5625 11.25 1 11 C0.34 10.01 -0.32 9.02 -1 8 C1.31 8.33 3.62 8.66 6 9 C4.49336217 5.98672434 1.96833589 5.38943382 -1 4 C-0.67 2.68 -0.34 1.36 0 0 Z " fill="#62666F" transform="translate(114,284)"/>
<path d="M0 0 C0.66 0.66 1.32 1.32 2 2 C1.01 3.485 1.01 3.485 0 5 C-3.3 4.34 -6.6 3.68 -10 3 C-10 2.01 -10 1.02 -10 0 C-6.25976024 -1.24674659 -3.83399823 -0.76679965 0 0 Z " fill="#3EA796" transform="translate(205,259)"/>
<path d="M0 0 C0.77734375 1.640625 0.77734375 1.640625 1 4 C-0.87109375 6.796875 -0.87109375 6.796875 -3.4375 9.75 C-4.28183594 10.73484375 -5.12617188 11.7196875 -5.99609375 12.734375 C-6.65738281 13.48203125 -7.31867188 14.2296875 -8 15 C-8.5534764 12.92446352 -9 11.15634036 -9 9 C-7.35 8.67 -5.7 8.34 -4 8 C-4.33 6.68 -4.66 5.36 -5 4 C-4.34 4 -3.68 4 -3 4 C-3 3.34 -3 2.68 -3 2 C-2.01 1.34 -1.02 0.68 0 0 Z " fill="#36596D" transform="translate(217,129)"/>
<path d="M0 0 C1.98 0 3.96 0 6 0 C4.68 0.33 3.36 0.66 2 1 C2 1.99 2 2.98 2 4 C3.32 4 4.64 4 6 4 C6 4.66 6 5.32 6 6 C4.35 6 2.7 6 1 6 C1 6.99 1 7.98 1 9 C2.98 9 4.96 9 7 9 C7 9.66 7 10.32 7 11 C4.69 11 2.38 11 0 11 C0 7.37 0 3.74 0 0 Z " fill="#707482" transform="translate(272,284)"/>
<path d="M0 0 C4.62 0 9.24 0 14 0 C14 0.66 14 1.32 14 2 C12.39679026 2.19551338 10.79237014 2.38111983 9.1875 2.5625 C8.29417969 2.66691406 7.40085938 2.77132812 6.48046875 2.87890625 C4 3 4 3 1 2 C1 6.62 1 11.24 1 16 C0.67 16 0.34 16 0 16 C0 10.72 0 5.44 0 0 Z " fill="#394363" transform="translate(224,156)"/>
<path d="M0 0 C0.66 0.33 1.32 0.66 2 1 C0.9318153 6.11365014 -0.23107476 11.07227969 -2 16 C-3.98 16 -5.96 16 -8 16 C-7.67 14.35 -7.34 12.7 -7 11 C-6.67 11.66 -6.34 12.32 -6 13 C-6.33 13.66 -6.66 14.32 -7 15 C-5.68 15 -4.36 15 -3 15 C-2.95101563 14.25234375 -2.90203125 13.5046875 -2.8515625 12.734375 C-2.73941406 11.25710938 -2.73941406 11.25710938 -2.625 9.75 C-2.55539062 8.77546875 -2.48578125 7.8009375 -2.4140625 6.796875 C-2.01534751 4.10366811 -1.36492937 2.33036721 0 0 Z " fill="#32ABA9" transform="translate(264,264)"/>
<path d="M0 0 C0.93423645 3.01031744 1.04449911 3.86650268 0 7 C0.66 7.33 1.32 7.66 2 8 C1.34 8.66 0.68 9.32 0 10 C-2.125 9.625 -2.125 9.625 -4 9 C-4.12375 9.763125 -4.2475 10.52625 -4.375 11.3125 C-5 14 -5 14 -7 17 C-6.70368676 10.18479548 -3.69535803 5.61649218 0 0 Z " fill="#49808B" transform="translate(157,166)"/>
<path d="M0 0 C1.2065625 0.0309375 1.2065625 0.0309375 2.4375 0.0625 C2.4375 1.0525 2.4375 2.0425 2.4375 3.0625 C1.1175 2.7325 -0.2025 2.4025 -1.5625 2.0625 C-1.5625 5.3625 -1.5625 8.6625 -1.5625 12.0625 C-3.8725 12.0625 -6.1825 12.0625 -8.5625 12.0625 C-8.5625 11.7325 -8.5625 11.4025 -8.5625 11.0625 C-6.9125 11.0625 -5.2625 11.0625 -3.5625 11.0625 C-3.57410156 10.35222656 -3.58570313 9.64195312 -3.59765625 8.91015625 C-3.61119141 7.53150391 -3.61119141 7.53150391 -3.625 6.125 C-3.63660156 5.20847656 -3.64820313 4.29195313 -3.66015625 3.34765625 C-3.52086326 0.08820018 -3.27895972 0.07997463 0 0 Z " fill="#ACE9E5" transform="translate(282.5625,261.9375)"/>
<path d="M0 0 C0 0.66 0 1.32 0 2 C-1.65788785 3.34423339 -3.32576317 4.67618483 -5 6 C-5.556875 6.7425 -6.11375 7.485 -6.6875 8.25 C-7.120625 8.8275 -7.55375 9.405 -8 10 C-8.66 10 -9.32 10 -10 10 C-9.67 11.32 -9.34 12.64 -9 14 C-9.99 14.33 -10.98 14.66 -12 15 C-12.66 14.34 -13.32 13.68 -14 13 C-2.80645161 0 -2.80645161 0 0 0 Z " fill="#487882" transform="translate(172,152)"/>
<path d="M0 0 C0.33 0.66 0.66 1.32 1 2 C1.99 2.33 2.98 2.66 4 3 C3.34 6.3 2.68 9.6 2 13 C0.68 13 -0.64 13 -2 13 C-1.67 11.35 -1.34 9.7 -1 8 C-0.34 8 0.32 8 1 8 C0.67 5.36 0.34 2.72 0 0 Z " fill="#13A6A0" transform="translate(259,266)"/>
<path d="M0 0 C0.66 0 1.32 0 2 0 C2 0.66 2 1.32 2 2 C4.31 2 6.62 2 9 2 C9.33 2.99 9.66 3.98 10 5 C7.69 5 5.38 5 3 5 C3 4.34 3 3.68 3 3 C1.68 3 0.36 3 -1 3 C-1 4.98 -1 6.96 -1 9 C-1.33 9 -1.66 9 -2 9 C-2.125 5.625 -2.125 5.625 -2 2 C-1.34 1.34 -0.68 0.68 0 0 Z " fill="#76CBC2" transform="translate(193,260)"/>
<path d="M0 0 C5.32697239 1.45281065 8.36402802 5.08111378 12 9 C11.34 9.66 10.68 10.32 10 11 C10 10.34 10 9.68 10 9 C8.68 9 7.36 9 6 9 C5.7525 8.38125 5.505 7.7625 5.25 7.125 C3.79371361 4.64931313 2.62187494 4.04874998 0 3 C0 2.01 0 1.02 0 0 Z " fill="#3E556D" transform="translate(254,115)"/>
<path d="M0 0 C0.5775 0.61875 1.155 1.2375 1.75 1.875 C3.80249821 3.81347053 5.43366582 4.90014249 8 6 C8 6.66 8 7.32 8 8 C1.84765625 8.09765625 1.84765625 8.09765625 0 8 C-0.33 7.67 -0.66 7.34 -1 7 C-0.71269945 4.66055264 -0.38063221 2.3260857 0 0 Z " fill="#E3E6EE" transform="translate(112,285)"/>
<path d="M0 0 C0.66 0 1.32 0 2 0 C2 4.95 2 9.9 2 15 C1.67 15 1.34 15 1 15 C0.67 12.03 0.34 9.06 0 6 C-0.66 6 -1.32 6 -2 6 C-2.33 7.65 -2.66 9.3 -3 11 C-3.66 11 -4.32 11 -5 11 C-3.78065514 6.96678237 -2.44045073 3.45730521 0 0 Z " fill="#C1F1F0" transform="translate(272,258)"/>
<path d="M0 0 C0.99 0 1.98 0 3 0 C3.33 1.32 3.66 2.64 4 4 C4.66 4 5.32 4 6 4 C6.33 2.68 6.66 1.36 7 0 C7.66 0 8.32 0 9 0 C8.01 3.3 7.02 6.6 6 10 C5.34 10 4.68 10 4 10 C1.125 3.375 1.125 3.375 0 0 Z " fill="#727480" transform="translate(320,284)"/>
<path d="M0 0 C3.44216672 2.6598561 3.99504674 5.90288286 5 10 C4.34 10.66 3.68 11.32 3 12 C2.3574765 14.06874034 2.3574765 14.06874034 2 16 C3.65 16 5.3 16 7 16 C7 16.33 7 16.66 7 17 C5.02 17 3.04 17 1 17 C1.33 12.71 1.66 8.42 2 4 C1.34 4 0.68 4 0 4 C0 2.68 0 1.36 0 0 Z " fill="#B3E9E7" transform="translate(254,264)"/>
<path d="M0 0 C-1 3 -1 3 -3 4 C-4.54023996 4.06950541 -6.08334988 4.08452357 -7.625 4.0625 C-8.85089844 4.04896484 -8.85089844 4.04896484 -10.1015625 4.03515625 C-11.04128906 4.01775391 -11.04128906 4.01775391 -12 4 C-11.34 3.67 -10.68 3.34 -10 3 C-10 2.34 -10 1.68 -10 1 C-6.59437148 0.22157062 -3.49234244 -0.09978121 0 0 Z " fill="#41A693" transform="translate(207,269)"/>
<path d="M0 0 C0.33 0 0.66 0 1 0 C1 1.65 1 3.3 1 5 C-0.216875 4.938125 -1.43375 4.87625 -2.6875 4.8125 C-6.65458389 4.78451352 -8.65137385 5.86059996 -12 8 C-14.3125 7.6875 -14.3125 7.6875 -16 7 C-16 6.67 -16 6.34 -16 6 C-14.35 6 -12.7 6 -11 6 C-10.67 5.01 -10.34 4.02 -10 3 C-6.7 3 -3.4 3 0 3 C0 2.01 0 1.02 0 0 Z " fill="#D7F9F7" transform="translate(223,254)"/>
<path d="M0 0 C0.99 0 1.98 0 3 0 C4.1577506 3.47325181 4.06866652 6.36067448 4 10 C3.34 10 2.68 10 2 10 C2 8.68 2 7.36 2 6 C0.68 5.67 -0.64 5.34 -2 5 C-1.34 3.35 -0.68 1.7 0 0 Z " fill="#1D285D" transform="translate(182,256)"/>
<path d="M0 0 C1.32 0 2.64 0 4 0 C4 0.66 4 1.32 4 2 C4.66 2 5.32 2 6 2 C6 2.99 6 3.98 6 5 C6.66 5 7.32 5 8 5 C8 5.66 8 6.32 8 7 C8.99 7.33 9.98 7.66 11 8 C11 8.66 11 9.32 11 10 C5.36310966 8.67367286 3.06814317 4.53368235 0 0 Z " fill="#337C7E" transform="translate(288,180)"/>
<path d="M0 0 C4.95 0.33 9.9 0.66 15 1 C15.33 2.65 15.66 4.3 16 6 C15.67 5.34 15.34 4.68 15 4 C10.73534689 2.3597488 5.76868149 2.27438708 1.5625 4 C1.046875 4.33 0.53125 4.66 0 5 C0 3.35 0 1.7 0 0 Z " fill="#DDFAFA" transform="translate(296,256)"/>
<path d="M0 0 C0.66 0 1.32 0 2 0 C2 2.97 2 5.94 2 9 C3.32 9 4.64 9 6 9 C6 9.66 6 10.32 6 11 C4.02 11 2.04 11 0 11 C0 7.37 0 3.74 0 0 Z " fill="#6F727B" transform="translate(163,284)"/>
<path d="M0 0 C1.98 0.99 1.98 0.99 4 2 C4.33 2.99 4.66 3.98 5 5 C4.01 5.495 4.01 5.495 3 6 C2.34786708 8.02463255 2.34786708 8.02463255 2 10 C1.34 10 0.68 10 0 10 C0 6.7 0 3.4 0 0 Z " fill="#676A7A" transform="translate(176,284)"/>
<path d="M0 0 C0.66 0 1.32 0 2 0 C2 0.99 2 1.98 2 3 C2.66 3 3.32 3 4 3 C4.36923077 7.55384615 4.36923077 7.55384615 2.5 9.8125 C2.005 10.204375 1.51 10.59625 1 11 C0.01 10.67 -0.98 10.34 -2 10 C-1.01 9.34 -0.02 8.68 1 8 C1.33 7.01 1.66 6.02 2 5 C-0.31 5 -2.62 5 -5 5 C-5 4.67 -5 4.34 -5 4 C-3.02 4 -1.04 4 1 4 C0.67 2.68 0.34 1.36 0 0 Z " fill="#D5D7E2" transform="translate(241,284)"/>
<path d="M0 0 C0.33 0 0.66 0 1 0 C1.33 5.94 1.66 11.88 2 18 C-1 15 -1 15 -1.25 11.25 C-1.10917049 7.44760328 -0.62514019 3.75084114 0 0 Z " fill="#CDEDEF" transform="translate(148,186)"/>
<path d="M0 0 C0.66 0.33 1.32 0.66 2 1 C-0.64 4.3 -3.28 7.6 -6 11 C-6.99 10.34 -7.98 9.68 -9 9 C-8.34 8.01 -7.68 7.02 -7 6 C-6.01 6 -5.02 6 -4 6 C-3.34 4.68 -2.68 3.36 -2 2 C-1.34 2 -0.68 2 0 2 C0 1.34 0 0.68 0 0 Z " fill="#366B77" transform="translate(196,156)"/>
<path d="M0 0 C0.6875 1.8125 0.6875 1.8125 1 4 C-0.4375 5.5625 -0.4375 5.5625 -2 7 C-2 7.99 -2 8.98 -2 10 C-3.65 10.66 -5.3 11.32 -7 12 C-5.63855967 6.80177328 -3.53269829 3.90456127 0 0 Z " fill="#D9E7EE" transform="translate(218,132)"/>
<path d="M0 0 C0.33 0 0.66 0 1 0 C1 3.63 1 7.26 1 11 C-1.875 11.625 -1.875 11.625 -5 12 C-5.66 11.34 -6.32 10.68 -7 10 C-6.34 10 -5.68 10 -5 10 C-4.34 8.68 -3.68 7.36 -3 6 C-2.67 7.32 -2.34 8.64 -2 10 C-1.34 10 -0.68 10 0 10 C0 6.7 0 3.4 0 0 Z " fill="#C5C6CF" transform="translate(376,284)"/>
<path d="M0 0 C3.3 0 6.6 0 10 0 C10.33 1.32 10.66 2.64 11 4 C10.67 3.34 10.34 2.68 10 2 C6.7 2.33 3.4 2.66 0 3 C0 2.01 0 1.02 0 0 Z " fill="#9FE4DE" transform="translate(197,267)"/>
<path d="M0 0 C0.66 0 1.32 0 2 0 C2 2.97 2 5.94 2 9 C-0.475 8.01 -0.475 8.01 -3 7 C-2.34 6.67 -1.68 6.34 -1 6 C-1.0309375 4.7934375 -1.0309375 4.7934375 -1.0625 3.5625 C-1 1 -1 1 0 0 Z " fill="#28A696" transform="translate(226,255)"/>
<path d="M0 0 C1.32 0.33 2.64 0.66 4 1 C0.7 3.97 -2.6 6.94 -6 10 C-6.33 9.01 -6.66 8.02 -7 7 C-6.34 7 -5.68 7 -5 7 C-4.67 6.01 -4.34 5.02 -4 4 C-3.34 4 -2.68 4 -2 4 C-1.34 2.68 -0.68 1.36 0 0 Z " fill="#DCEBF1" transform="translate(185,135)"/>
<path d="M0 0 C2.76223278 2.76223278 2.57856291 5.20706617 3 9 C-0.71368887 7.76210371 -1.77354181 6.14775123 -4 3 C-4 2.34 -4 1.68 -4 1 C-2.125 0.375 -2.125 0.375 0 0 Z " fill="#284E68" transform="translate(251,128)"/>
<path d="M0 0 C3 3.625 3 3.625 3 7 C1.02 7 -0.96 7 -3 7 C-2.67 5.35 -2.34 3.7 -2 2 C-1.34 2 -0.68 2 0 2 C0 1.34 0 0.68 0 0 Z " fill="#A1A5B4" transform="translate(156,284)"/>
<path d="M0 0 C0.99 0 1.98 0 3 0 C2.67 2.97 2.34 5.94 2 9 C1.01 8.67 0.02 8.34 -1 8 C-1.04241723 5.66705225 -1.04092937 3.33297433 -1 1 C-0.67 0.67 -0.34 0.34 0 0 Z " fill="#14A49E" transform="translate(297,262)"/>
<path d="M0 0 C3.28788824 3.11016455 5.83735988 6.01618925 8 10 C6.68 9.67 5.36 9.34 4 9 C3.67 7.68 3.34 6.36 3 5 C2.01 5 1.02 5 0 5 C0 3.35 0 1.7 0 0 Z " fill="#CEE9E9" transform="translate(289,182)"/>
<path d="M0 0 C0.99 0.33 1.98 0.66 3 1 C1.85793642 2.50287218 0.71125043 4.00223284 -0.4375 5.5 C-1.39462891 6.75296875 -1.39462891 6.75296875 -2.37109375 8.03125 C-2.90863281 8.6809375 -3.44617188 9.330625 -4 10 C-4.33 10 -4.66 10 -5 10 C-5 8.35 -5 6.7 -5 5 C-4.01 5 -3.02 5 -2 5 C-1.7834375 4.0409375 -1.7834375 4.0409375 -1.5625 3.0625 C-1 1 -1 1 0 0 Z " fill="#3F787F" transform="translate(186,167)"/>
<path d="M0 0 C0.66 0 1.32 0 2 0 C1.43877278 3.25511789 0.66879905 4.99840071 -2 7 C-4.6875 7.6875 -4.6875 7.6875 -7 8 C-6.02133662 6.85373678 -5.04205413 5.70800212 -4.0625 4.5625 C-3.51722656 3.92441406 -2.97195312 3.28632813 -2.41015625 2.62890625 C-1.63204305 1.73008851 -0.84063472 0.84063472 0 0 Z " fill="#46687A" transform="translate(185,138)"/>
<path d="M0 0 C4.29 0 8.58 0 13 0 C13 0.99 13 1.98 13 3 C12.40832031 2.91621094 11.81664062 2.83242188 11.20703125 2.74609375 C6.90060543 2.19110576 3.24447356 1.76773348 -1 3 C-0.67 2.01 -0.34 1.02 0 0 Z " fill="#DAF9F7" transform="translate(194,257)"/>
<path d="M0 0 C0.99 0 1.98 0 3 0 C2.34 1.98 1.68 3.96 1 6 C0.34 6 -0.32 6 -1 6 C-1.12375 6.804375 -1.2475 7.60875 -1.375 8.4375 C-1.58125 9.283125 -1.7875 10.12875 -2 11 C-2.99 11.495 -2.99 11.495 -4 12 C-3.33501617 7.61110675 -1.81242323 4.0188515 0 0 Z " fill="#183D5A" transform="translate(299,222)"/>
<path d="M0 0 C0.66 0.33 1.32 0.66 2 1 C0.62845496 3.95409701 -0.98863724 6.44008376 -3 9 C-4.32 8.34 -5.64 7.68 -7 7 C-4.69 4.69 -2.38 2.38 0 0 Z " fill="#3B596E" transform="translate(198,126)"/>
<path d="M0 0 C0.99 0 1.98 0 3 0 C3 3.63 3 7.26 3 11 C2.34 11 1.68 11 1 11 C0.67 7.37 0.34 3.74 0 0 Z " fill="#5D6070" transform="translate(266,284)"/>
<path d="M0 0 C0.66 0.33 1.32 0.66 2 1 C2 2.65 2 4.3 2 6 C0.02 6.99 0.02 6.99 -2 8 C-2 8.66 -2 9.32 -2 10 C-4.31 10 -6.62 10 -9 10 C-9 9.67 -9 9.34 -9 9 C-7.02 9 -5.04 9 -3 9 C-2.67 7.68 -2.34 6.36 -2 5 C-1.01 5 -0.02 5 1 5 C0.67 3.35 0.34 1.7 0 0 Z " fill="#5E6580" transform="translate(248,264)"/>
<path d="M0 0 C3.12290635 0.48578543 5.99580359 0.9986012 9 2 C8.67 4.64 8.34 7.28 8 10 C7.67 10 7.34 10 7 10 C7 8.02 7 6.04 7 4 C6.401875 3.896875 5.80375 3.79375 5.1875 3.6875 C2.71756736 2.91123545 1.67748765 1.92911079 0 0 Z " fill="#C7F3F1" transform="translate(287,258)"/>
<path d="M0 0 C2.0625 0.4375 2.0625 0.4375 4 1 C4.33 2.32 4.66 3.64 5 5 C3.35 5 1.7 5 0 5 C-0.5625 3.0625 -0.5625 3.0625 -1 1 C-0.67 0.67 -0.34 0.34 0 0 Z " fill="#373D5B" transform="translate(244,255)"/>
<path d="M0 0 C-1.29299694 2.88437779 -2.65941363 4.87219421 -5 7 C-5.33 6.01 -5.66 5.02 -6 4 C-6 4.99 -6 5.98 -6 7 C-6.66 6.67 -7.32 6.34 -8 6 C-8 5.01 -8 4.02 -8 3 C-6.68 3 -5.36 3 -4 3 C-4 2.34 -4 1.68 -4 1 C-2 0 -2 0 0 0 Z " fill="#3B4567" transform="translate(295,214)"/>
<path d="M0 0 C1.98 0.66 3.96 1.32 6 2 C6.33 3.65 6.66 5.3 7 7 C6.01 7 5.02 7 4 7 C2.02 3.535 2.02 3.535 0 0 Z " fill="#3E8689" transform="translate(295,189)"/>
<path d="M0 0 C0.99 0.33 1.98 0.66 3 1 C0.36 3.64 -2.28 6.28 -5 9 C-5.33 8.01 -5.66 7.02 -6 6 C-4 4 -2 2 0 0 Z " fill="#E2F6F8" transform="translate(165,154)"/>
<path d="M0 0 C0 0.99 0 1.98 0 3 C-0.70125 2.855625 -1.4025 2.71125 -2.125 2.5625 C-5.07556141 1.98521625 -8.03270151 1.48304859 -11 1 C-11 0.67 -11 0.34 -11 0 C-6.98195309 -0.84098656 -3.98196457 -1.05404945 0 0 Z " fill="#CCD0DE" transform="translate(244,267)"/>
<path d="M0 0 C0.66 0 1.32 0 2 0 C2 0.66 2 1.32 2 2 C4.64 2 7.28 2 10 2 C9.67 2.66 9.34 3.32 9 4 C7.68 3.67 6.36 3.34 5 3 C5.33 4.65 5.66 6.3 6 8 C5.01 7.34 4.02 6.68 3 6 C3 5.34 3 4.68 3 4 C2.34 4 1.68 4 1 4 C0.67 2.68 0.34 1.36 0 0 Z " fill="#A0D1D1" transform="translate(248,256)"/>
<path d="M0 0 C1.9375 0.3125 1.9375 0.3125 4 1 C4.33 1.99 4.66 2.98 5 4 C3.68 5.32 2.36 6.64 1 8 C0.34 7.67 -0.32 7.34 -1 7 C-0.67 4.69 -0.34 2.38 0 0 Z " fill="#2F978F" transform="translate(305,214)"/>
<path d="M0 0 C0 3 0 3 -2.5 5.6875 C-3.325 6.450625 -4.15 7.21375 -5 8 C-5.6875 6.1875 -5.6875 6.1875 -6 4 C-4.15840327 1.51384442 -2.99529289 0.99843096 0 0 Z " fill="#275168" transform="translate(193,133)"/>
<path d="M0 0 C2.89104992 1.29598789 5.03018393 2.49296136 7 5 C8.1875 8.1875 8.1875 8.1875 9 11 C5.36440339 7.56638098 2.63886654 4.2026393 0 0 Z " fill="#5D989E" transform="translate(160,222)"/>
<path d="M0 0 C2.08901197 3.39464446 2.34361606 6.04841529 2 10 C1.34 10.66 0.68 11.32 0 12 C-1.29449495 8.11651516 -1.13203312 5.09302664 -1 1 C-0.67 0.67 -0.34 0.34 0 0 Z " fill="#208182" transform="translate(314,190)"/>
<path d="M0 0 C0.33 0 0.66 0 1 0 C1.04241723 2.33294775 1.04092937 4.66702567 1 7 C0.67 7.33 0.34 7.66 0 8 C-0.36760731 10.32817964 -0.70241581 12.6618385 -1 15 C-1.33 15 -1.66 15 -2 15 C-2.3690205 4.44191344 -2.3690205 4.44191344 0 0 Z " fill="#2B777B" transform="translate(152,178)"/>
<path d="M0 0 C2.31 1.98 4.62 3.96 7 6 C6.01 6.33 5.02 6.66 4 7 C3.34 6.67 2.68 6.34 2 6 C2 5.34 2 4.68 2 4 C0.68 3.67 -0.64 3.34 -2 3 C-1.34 2.67 -0.68 2.34 0 2 C0 1.34 0 0.68 0 0 Z " fill="#436D7A" transform="translate(290,147)"/>
<path d="M0 0 C2.88437779 1.29299694 4.87219421 2.65941363 7 5 C6.67 5.99 6.34 6.98 6 8 C1.3125 4.38671875 1.3125 4.38671875 0 3 C0 2.01 0 1.02 0 0 Z " fill="#345B6D" transform="translate(279,138)"/>
<path d="M0 0 C0.33 1.32 0.66 2.64 1 4 C-1.31 4 -3.62 4 -6 4 C-6 3.01 -6 2.02 -6 1 C-4.02 0.67 -2.04 0.34 0 0 Z " fill="#EDEFF7" transform="translate(279,289)"/>
<path d="M0 0 C1.32 0 2.64 0 4 0 C4.33 1.65 4.66 3.3 5 5 C3.68 5.33 2.36 5.66 1 6 C1 4.68 1 3.36 1 2 C0.34 1.67 -0.32 1.34 -1 1 C-0.67 0.67 -0.34 0.34 0 0 Z " fill="#1C2E4F" transform="translate(244,264)"/>
<path d="M0 0 C0.70125 0.144375 1.4025 0.28875 2.125 0.4375 C5.07556141 1.01478375 8.03270151 1.51695141 11 2 C11 2.33 11 2.66 11 3 C9.54263913 3.19491452 8.08405407 3.38069358 6.625 3.5625 C5.81289062 3.66691406 5.00078125 3.77132813 4.1640625 3.87890625 C2 4 2 4 0 3 C0 2.01 0 1.02 0 0 Z " fill="#D4D9E8" transform="translate(239,258)"/>
<path d="M0 0 C5.75 1.625 5.75 1.625 8 5 C7.67 5.99 7.34 6.98 7 8 C5.83035398 6.8572081 4.66435444 5.71068285 3.5 4.5625 C2.8503125 3.92441406 2.200625 3.28632813 1.53125 2.62890625 C0 1 0 1 0 0 Z " fill="#D2E4EB" transform="translate(280,137)"/>
<path d="M0 0 C0.99 0 1.98 0 3 0 C3.66 1.32 4.32 2.64 5 4 C2.36 4.33 -0.28 4.66 -3 5 C-1.6875 2.5 -1.6875 2.5 0 0 Z " fill="#D9E3EC" transform="translate(232,115)"/>
<path d="M0 0 C1.98 0.66 3.96 1.32 6 2 C6 2.99 6 3.98 6 5 C3.69 5 1.38 5 -1 5 C-0.67 3.35 -0.34 1.7 0 0 Z " fill="#E2E4EB" transform="translate(332,288)"/>
<path d="M0 0 C-0.57344937 2.86724686 -0.8614515 3.8614515 -3 6 C-5.125 5.625 -5.125 5.625 -7 5 C-2.25 0 -2.25 0 0 0 Z " fill="#C7D5DF" transform="translate(300,231)"/>
<path d="M0 0 C1.15957207 3.47871621 0.77456651 4.34219645 -0.4375 7.6875 C-0.72496094 8.49574219 -1.01242187 9.30398437 -1.30859375 10.13671875 C-1.65083984 11.05904297 -1.65083984 11.05904297 -2 12 C-2.33 12 -2.66 12 -3 12 C-3 9.36 -3 6.72 -3 4 C-2.34 4 -1.68 4 -1 4 C-0.67 2.68 -0.34 1.36 0 0 Z " fill="#378A87" transform="translate(316,198)"/>
<path d="M0 0 C1.13732426 3.40401948 0.83989957 5.77456664 0.0625 9.25 C-0.13214844 10.14203125 -0.32679688 11.0340625 -0.52734375 11.953125 C-0.68332031 12.62859375 -0.83929688 13.3040625 -1 14 C-1.33 14 -1.66 14 -2 14 C-2.05410687 12.22950311 -2.09284119 10.45853151 -2.125 8.6875 C-2.14820313 7.70136719 -2.17140625 6.71523437 -2.1953125 5.69921875 C-2 3 -2 3 0 0 Z " fill="#E7FBFC" transform="translate(149,179)"/>
<path d="M0 0 C0.33 0.66 0.66 1.32 1 2 C1.66 2.33 2.32 2.66 3 3 C-0.75 6 -0.75 6 -3 6 C-3 6.66 -3 7.32 -3 8 C-3.66 7.67 -4.32 7.34 -5 7 C-3.35 4.69 -1.7 2.38 0 0 Z " fill="#D3E9EC" transform="translate(192,163)"/>
<path d="M0 0 C0.33 0.66 0.66 1.32 1 2 C-0.24205807 5.72617422 -2.1110675 7.39291457 -5 10 C-5.66 10 -6.32 10 -7 10 C-5.33248852 6.05860922 -2.77289351 3.2107188 0 0 Z " fill="#D6E4EC" transform="translate(228,120)"/>
<path d="M0 0 C3.65316671 1.24976756 4.78065836 1.67098753 7 5 C6.67 5.99 6.34 6.98 6 8 C4.9970458 6.85675161 3.99770973 5.71032809 3 4.5625 C2.443125 3.92441406 1.88625 3.28632812 1.3125 2.62890625 C0 1 0 1 0 0 Z " fill="#304663" transform="translate(234,114)"/>
<path d="M0 0 C0.33 0 0.66 0 1 0 C1.36923077 6.52307692 1.36923077 6.52307692 -0.5 8.9375 C-0.995 9.288125 -1.49 9.63875 -2 10 C-3 8 -3 8 -2.44140625 6.0546875 C-2.15136719 5.33539063 -1.86132812 4.61609375 -1.5625 3.875 C-1.27503906 3.15054688 -0.98757813 2.42609375 -0.69140625 1.6796875 C-0.46324219 1.12539062 -0.23507812 0.57109375 0 0 Z " fill="#BEE3E1" transform="translate(315,205)"/>
<path d="M0 0 C3 3 3 3 3.3125 6.0625 C3 9 3 9 1 11 C0.67 7.37 0.34 3.74 0 0 Z " fill="#C0DFE3" transform="translate(299,196)"/>
<path d="M0 0 C0.66 1.32 1.32 2.64 2 4 C0.6875 5.5 0.6875 5.5 -1 7 C-1.99 7 -2.98 7 -4 7 C-2.79618552 4.50638429 -1.54571278 2.31856917 0 0 Z " fill="#CCE8EA" transform="translate(173,186)"/>
<path d="M0 0 C1.921875 0.359375 1.921875 0.359375 4 1 C5.87679987 4.37823976 6.21849583 7.17632299 6 11 C4.41028035 8.61542052 3.13258407 6.3695876 1.875 3.8125 C1.52179688 3.09707031 1.16859375 2.38164062 0.8046875 1.64453125 C0.53914063 1.10183594 0.27359375 0.55914062 0 0 Z " fill="#DDF3F5" transform="translate(310,167)"/>
<path d="M0 0 C0.66 0 1.32 0 2 0 C2 0.99 2 1.98 2 3 C2.66 3.33 3.32 3.66 4 4 C4.625 6.5625 4.625 6.5625 5 9 C0.125 5.375 0.125 5.375 -1 2 C-0.67 1.34 -0.34 0.68 0 0 Z " fill="#3E727E" transform="translate(274,160)"/>
<path d="M0 0 C0.99 0.33 1.98 0.66 3 1 C-0.5 5.875 -0.5 5.875 -5 7 C-3.35 4.69 -1.7 2.38 0 0 Z " fill="#D8EEF2" transform="translate(198,156)"/>
<path d="M0 0 C0.33 0.66 0.66 1.32 1 2 C0.0625 4.625 0.0625 4.625 -1 7 C-1.66 7 -2.32 7 -3 7 C-3 6.34 -3 5.68 -3 5 C-3.66 4.67 -4.32 4.34 -5 4 C-3.35 2.68 -1.7 1.36 0 0 Z " fill="#415B77" transform="translate(205,120)"/>
<path d="M0 0 C0.33 0.99 0.66 1.98 1 3 C0.01 2.67 -0.98 2.34 -2 2 C-1.34 1.34 -0.68 0.68 0 0 Z M-3 3 C-2.67 3.99 -2.34 4.98 -2 6 C-3.32 6.99 -4.64 7.98 -6 9 C-6.66 8.67 -7.32 8.34 -8 8 C-6.35 6.35 -4.7 4.7 -3 3 Z " fill="#B2B2B2" transform="translate(412,312)"/>
<path d="M0 0 C0.99 0 1.98 0 3 0 C4.42944945 2.35438733 5.08661261 3.48032433 4.625 6.25 C4.41875 6.8275 4.2125 7.405 4 8 C1.84622436 5.37801226 0.59927826 3.35595828 0 0 Z " fill="#E4E8F0" transform="translate(199,285)"/>
<path d="M0 0 C1.65 0 3.3 0 5 0 C4.67 1.32 4.34 2.64 4 4 C2.68 4 1.36 4 0 4 C0 2.68 0 1.36 0 0 Z " fill="#D4D8E2" transform="translate(126,285)"/>
<path d="M0 0 C2.475 0.495 2.475 0.495 5 1 C5 1.99 5 2.98 5 4 C3.35 4 1.7 4 0 4 C0 2.68 0 1.36 0 0 Z " fill="#F1FDFE" transform="translate(218,264)"/>
<path d="M0 0 C1.65 0 3.3 0 5 0 C4.67 1.32 4.34 2.64 4 4 C2.68 4 1.36 4 0 4 C0 2.68 0 1.36 0 0 Z " fill="#29A99D" transform="translate(266,259)"/>
<path d="M0 0 C1 2 1 2 0.25 5 C-1 8 -1 8 -4 10 C-4.41176754 6.39703406 -4.1535853 5.21597933 -2 2.1875 C-1.34 1.465625 -0.68 0.74375 0 0 Z " fill="#32425E" transform="translate(302,204)"/>
<path d="M0 0 C4.875 4.625 4.875 4.625 6 8 C3.5625 7.375 3.5625 7.375 1 6 C0.1875 2.875 0.1875 2.875 0 0 Z " fill="#CFE9EC" transform="translate(275,165)"/>
<path d="M0 0 C1.98 0.66 3.96 1.32 6 2 C6.33 3.65 6.66 5.3 7 7 C5.83040013 6.02433888 4.66438823 5.044375 3.5 4.0625 C2.8503125 3.51722656 2.200625 2.97195312 1.53125 2.41015625 C1.0259375 1.94480469 0.520625 1.47945312 0 1 C0 0.67 0 0.34 0 0 Z " fill="#D6EAF0" transform="translate(294,150)"/>
<path d="M0 0 C0.33 0.99 0.66 1.98 1 3 C-0.4375 5.1875 -0.4375 5.1875 -2 7 C-3.32 6.67 -4.64 6.34 -6 6 C-4 4 -2 2 0 0 Z " fill="#314867" transform="translate(231,113)"/>
<path d="M0 0 C0.66 0.99 1.32 1.98 2 3 C1 4 1 4 -2.0625 4.0625 C-3.031875 4.041875 -4.00125 4.02125 -5 4 C-5.33 3.01 -5.66 2.02 -6 1 C-3.03 1.495 -3.03 1.495 0 2 C0 1.34 0 0.68 0 0 Z " fill="#868891" transform="translate(338,291)"/>
<path d="M0 0 C0.33 0 0.66 0 1 0 C1 1.98 1 3.96 1 6 C-0.98 6.33 -2.96 6.66 -5 7 C-4.19152271 5.83054208 -3.37810888 4.66449539 -2.5625 3.5 C-2.11003906 2.8503125 -1.65757812 2.200625 -1.19140625 1.53125 C-0.79824219 1.0259375 -0.40507812 0.520625 0 0 Z " fill="#D0D3DF" transform="translate(266,288)"/>
<path d="M0 0 C0.33 0.99 0.66 1.98 1 3 C0 4 0 4 -2.50390625 4.09765625 C-4.01791016 4.08025391 -4.01791016 4.08025391 -5.5625 4.0625 C-6.57441406 4.05347656 -7.58632813 4.04445313 -8.62890625 4.03515625 C-9.41136719 4.02355469 -10.19382812 4.01195312 -11 4 C-11 3.67 -11 3.34 -11 3 C-10.28972656 2.86722656 -9.57945312 2.73445313 -8.84765625 2.59765625 C-7.92855469 2.42105469 -7.00945312 2.24445313 -6.0625 2.0625 C-4.68771484 1.80146484 -4.68771484 1.80146484 -3.28515625 1.53515625 C-1.04710156 1.22285012 -1.04710156 1.22285012 0 0 Z " fill="#B0EAE6" transform="translate(311,270)"/>
<path d="M0 0 C0 3.3 0 6.6 0 10 C-0.99 9.67 -1.98 9.34 -3 9 C-2.814375 8.05125 -2.62875 7.1025 -2.4375 6.125 C-1.71313368 3.10131207 -1.71313368 3.10131207 -3 1 C-1 0 -1 0 0 0 Z " fill="#EAFFFC" transform="translate(273,263)"/>
<path d="M0 0 C2.64752004 2.57784846 4.94432065 4.91648098 7 8 C4.625 7.375 4.625 7.375 2 6 C0.6875 2.875 0.6875 2.875 0 0 Z " fill="#D7F4F5" transform="translate(160,223)"/>
<path d="M0 0 C0.33 0.66 0.66 1.32 1 2 C-0.98 4.97 -0.98 4.97 -3 8 C-3.99 7.67 -4.98 7.34 -6 7 C-4.02 4.69 -2.04 2.38 0 0 Z " fill="#C5E2E5" transform="translate(180,178)"/>
<path d="M0 0 C0.33 1.32 0.66 2.64 1 4 C-0.32 4.99 -1.64 5.98 -3 7 C-3.66 6.67 -4.32 6.34 -5 6 C-3.35 4.02 -1.7 2.04 0 0 Z " fill="#D6ECEF" transform="translate(186,171)"/>
<path d="M0 0 C0.66 0 1.32 0 2 0 C0.66666667 3.33333333 -0.66666667 6.66666667 -2 10 C-2.98120464 6.94736336 -2.98120464 5.05263664 -2 2 C-1.34 2 -0.68 2 0 2 C0 1.34 0 0.68 0 0 Z " fill="#D9F0F5" transform="translate(153,169)"/>
<path d="M0 0 C1.65 0 3.3 0 5 0 C5.33 1.98 5.66 3.96 6 6 C3.97945196 4.35830472 1.97956942 2.69088222 0 1 C0 0.67 0 0.34 0 0 Z " fill="#DDEAF0" transform="translate(264,122)"/>
<path d="M0 0 C0.8125 1.6875 0.8125 1.6875 1 4 C-1.4375 6.75 -1.4375 6.75 -4 9 C-2.94124926 5.59687262 -1.99097846 2.98646769 0 0 Z " fill="#4E5874" transform="translate(181,255)"/>
<path d="M0 0 C3 3.75 3 3.75 3 6 C3.66 6.33 4.32 6.66 5 7 C4.01 7 3.02 7 2 7 C-0.1875 4 -0.1875 4 -2 1 C-1.34 0.67 -0.68 0.34 0 0 Z " fill="#366677" transform="translate(267,151)"/>
<path d="M0 0 C0.33 1.32 0.66 2.64 1 4 C0.01 4.66 -0.98 5.32 -2 6 C-2.99 5.34 -3.98 4.68 -5 4 C-4.34 4 -3.68 4 -3 4 C-3 3.34 -3 2.68 -3 2 C-2.01 1.34 -1.02 0.68 0 0 Z " fill="#284E64" transform="translate(217,129)"/>
<path d="M0 0 C0.99 0.33 1.98 0.66 3 1 C1.35 2.65 -0.3 4.3 -2 6 C-2.66 5.34 -3.32 4.68 -4 4 C-2.68 2.68 -1.36 1.36 0 0 Z " fill="#E5F1F7" transform="translate(200,121)"/>
</svg>
