<?xml version="1.0" encoding="UTF-8"?>
<svg version="1.1" xmlns="http://www.w3.org/2000/svg" width="438" height="492">
<path d="M0 0 C144.54 0 289.08 0 438 0 C438 162.36 438 324.72 438 492 C293.46 492 148.92 492 0 492 C0 329.64 0 167.28 0 0 Z " fill="#F9F8FD" transform="translate(0,0)"/>
<path d="M0 0 C1.30582031 -0.00257812 2.61164063 -0.00515625 3.95703125 -0.0078125 C4.97095947 -0.00152832 4.97095947 -0.00152832 6.00537109 0.00488281 C8.05726947 0.01555715 10.10828545 0.00498401 12.16015625 -0.0078125 C13.46855469 -0.00523438 14.77695313 -0.00265625 16.125 0 C17.90753174 0.00338379 17.90753174 0.00338379 19.72607422 0.00683594 C23.52173175 0.28997436 26.58413909 1.10437588 30.1953125 2.265625 C30.1953125 2.925625 30.1953125 3.585625 30.1953125 4.265625 C31.4946875 4.348125 32.7940625 4.430625 34.1328125 4.515625 C48.7522393 6.18576296 61.27410369 17.24530823 70.1953125 28.265625 C70.8553125 28.595625 71.5153125 28.925625 72.1953125 29.265625 C75.1953125 33.765625 75.1953125 33.765625 75.1953125 36.265625 C79.5409652 33.95749445 82.70830553 30.91477972 86.0703125 27.390625 C92.52263631 20.79123125 98.30827189 16.22797187 107.1953125 13.265625 C107.1953125 12.605625 107.1953125 11.945625 107.1953125 11.265625 C108.9205395 10.58882842 110.65070189 9.924605 112.3828125 9.265625 C113.34574219 8.894375 114.30867187 8.523125 115.30078125 8.140625 C118.11713608 7.28925728 120.27695689 7.09489853 123.1953125 7.265625 C123.5253125 5.945625 123.8553125 4.625625 124.1953125 3.265625 C134.71777596 0.91818969 144.75083184 -0.2179083 155.53198242 -0.12548828 C157.7608733 -0.10935284 159.98795889 -0.12547927 162.21679688 -0.14453125 C171.89383613 -0.15650334 180.77820309 0.99600599 190.1953125 3.265625 C190.1953125 3.925625 190.1953125 4.585625 190.1953125 5.265625 C190.87980469 5.37777344 191.56429688 5.48992188 192.26953125 5.60546875 C195.67269555 6.37333893 198.76274348 7.54976448 202.0078125 8.828125 C203.16925781 9.28316406 204.33070313 9.73820312 205.52734375 10.20703125 C206.84798828 10.73103516 206.84798828 10.73103516 208.1953125 11.265625 C208.1953125 11.925625 208.1953125 12.585625 208.1953125 13.265625 C209.1440625 13.575 210.0928125 13.884375 211.0703125 14.203125 C214.1953125 15.265625 214.1953125 15.265625 216.1953125 16.265625 C216.1953125 16.925625 216.1953125 17.585625 216.1953125 18.265625 C216.7521875 18.36875 217.3090625 18.471875 217.8828125 18.578125 C223.58224077 20.27254962 226.63840126 23.72517128 230.359375 28.13671875 C233.61680371 31.91394991 237.16761788 35.46581349 240.8984375 38.77734375 C242.1953125 40.265625 242.1953125 40.265625 242.1953125 43.265625 C242.8553125 43.265625 243.5153125 43.265625 244.1953125 43.265625 C245.01098424 44.70132766 245.82273343 46.13925934 246.6328125 47.578125 C247.08527344 48.37863281 247.53773438 49.17914063 248.00390625 50.00390625 C249.1953125 52.265625 249.1953125 52.265625 250.1953125 55.265625 C250.8553125 55.265625 251.5153125 55.265625 252.1953125 55.265625 C252.46085937 56.00167969 252.72640625 56.73773438 253 57.49609375 C253.52980469 58.95982422 253.52980469 58.95982422 254.0703125 60.453125 C254.41835938 61.41605469 254.76640625 62.37898438 255.125 63.37109375 C255.81750284 65.24388428 256.54968387 67.10267463 257.328125 68.94140625 C258.1953125 71.265625 258.1953125 71.265625 258.1953125 74.265625 C258.8553125 74.265625 259.5153125 74.265625 260.1953125 74.265625 C262.53915297 84.15261375 263.70436483 93.46848293 263.64135742 103.61743164 C263.6328264 105.69973306 263.66180227 107.77929299 263.69335938 109.86132812 C263.76101166 122.83703574 260.67730621 134.53986541 256.4453125 146.765625 C256.01734375 148.0134375 255.589375 149.26125 255.1484375 150.546875 C254.83390625 151.4440625 254.519375 152.34125 254.1953125 153.265625 C253.5353125 153.265625 252.8753125 153.265625 252.1953125 153.265625 C252.04835938 153.83410156 251.90140625 154.40257812 251.75 154.98828125 C250.2960742 159.9934626 248.63401361 163.38903535 245.07421875 167.171875 C242.08086984 170.50749874 239.46203135 174.13363852 236.79858398 177.73535156 C234.53373595 180.7396414 232.42815082 183.29539736 229.1953125 185.265625 C228.5353125 185.265625 227.8753125 185.265625 227.1953125 185.265625 C227.1953125 185.925625 227.1953125 186.585625 227.1953125 187.265625 C224.3828125 189.453125 224.3828125 189.453125 221.1953125 191.265625 C220.2053125 190.935625 219.2153125 190.605625 218.1953125 190.265625 C218.1128125 189.481875 218.0303125 188.698125 217.9453125 187.890625 C217.49050761 185.17367683 217.49050761 185.17367683 215.4453125 184.203125 C214.7028125 183.89375 213.9603125 183.584375 213.1953125 183.265625 C210.4453125 181.265625 210.4453125 181.265625 208.1953125 179.265625 C208.1953125 178.605625 208.1953125 177.945625 208.1953125 177.265625 C206.2153125 176.935625 204.2353125 176.605625 202.1953125 176.265625 C202.1953125 175.605625 202.1953125 174.945625 202.1953125 174.265625 C200.8959375 174.12125 199.5965625 173.976875 198.2578125 173.828125 C194.3203125 173.390625 194.3203125 173.390625 193.1953125 172.265625 C191.23243484 172.14199203 189.26516092 172.0876706 187.29858398 172.06030273 C186.03735214 172.04035751 184.7761203 172.02041229 183.47666931 171.99986267 C182.08991623 171.98287705 180.70316184 171.96599829 179.31640625 171.94921875 C177.9053536 171.92865574 176.49430721 171.90765945 175.08326721 171.88624573 C171.3629766 171.83095745 167.64262977 171.78157814 163.92224121 171.73339844 C160.12844825 171.68323258 156.33473727 171.62752092 152.54101562 171.57226562 C145.09251727 171.46460149 137.64395091 171.36317503 130.1953125 171.265625 C130.18944626 170.52583908 130.18358002 169.78605316 130.17753601 169.02384949 C130.11931811 162.00746532 130.04707855 154.99139242 129.95959759 147.97532177 C129.91511742 144.36939472 129.87581427 140.76357486 129.84887695 137.1574707 C129.82261803 133.66887981 129.78206237 130.1807065 129.73212624 126.69237709 C129.70764158 124.73244885 129.69747165 122.77235829 129.68766785 120.81230164 C129.46857655 107.30393849 126.63588002 97.69704906 117.7578125 87.453125 C114.73191116 84.87003849 111.70812641 83.12535001 108.1953125 81.265625 C108.1953125 80.605625 108.1953125 79.945625 108.1953125 79.265625 C107.55722656 79.20503906 106.91914063 79.14445312 106.26171875 79.08203125 C105.02228516 78.95634766 105.02228516 78.95634766 103.7578125 78.828125 C102.52224609 78.70630859 102.52224609 78.70630859 101.26171875 78.58203125 C99.1953125 78.265625 99.1953125 78.265625 98.1953125 77.265625 C95.03769365 76.98399953 91.86397148 77.03368004 88.6953125 77.015625 C87.82132813 76.995 86.94734375 76.974375 86.046875 76.953125 C80.58572629 76.92071462 76.18251917 77.62451262 71.08789062 79.61816406 C69.1953125 80.265625 69.1953125 80.265625 66.1953125 80.265625 C66.1953125 80.925625 66.1953125 81.585625 66.1953125 82.265625 C64.69140625 83.67578125 64.69140625 83.67578125 62.6328125 85.328125 C55.18443841 91.71811556 50.66547326 97.38217339 49.1953125 107.265625 C48.87485522 112.22295379 48.82291208 117.17853955 48.78125 122.14453125 C48.7625054 123.56657493 48.74292963 124.98860787 48.7225647 126.41062927 C48.67158462 130.12421288 48.63177814 133.83783241 48.59442139 137.55157471 C48.55416572 141.35283037 48.50317262 145.15394101 48.453125 148.95507812 C48.35677072 156.39182702 48.27223866 163.82864704 48.1953125 171.265625 C49.34008057 171.25515137 50.48484863 171.24467773 51.66430664 171.23388672 C55.93396852 171.19753517 60.20361686 171.17466957 64.47338867 171.15576172 C66.31716212 171.14573858 68.16091981 171.13211648 70.00463867 171.11474609 C72.6632884 171.09033505 75.32172693 171.07910483 77.98046875 171.0703125 C78.79741714 171.05998993 79.61436554 171.04966736 80.45606995 171.03903198 C87.49097228 171.03767003 93.11820478 172.71338895 99.6328125 175.390625 C100.49777344 175.74382812 101.36273438 176.09703125 102.25390625 176.4609375 C102.89457031 176.72648438 103.53523437 176.99203125 104.1953125 177.265625 C104.1953125 177.925625 104.1953125 178.585625 104.1953125 179.265625 C104.76378906 179.35457031 105.33226562 179.44351563 105.91796875 179.53515625 C113.35425881 181.92038136 120.22657968 190.51026715 123.7578125 197.24609375 C128.35787884 206.85536694 130.50542563 214.86795006 130.42236328 225.4453125 C130.42265533 226.43159134 130.42294739 227.41787018 130.42324829 228.43403625 C130.42186331 231.66965768 130.40634133 234.90504417 130.390625 238.140625 C130.38689192 240.39363479 130.38404634 242.64664621 130.38204956 244.8996582 C130.37443639 250.81138643 130.35480782 256.7230154 130.3326416 262.63470459 C130.31213321 268.67442482 130.30303718 274.71416119 130.29296875 280.75390625 C130.27155972 292.59118929 130.2374518 304.42839887 130.1953125 316.265625 C129.5353125 316.265625 128.8753125 316.265625 128.1953125 316.265625 C128.19273437 316.83410156 128.19015625 317.40257812 128.1875 317.98828125 C127.89913846 323.74590001 126.6602291 326.68755896 122.5703125 330.7578125 C120.94773067 332.33240928 120.94773067 332.33240928 120.1953125 335.265625 C114.6789995 340.50717911 108.15862608 346.265625 100.1953125 346.265625 C100.1953125 346.925625 100.1953125 347.585625 100.1953125 348.265625 C90.95877078 349.2222096 81.78775737 349.40329938 72.51269531 349.37915039 C70.97399904 349.37886766 69.43530264 349.37902792 67.89660645 349.3795929 C63.75694114 349.37987753 59.61730533 349.37403522 55.47764683 349.36701894 C51.13750423 349.36072938 46.79736081 349.3601772 42.45721436 349.35899353 C34.2552695 349.35589664 26.05333813 349.34770556 17.85139918 349.33764404 C8.50668145 349.32643169 -0.83803696 349.32095959 -10.18275976 349.31594861 C-29.39007662 349.30552143 -48.59738097 349.28795404 -67.8046875 349.265625 C-67.87340567 313.28997827 -67.9262427 277.31434308 -67.95788349 241.33864419 C-67.96163545 237.08806737 -67.96551844 232.83749069 -67.96948242 228.58691406 C-67.97026935 227.74072719 -67.97105628 226.89454032 -67.97186706 226.02271143 C-67.98490874 212.33469504 -68.00855575 198.64671659 -68.03614589 184.95872268 C-68.06423456 170.90583289 -68.08087107 156.85296292 -68.08695298 142.80004621 C-68.09106225 134.13382319 -68.10402493 125.4677074 -68.1284369 116.8015174 C-68.14433686 110.85280672 -68.14907825 104.90415119 -68.14519163 98.95542082 C-68.14327669 95.52710963 -68.14614063 92.09898537 -68.16230392 88.6707077 C-68.17729585 84.94379681 -68.17361624 81.21733953 -68.16545105 77.49041748 C-68.17418957 76.42034226 -68.1829281 75.35026704 -68.19193143 74.2477653 C-68.13047276 63.82302341 -65.92543684 54.68965271 -60.98828125 45.50390625 C-59.65642392 43.08334758 -59.65642392 43.08334758 -58.3671875 39.640625 C-53.58150905 29.30355954 -44.48367746 19.19153722 -34.8046875 13.265625 C-34.1446875 13.265625 -33.4846875 13.265625 -32.8046875 13.265625 C-32.8046875 12.605625 -32.8046875 11.945625 -32.8046875 11.265625 C-26.6111955 8.02740329 -20.54806655 4.92259443 -13.83984375 2.90625 C-11.74114207 2.29399827 -11.74114207 2.29399827 -9.6027832 1.2421875 C-6.26245866 0.07638188 -3.53589089 0.00672497 0 0 Z " fill="#2F3C69" transform="translate(121.8046875,8.734375)"/>
<path d="M0 0 C2.22889087 0.01613544 4.45597647 0.00000902 6.68481445 -0.01904297 C16.36185371 -0.03101506 25.24622067 1.12149427 34.66333008 3.39111328 C34.66333008 4.05111328 34.66333008 4.71111328 34.66333008 5.39111328 C35.69006836 5.55933594 35.69006836 5.55933594 36.73754883 5.73095703 C40.14071313 6.49882721 43.23076106 7.67525276 46.47583008 8.95361328 C47.63727539 9.40865234 48.7987207 9.86369141 49.99536133 10.33251953 C51.31600586 10.85652344 51.31600586 10.85652344 52.66333008 11.39111328 C52.66333008 12.05111328 52.66333008 12.71111328 52.66333008 13.39111328 C53.61208008 13.70048828 54.56083008 14.00986328 55.53833008 14.32861328 C58.66333008 15.39111328 58.66333008 15.39111328 60.66333008 16.39111328 C60.66333008 17.05111328 60.66333008 17.71111328 60.66333008 18.39111328 C61.49864258 18.54580078 61.49864258 18.54580078 62.35083008 18.70361328 C68.05025834 20.3980379 71.10641884 23.85065956 74.82739258 28.26220703 C78.08482129 32.03943819 81.63563546 35.59130177 85.36645508 38.90283203 C86.66333008 40.39111328 86.66333008 40.39111328 86.66333008 43.39111328 C87.32333008 43.39111328 87.98333008 43.39111328 88.66333008 43.39111328 C89.47900182 44.82681594 90.290751 46.26474762 91.10083008 47.70361328 C91.55329102 48.50412109 92.00575195 49.30462891 92.47192383 50.12939453 C93.66333008 52.39111328 93.66333008 52.39111328 94.66333008 55.39111328 C95.32333008 55.39111328 95.98333008 55.39111328 96.66333008 55.39111328 C96.92887695 56.12716797 97.19442383 56.86322266 97.46801758 57.62158203 C97.99782227 59.0853125 97.99782227 59.0853125 98.53833008 60.57861328 C99.06040039 62.02300781 99.06040039 62.02300781 99.59301758 63.49658203 C100.28552042 65.36937256 101.01770145 67.22816291 101.79614258 69.06689453 C102.66333008 71.39111328 102.66333008 71.39111328 102.66333008 74.39111328 C103.32333008 74.39111328 103.98333008 74.39111328 104.66333008 74.39111328 C107.00717054 84.27810203 108.17238241 93.59397122 108.109375 103.74291992 C108.10084397 105.82522134 108.12981985 107.90478128 108.16137695 109.98681641 C108.22902923 122.96252402 105.14532378 134.66535369 100.91333008 146.89111328 C100.48536133 148.13892578 100.05739258 149.38673828 99.61645508 150.67236328 C99.30192383 151.56955078 98.98739258 152.46673828 98.66333008 153.39111328 C98.00333008 153.39111328 97.34333008 153.39111328 96.66333008 153.39111328 C96.51637695 153.95958984 96.36942383 154.52806641 96.21801758 155.11376953 C94.76409178 160.11895089 93.10203119 163.51452363 89.54223633 167.29736328 C86.54888742 170.63298702 83.93004893 174.2591268 81.26660156 177.86083984 C79.00175352 180.86512968 76.8961684 183.42088564 73.66333008 185.39111328 C73.00333008 185.39111328 72.34333008 185.39111328 71.66333008 185.39111328 C71.66333008 186.05111328 71.66333008 186.71111328 71.66333008 187.39111328 C68.85083008 189.57861328 68.85083008 189.57861328 65.66333008 191.39111328 C64.67333008 191.06111328 63.68333008 190.73111328 62.66333008 190.39111328 C62.58083008 189.60736328 62.49833008 188.82361328 62.41333008 188.01611328 C61.95852519 185.29916512 61.95852519 185.29916512 59.91333008 184.32861328 C59.17083008 184.01923828 58.42833008 183.70986328 57.66333008 183.39111328 C54.91333008 181.39111328 54.91333008 181.39111328 52.66333008 179.39111328 C52.66333008 178.73111328 52.66333008 178.07111328 52.66333008 177.39111328 C50.68333008 177.06111328 48.70333008 176.73111328 46.66333008 176.39111328 C46.66333008 175.73111328 46.66333008 175.07111328 46.66333008 174.39111328 C45.36395508 174.24673828 44.06458008 174.10236328 42.72583008 173.95361328 C38.78833008 173.51611328 38.78833008 173.51611328 37.66333008 172.39111328 C35.70045242 172.26748031 33.73317849 172.21315889 31.76660156 172.18579102 C30.50536972 172.16584579 29.24413788 172.14590057 27.94468689 172.12535095 C26.55793381 172.10836533 25.17117942 172.09148657 23.78442383 172.07470703 C22.37337118 172.05414403 20.96232478 172.03314773 19.55128479 172.01173401 C15.83099417 171.95644573 12.11064735 171.90706642 8.39025879 171.85888672 C4.59646583 171.80872086 0.80275485 171.7530092 -2.9909668 171.69775391 C-10.43946516 171.59008977 -17.88803151 171.48866331 -25.33666992 171.39111328 C-25.34253616 170.65132736 -25.3484024 169.91154144 -25.35444641 169.14933777 C-25.41266432 162.1329536 -25.48490387 155.1168807 -25.57238483 148.10081005 C-25.616865 144.494883 -25.65616816 140.88906314 -25.68310547 137.28295898 C-25.70936439 133.7943681 -25.74992006 130.30619478 -25.79985619 126.81786537 C-25.82434084 124.85793713 -25.83451078 122.89784657 -25.84431458 120.93778992 C-26.06340587 107.42942677 -28.89610241 97.82253734 -37.77416992 87.57861328 C-40.80007126 84.99552677 -43.82385601 83.25083829 -47.33666992 81.39111328 C-47.33666992 80.73111328 -47.33666992 80.07111328 -47.33666992 79.39111328 C-47.97475586 79.33052734 -48.6128418 79.26994141 -49.27026367 79.20751953 C-50.09655273 79.12373047 -50.9228418 79.03994141 -51.77416992 78.95361328 C-53.00973633 78.83179687 -53.00973633 78.83179687 -54.27026367 78.70751953 C-56.33666992 78.39111328 -56.33666992 78.39111328 -57.33666992 77.39111328 C-59.18558939 77.15747447 -61.04155024 76.97807693 -62.89916992 76.82861328 C-64.41704102 76.70292969 -64.41704102 76.70292969 -65.96557617 76.57470703 C-66.74803711 76.51412109 -67.53049805 76.45353516 -68.33666992 76.39111328 C-68.27479492 74.90611328 -68.27479492 74.90611328 -68.21166992 73.39111328 C-68.19722551 69.81612073 -68.94272586 66.75180555 -69.89135742 63.32470703 C-70.50508452 60.65983935 -70.47264592 58.11063316 -70.33666992 55.39111328 C-70.99666992 55.39111328 -71.65666992 55.39111328 -72.33666992 55.39111328 C-72.6022168 54.58287109 -72.86776367 53.77462891 -73.14135742 52.94189453 C-73.49456055 51.87326172 -73.84776367 50.80462891 -74.21166992 49.70361328 C-74.5597168 48.64787109 -74.90776367 47.59212891 -75.26635742 46.50439453 C-76.20998358 43.75961334 -77.23158281 41.07418513 -78.33666992 38.39111328 C-78.99666992 38.39111328 -79.65666992 38.39111328 -80.33666992 38.39111328 C-80.33666992 37.73111328 -80.33666992 37.07111328 -80.33666992 36.39111328 C-79.6328418 35.97603516 -78.92901367 35.56095703 -78.20385742 35.13330078 C-74.76851522 33.04588576 -72.21250957 30.39962441 -69.46166992 27.51611328 C-63.00934612 20.91671953 -57.22371053 16.35346015 -48.33666992 13.39111328 C-48.33666992 12.73111328 -48.33666992 12.07111328 -48.33666992 11.39111328 C-46.61144292 10.7143167 -44.88128053 10.05009328 -43.14916992 9.39111328 C-41.70477539 8.83423828 -41.70477539 8.83423828 -40.23120117 8.26611328 C-37.41484634 7.41474556 -35.25502553 7.22038681 -32.33666992 7.39111328 C-32.00666992 6.07111328 -31.67666992 4.75111328 -31.33666992 3.39111328 C-20.81420646 1.04367797 -10.78115058 -0.09242002 0 0 Z " fill="#3F8299" transform="translate(277.336669921875,8.60888671875)"/>
<path d="M0 0 C0.66 0 1.32 0 2 0 C1.67 21.78 1.34 43.56 1 66 C13.51974142 65.92107166 13.51974142 65.92107166 26.03930664 65.81982422 C27.62125375 65.81397715 29.20320389 65.8088821 30.78515625 65.8046875 C31.99455872 65.7893396 31.99455872 65.7893396 33.22839355 65.77368164 C40.27726942 65.77152767 45.90933198 67.44219122 52.4375 70.125 C53.30246094 70.47820312 54.16742188 70.83140625 55.05859375 71.1953125 C55.69925781 71.46085937 56.33992187 71.72640625 57 72 C57 72.66 57 73.32 57 74 C57.85271484 74.13341797 57.85271484 74.13341797 58.72265625 74.26953125 C66.15894631 76.65475636 73.03126718 85.24464215 76.5625 91.98046875 C81.16256634 101.58974194 83.31011313 109.60232506 83.22705078 120.1796875 C83.22734283 121.16596634 83.22763489 122.15224518 83.22793579 123.16841125 C83.22655081 126.40403268 83.21102883 129.63941917 83.1953125 132.875 C83.19157942 135.12800979 83.18873384 137.38102121 83.18673706 139.6340332 C83.17912389 145.54576143 83.15949532 151.4573904 83.1373291 157.36907959 C83.11682071 163.40879982 83.10772468 169.44853619 83.09765625 175.48828125 C83.07624722 187.32556429 83.0421393 199.16277387 83 211 C82.34 211 81.68 211 81 211 C80.99742187 211.56847656 80.99484375 212.13695312 80.9921875 212.72265625 C80.70382596 218.48027501 79.4649166 221.42193396 75.375 225.4921875 C73.75241817 227.06678428 73.75241817 227.06678428 73 230 C67.483687 235.24155411 60.96331358 241 53 241 C53 241.66 53 242.32 53 243 C43.76345828 243.9565846 34.59244487 244.13767438 25.31738281 244.11352539 C23.77868654 244.11324266 22.23999014 244.11340292 20.70129395 244.1139679 C16.56162864 244.11425253 12.42199283 244.10841022 8.28233433 244.10139394 C3.94219173 244.09510438 -0.39795169 244.0945522 -4.73809814 244.09336853 C-12.940043 244.09027164 -21.14197437 244.08208056 -29.34391332 244.07201904 C-38.68863105 244.06080669 -48.03334946 244.05533459 -57.37807226 244.05032361 C-76.58538912 244.03989643 -95.79269347 244.02232904 -115 244 C-115 243.67 -115 243.34 -115 243 C-67.81 243 -20.62 243 28 243 C28 242.34 28 241.68 28 241 C27.28457031 240.89558594 26.56914062 240.79117188 25.83203125 240.68359375 C22.68836323 239.92477733 20.44784227 238.73506294 17.6875 237.0625 C16.80449219 236.53785156 15.92148438 236.01320313 15.01171875 235.47265625 C14.34785156 234.98667969 13.68398437 234.50070312 13 234 C13 233.34 13 232.68 13 232 C12.34 232 11.68 232 11 232 C7 226.58823529 7 226.58823529 7 224 C6.34 224 5.68 224 5 224 C0.2431093 214.05377398 -0.3104843 204.24921515 -0.4140625 193.3359375 C-0.43342865 192.06271637 -0.4527948 190.78949524 -0.4727478 189.47769165 C-0.522071 186.12739362 -0.56347454 182.77719596 -0.60089111 179.42675781 C-0.64122672 175.9940446 -0.69218257 172.56148981 -0.7421875 169.12890625 C-0.83780698 162.41937353 -0.92297102 155.70977054 -1 149 C-1.69776047 148.99413376 -2.39552094 148.98826752 -3.11442566 148.98222351 C-9.74756642 148.92389115 -16.38039859 148.85158998 -23.0132246 148.76428509 C-26.4217961 148.71989384 -29.83025661 148.68057308 -33.23901367 148.65356445 C-37.17391329 148.62215016 -41.10833488 148.5673789 -45.04296875 148.51171875 C-46.24455124 148.50532883 -47.44613373 148.4989389 -48.68412781 148.49235535 C-60.00337436 148.29924142 -70.80652682 147.01161203 -80 140 C-81.010625 139.319375 -82.02125 138.63875 -83.0625 137.9375 C-88.55026058 133.17340015 -93.03678519 125.4685858 -93.9375 118.25 C-93.958125 117.1775 -93.97875 116.105 -94 115 C-94.66 115 -95.32 115 -96 115 C-96.46811006 102.15297935 -95.69524002 91.76825666 -88 81 C-87.34 80.01 -86.68 79.02 -86 78 C-85.34 78 -84.68 78 -84 78 C-83.505 76.515 -83.505 76.515 -83 75 C-80.9375 74.3125 -80.9375 74.3125 -79 74 C-79 73.34 -79 72.68 -79 72 C-72.375 69 -72.375 69 -69 69 C-69 68.34 -69 67.68 -69 67 C-65.48202372 64.83069546 -62.66881375 64.75709762 -58.57910156 64.77294922 C-57.25990723 64.77319092 -55.94071289 64.77343262 -54.58154297 64.77368164 C-53.18456838 64.78375179 -51.78759565 64.79408489 -50.390625 64.8046875 C-49.11687012 64.80670166 -47.84311523 64.80871582 -46.53076172 64.81079102 C-41.77047121 64.82125879 -37.010232 64.84918133 -32.25 64.875 C-21.6075 64.91625 -10.965 64.9575 0 65 C0 43.55 0 22.1 0 0 Z " fill="#5B9BB5" transform="translate(169,114)"/>
<path d="M0 0 C1.28342285 -0.00193359 1.28342285 -0.00193359 2.59277344 -0.00390625 C7.32267347 0.07761181 11.17789838 0.60161592 15.625 2.375 C16.95411682 2.72476758 18.28582739 3.06596017 19.625 3.375 C19.625 4.035 19.625 4.695 19.625 5.375 C20.20507812 5.48972656 20.78515625 5.60445313 21.3828125 5.72265625 C28.55070455 7.80808826 32.89060503 13.50531393 36.375 19.7734375 C38.18535809 23.54124527 39.48407352 27.36123706 40.625 31.375 C41.12 32.86 41.12 32.86 41.625 34.375 C41.71388831 36.35342761 41.74260873 38.33476634 41.73852539 40.31518555 C41.73841209 42.14674446 41.73841209 42.14674446 41.73829651 44.01530457 C41.73313522 45.33412125 41.72797394 46.65293793 41.72265625 48.01171875 C41.7207908 49.37506559 41.7193675 50.73841311 41.71836853 52.10176086 C41.71455332 55.68728491 41.70473155 59.27276835 41.69366455 62.85827637 C41.68342901 66.5181422 41.67886632 70.1780146 41.67382812 73.83789062 C41.66310838 81.01694558 41.64604393 88.1959671 41.625 95.375 C42.39428329 95.36833817 43.16356659 95.36167633 43.9561615 95.35481262 C51.23783021 95.29447704 58.51937617 95.2489123 65.80123043 95.21956348 C69.54410991 95.20396726 73.28678127 95.18284102 77.02954102 95.14868164 C80.64759402 95.11587046 84.26544797 95.09810164 87.88363838 95.09036827 C89.25781954 95.08486349 90.63199091 95.07411487 92.00608635 95.05780983 C99.8830676 94.96813505 106.30907961 95.35024894 113.625 98.375 C113.625 99.035 113.625 99.695 113.625 100.375 C116.595 100.87 116.595 100.87 119.625 101.375 C119.625 102.035 119.625 102.695 119.625 103.375 C120.181875 103.6225 120.73875 103.87 121.3125 104.125 C126.10777451 106.71704027 129.00439297 109.07119518 130.625 114.375 C134.17018884 112.97740095 134.17018884 112.97740095 137.625 111.375 C137.375 113.25 137.375 113.25 136.625 115.375 C134.5625 116.625 134.5625 116.625 132.625 117.375 C133.615 118.86 133.615 118.86 134.625 120.375 C134.625 121.365 134.625 122.355 134.625 123.375 C135.285 123.375 135.945 123.375 136.625 123.375 C137.69218778 127.71150906 137.77456928 131.93615005 137.75 136.375 C137.75386719 137.07367188 137.75773438 137.77234375 137.76171875 138.4921875 C137.75463657 142.24574298 137.52287023 145.72651145 136.625 149.375 C135.965 149.375 135.305 149.375 134.625 149.375 C134.563125 150.385625 134.50125 151.39625 134.4375 152.4375 C133.46213703 159.22382826 128.88523821 163.39427919 123.625 167.375 C122.965 168.365 122.305 169.355 121.625 170.375 C120.305 170.375 118.985 170.375 117.625 170.375 C117.625 171.035 117.625 171.695 117.625 172.375 C116.965 172.375 116.305 172.375 115.625 172.375 C115.625 173.035 115.625 173.695 115.625 174.375 C106.59214071 177.14424214 98.30234566 177.78056754 88.890625 177.66796875 C87.51772532 177.66235647 86.14481952 177.65809412 84.77191162 177.65510559 C81.20115855 177.64378489 77.63078593 177.6144323 74.06018066 177.58099365 C70.39954776 177.55001293 66.7388519 177.53654115 63.078125 177.52148438 C55.92693001 177.48954666 48.77599016 177.43851038 41.625 177.375 C41.61041748 176.27099854 41.59583496 175.16699707 41.58081055 174.02954102 C41.52243343 169.89739075 41.44520607 165.76576316 41.36254883 161.6340332 C41.32948362 159.85254457 41.30139558 158.07095582 41.27856445 156.28930664 C41.24467693 153.71457614 41.19234857 151.1407482 41.13671875 148.56640625 C41.13032883 147.78165421 41.1239389 146.99690216 41.11735535 146.18836975 C40.96842708 140.46942568 39.65633701 135.70202597 37.625 130.375 C37.07779297 128.7971875 37.07779297 128.7971875 36.51953125 127.1875 C32.79301256 117.50124204 26.91438546 110.543845 18.625 104.375 C17.635 104.045 16.645 103.715 15.625 103.375 C15.625 102.715 15.625 102.055 15.625 101.375 C14.48160156 101.09785156 13.33820313 100.82070312 12.16015625 100.53515625 C10.66922535 100.16945622 9.17834239 99.80356071 7.6875 99.4375 C6.93275391 99.25509766 6.17800781 99.07269531 5.40039062 98.88476562 C-0.26171875 97.48828125 -0.26171875 97.48828125 -1.375 96.375 C-4.25752645 96.21476438 -7.11878527 96.11545971 -10.00390625 96.05859375 C-11.30025246 96.0274221 -11.30025246 96.0274221 -12.62278748 95.99562073 C-15.39427445 95.93002886 -18.16585921 95.87119582 -20.9375 95.8125 C-22.81185923 95.76932392 -24.68620843 95.72570994 -26.56054688 95.68164062 C-31.16526336 95.57433773 -35.77007858 95.47309785 -40.375 95.375 C-40.42151976 87.18588732 -40.45696836 78.99683067 -40.47862434 70.80761814 C-40.4890227 67.00426601 -40.50310896 63.20100486 -40.52587891 59.39770508 C-40.54774917 55.72130894 -40.55959825 52.04499984 -40.56475449 48.36854362 C-40.56842496 46.97205169 -40.57559186 45.57556404 -40.58646011 44.17910957 C-40.73470837 24.32540946 -40.73470837 24.32540946 -35.1875 17.75 C-34.57132813 17.01652344 -33.95515625 16.28304687 -33.3203125 15.52734375 C-26.98123529 8.51362579 -26.98123529 8.51362579 -24.375 6.375 C-23.715 6.375 -23.055 6.375 -22.375 6.375 C-22.375 5.715 -22.375 5.055 -22.375 4.375 C-14.84657739 0.94742548 -8.19190736 -0.01198085 0 0 Z " fill="#E1DDDB" transform="translate(210.375,84.625)"/>
<path d="M0 0 C0.66 0 1.32 0 2 0 C1.67 21.78 1.34 43.56 1 66 C13.51974142 65.92107166 13.51974142 65.92107166 26.03930664 65.81982422 C27.62125375 65.81397715 29.20320389 65.8088821 30.78515625 65.8046875 C31.99455872 65.7893396 31.99455872 65.7893396 33.22839355 65.77368164 C40.27726942 65.77152767 45.90933198 67.44219122 52.4375 70.125 C53.30246094 70.47820312 54.16742188 70.83140625 55.05859375 71.1953125 C55.69925781 71.46085937 56.33992188 71.72640625 57 72 C57 72.66 57 73.32 57 74 C57.56847656 74.08894531 58.13695312 74.17789063 58.72265625 74.26953125 C66.17735479 76.66066097 72.93291455 85.234771 76.59765625 91.91015625 C82.85898873 104.56604106 82.13425105 116.81901579 82.0625 130.625 C82.05747477 132.31380076 82.05291368 134.00260296 82.04882812 135.69140625 C82.03790399 139.79430711 82.0206958 143.89713727 82 148 C76.9687253 148.10010954 71.93805103 148.17204301 66.90600586 148.21972656 C65.20017375 148.23963837 63.49440802 148.26677813 61.78881836 148.30175781 C44.361537 148.64979163 30.77071682 145.24347315 16.625 134.625 C11.03803383 129.03803383 7.21431576 122.17039669 4 115 C4 114.01 4 113.02 4 112 C3.34 112 2.68 112 2 112 C0.19640149 106.56072659 -0.33137498 101.7155029 -0.4140625 96.00390625 C-0.43170654 95.26394409 -0.44935059 94.52398193 -0.4675293 93.76159668 C-0.53003063 91.02877507 -0.57660611 88.29560783 -0.625 85.5625 C-0.74875 79.436875 -0.8725 73.31125 -1 67 C-22.45 67 -43.9 67 -66 67 C-65.505 66.01 -65.505 66.01 -65 65 C-43.55 65 -22.1 65 0 65 C0 43.55 0 22.1 0 0 Z " fill="#3F8199" transform="translate(169,114)"/>
<path d="M0 0 C4.51658714 -0.04993675 9.03302226 -0.08597002 13.54980469 -0.10986328 C15.08205978 -0.11983806 16.61429625 -0.13342276 18.14648438 -0.15087891 C26.60969838 -0.24479186 34.76198399 -0.25042199 43 2 C43 2.66 43 3.32 43 4 C43.556875 4.226875 44.11375 4.45375 44.6875 4.6875 C49.82535932 7.60358232 52.42678148 11.18469188 54.40014648 16.71289062 C55.44484592 20.69609953 55.35335055 24.5954642 55.25 28.6875 C55.24484375 29.51572266 55.2396875 30.34394531 55.234375 31.19726562 C55.18248413 35.2479966 54.99760494 39.04980624 54 43 C53.34 43 52.68 43 52 43 C51.9071875 43.804375 51.9071875 43.804375 51.8125 44.625 C50.59964736 48.17026157 48.55389074 50.2592392 46 53 C45.34 53 44.68 53 44 53 C44 53.66 44 54.32 44 55 C39.545 55.495 39.545 55.495 35 56 C35 56.66 35 57.32 35 58 C23.45 58 11.9 58 0 58 C0 56.35 0 54.7 0 53 C2.31 53 4.62 53 7 53 C7 37.49 7 21.98 7 6 C4.69 5.34 2.38 4.68 0 4 C0 2.68 0 1.36 0 0 Z " fill="#414C74" transform="translate(145,375)"/>
<path d="M0 0 C7.59 0 15.18 0 23 0 C23.99 2.31 24.98 4.62 26 7 C26.391875 7.86625 26.78375 8.7325 27.1875 9.625 C28.07530939 12.22013513 28.15563499 14.27638769 28 17 C28.66 17 29.32 17 30 17 C30.12117188 17.66386719 30.24234375 18.32773437 30.3671875 19.01171875 C31.23228568 23.57012071 32.1820262 27.71477604 34 32 C34 32.99 34 33.98 34 35 C34.66 35 35.32 35 36 35 C39.30199356 29.0564116 40.95518663 23.70880162 42 17 C42.66 17 43.32 17 44 17 C44.0825 15.865625 44.165 14.73125 44.25 13.5625 C45 9 45 9 49 0 C56.59 0 64.18 0 72 0 C72 1.65 72 3.3 72 5 C69.69 5 67.38 5 65 5 C65 20.84 65 36.68 65 53 C67.31 53 69.62 53 72 53 C72 54.65 72 56.3 72 58 C63.42 58 54.84 58 46 58 C46 56.35 46 54.7 46 53 C47.65 52.34 49.3 51.68 51 51 C51 37.8 51 24.6 51 11 C50.34 13.97 49.68 16.94 49 20 C48.49222842 21.69800679 47.95929798 23.38928307 47.375 25.0625 C47.11460938 25.81660156 46.85421875 26.57070313 46.5859375 27.34765625 C46.39257812 27.89292969 46.19921875 28.43820312 46 29 C45.34 29 44.68 29 44 29 C44 30.98 44 32.96 44 35 C43.34 35 42.68 35 42 35 C41.814375 36.794375 41.814375 36.794375 41.625 38.625 C41.16163613 42.29973293 40.28137162 45.5118217 39 49 C38.45432265 50.6236576 37.91285957 52.24873592 37.375 53.875 C36.91666667 55.25 36.45833333 56.625 36 58 C34.02 58 32.04 58 30 58 C30 56.35 30 54.7 30 53 C29.34 53 28.68 53 28 53 C27.7525 51.72125 27.505 50.4425 27.25 49.125 C26.30945452 44.92173468 24.93888288 41.12784258 23.28515625 37.16015625 C21.52222225 32.82516049 19.88217623 28.44812589 18.25 24.0625 C17.77300659 22.80010498 17.77300659 22.80010498 17.28637695 21.51220703 C16.99077881 20.71540527 16.69518066 19.91860352 16.390625 19.09765625 C16.12282227 18.38101807 15.85501953 17.66437988 15.57910156 16.92602539 C15 15 15 15 15 12 C14.34 12 13.68 12 13 12 C13.33 24.87 13.66 37.74 14 51 C15.98 51.66 17.96 52.32 20 53 C20 54.65 20 56.3 20 58 C13.73 58 7.46 58 1 58 C0.67 56.68 0.34 55.36 0 54 C0.495 53.505 0.495 53.505 1 53 C2.98 53 4.96 53 7 53 C6.67 37.49 6.34 21.98 6 6 C3.03 5.505 3.03 5.505 0 5 C0 3.35 0 1.7 0 0 Z " fill="#39446E" transform="translate(16,375)"/>
<path d="M0 0 C15.89626035 -1.68133523 15.89626035 -1.68133523 20.9765625 2.37890625 C26 9.38431818 26 9.38431818 26 13 C26.66 13 27.32 13 28 13 C28.433125 13.928125 28.86625 14.85625 29.3125 15.8125 C30.77509352 18.57517665 31.82300606 19.91371414 34 22 C34.99 23.65 35.98 25.3 37 27 C39.31 30.3 41.62 33.6 44 37 C44 26.77 44 16.54 44 6 C42.02 5.67 40.04 5.34 38 5 C38 3.35 38 1.7 38 0 C45.26 0 52.52 0 60 0 C59.67 1.65 59.34 3.3 59 5 C57.02 5.33 55.04 5.66 53 6 C52.67 23.16 52.34 40.32 52 58 C49.03 58 46.06 58 43 58 C42.566875 57.071875 42.13375 56.14375 41.6875 55.1875 C40.2665153 52.12559916 40.2665153 52.12559916 38.5625 50.5625 C36.56213559 48.56213559 35.39640388 46.2303601 34.0390625 43.76953125 C32.59449442 41.30942095 30.82934216 39.18340839 29 37 C26 33.25 26 33.25 26 31 C25.34 31 24.68 31 24 31 C20 24.375 20 24.375 20 21 C19.34 21 18.68 21 18 21 C15 17.53846154 15 17.53846154 15 15 C14.34 15 13.68 15 13 15 C13.33 27.21 13.66 39.42 14 52 C17.465 52.495 17.465 52.495 21 53 C21 54.65 21 56.3 21 58 C13.74 58 6.48 58 -1 58 C-1 56.35 -1 54.7 -1 53 C1.31 52.34 3.62 51.68 6 51 C6 36.15 6 21.3 6 6 C4.02 5.34 2.04 4.68 0 4 C0 2.68 0 1.36 0 0 Z " fill="#414B73" transform="translate(311,375)"/>
<path d="M0 0 C1.56047444 0.00025108 3.12095443 0.00581199 4.68139648 0.01586914 C5.40774292 0.01687622 6.13408936 0.0178833 6.88244629 0.0189209 C9.60581024 0.02416823 12.32915176 0.03812939 15.05249023 0.05102539 C21.13686523 0.07165039 27.22124023 0.09227539 33.48999023 0.11352539 C33.48999023 12.65352539 33.48999023 25.19352539 33.48999023 38.11352539 C27.40561523 38.13415039 21.32124023 38.15477539 15.05249023 38.17602539 C12.16865601 38.1896814 12.16865601 38.1896814 9.2265625 38.20361328 C7.71150787 38.20653246 6.19645247 38.20908101 4.68139648 38.21118164 C3.88761597 38.21629761 3.09383545 38.22141357 2.27600098 38.22668457 C0.34696194 38.22699495 -1.58197889 38.17588432 -3.51000977 38.11352539 C-5.29831425 36.32522091 -4.63849688 33.91771387 -4.6489563 31.53710938 C-4.64693207 30.75795166 -4.64490784 29.97879395 -4.64282227 29.17602539 C-4.64377899 28.38075439 -4.64473572 27.5854834 -4.64572144 26.76611328 C-4.6464032 25.08146079 -4.64454919 23.39680568 -4.64038086 21.7121582 C-4.63503252 19.12453342 -4.64032596 16.53708223 -4.64672852 13.94946289 C-4.64606773 12.31665001 -4.64478657 10.68383723 -4.64282227 9.05102539 C-4.6448465 8.27186768 -4.64687073 7.49270996 -4.6489563 6.68994141 C-4.62021993 0.14943328 -4.62021993 0.14943328 0 0 Z " fill="#35416C" transform="translate(268.510009765625,275.886474609375)"/>
<path d="M0 0 C14.52 0 29.04 0 44 0 C44 4.95 44 9.9 44 15 C42.35 15 40.7 15 39 15 C38.01 12.03 37.02 9.06 36 6 C30.72 5.67 25.44 5.34 20 5 C20 11.6 20 18.2 20 25 C26.27 25 32.54 25 39 25 C39 26.65 39 28.3 39 30 C32.73 30 26.46 30 20 30 C20 37.59 20 45.18 20 53 C26.27 52.67 32.54 52.34 39 52 C39.66 49.03 40.32 46.06 41 43 C43.31 43 45.62 43 48 43 C48 47.95 48 52.9 48 58 C31.83 58 15.66 58 -1 58 C-1 56.35 -1 54.7 -1 53 C1.31 53 3.62 53 6 53 C6 36.83 6 20.66 6 4 C4.02 4 2.04 4 0 4 C0 2.68 0 1.36 0 0 Z " fill="#35406B" transform="translate(93,375)"/>
<path d="M0 0 C8.91 0 17.82 0 27 0 C27 1.32 27 2.64 27 4 C25.35 4 23.7 4 22 4 C21.3811296 10.47235289 23.32786915 14.37912657 26.5 19.9375 C26.92925781 20.71673828 27.35851562 21.49597656 27.80078125 22.29882812 C28.85409931 24.20650417 29.92527369 26.1043022 31 28 C31.66 28 32.32 28 33 28 C33.40992188 27.08476562 33.81984375 26.16953125 34.2421875 25.2265625 C34.78101563 24.03804688 35.31984375 22.84953125 35.875 21.625 C36.40867187 20.44164062 36.94234375 19.25828125 37.4921875 18.0390625 C39 15 39 15 41 13 C41.16677282 9.41656024 41.16677282 9.41656024 41 6 C39.02 5.67 37.04 5.34 35 5 C35 3.35 35 1.7 35 0 C41.93 0 48.86 0 56 0 C56 1.65 56 3.3 56 5 C54.64261719 5.26103516 54.64261719 5.26103516 53.2578125 5.52734375 C48.75130034 7.56446016 47.81797642 10.18459785 45.875 14.5625 C45.36525635 15.64470825 45.36525635 15.64470825 44.84521484 16.7487793 C43.87433243 18.82314904 42.93192189 20.90788771 42 23 C41.56171875 23.97453125 41.1234375 24.9490625 40.671875 25.953125 C40.0313562 27.39668229 39.40114546 28.84493908 38.7890625 30.30078125 C38 32 38 32 36 35 C35.63648496 37.02542148 35.63648496 37.02542148 35.5859375 39.23046875 C35.54726563 40.03291016 35.50859375 40.83535156 35.46875 41.66210938 C35.42234375 42.91217773 35.42234375 42.91217773 35.375 44.1875 C35.33632813 45.03248047 35.29765625 45.87746094 35.2578125 46.74804688 C35.16363721 48.83167524 35.08073325 50.91580753 35 53 C37.64 53 40.28 53 43 53 C43 54.65 43 56.3 43 58 C33.43 58 23.86 58 14 58 C13.67 56.35 13.34 54.7 13 53 C14.134375 52.855625 15.26875 52.71125 16.4375 52.5625 C19.80777201 52.38828522 19.80777201 52.38828522 21 51 C21.12682623 48.52836314 21.18520251 46.09709389 21.1875 43.625 C21.20586914 42.59632813 21.20586914 42.59632813 21.22460938 41.546875 C21.23552331 37.80703203 21.1266842 36.1900263 19 33 C19 32.01 19 31.02 19 30 C18.34 30 17.68 30 17 30 C16.70867187 29.23816406 16.41734375 28.47632813 16.1171875 27.69140625 C13.69210445 21.58294234 11.08763737 16.17283832 7.234375 10.83984375 C6 9 6 9 5 6 C3.35 5.67 1.7 5.34 0 5 C0 3.35 0 1.7 0 0 Z " fill="#3A456E" transform="translate(252,375)"/>
<path d="M0 0 C5.94 0 11.88 0 18 0 C18 0.66 18 1.32 18 2 C18.598125 2.12375 19.19625 2.2475 19.8125 2.375 C22 3 22 3 25 5 C25.36328125 6.875 25.36328125 6.875 25.3125 9 C25.30863281 9.70125 25.30476563 10.4025 25.30078125 11.125 C25 13 25 13 23 15 C19.375 15.125 19.375 15.125 16 15 C16 13.35 16 11.7 16 10 C15.34 10 14.68 10 14 10 C13.57074219 9.50886719 13.14148438 9.01773437 12.69921875 8.51171875 C10.36630061 6.43622606 8.88107223 6.69294524 5.8125 6.8125 C4.91144531 6.83957031 4.01039063 6.86664063 3.08203125 6.89453125 C2.39496094 6.92933594 1.70789063 6.96414063 1 7 C0.3539393 13.36011891 0.3539393 13.36011891 3.1875 18.875 C6.80707854 21.60979268 10.08480066 23.63737385 14.3125 25.3125 C19.48264693 27.47806593 24.47236821 30.58124967 27.5 35.375 C28.42729591 40.24330351 28.58660659 45.24018024 27 50 C26.34 50 25.68 50 25 50 C24.7215625 50.86625 24.7215625 50.86625 24.4375 51.75 C21.84486003 55.80804517 17.49558046 57.50147318 13 59 C10.36227423 59.12248619 7.76254205 59.18512384 5.125 59.1875 C4.41730469 59.19974609 3.70960938 59.21199219 2.98046875 59.22460938 C-1.13432929 59.23610322 -4.30160538 58.8346938 -8 57 C-8 56.34 -8 55.68 -8 55 C-8.66 55 -9.32 55 -10 55 C-12.54014875 51.18977687 -12.58606955 48.46529184 -12 44 C-10.875 42 -10.875 42 -9 41 C-5.8125 40.8125 -5.8125 40.8125 -3 41 C-2.57682292 42.953125 -2.15364583 44.90625 -1.73046875 46.859375 C-0.84076279 49.46664166 0.03973876 51.04839333 2 53 C4.62955946 53.59597855 4.62955946 53.59597855 7.5 53.4375 C8.4590625 53.43621094 9.418125 53.43492187 10.40625 53.43359375 C12.99965751 53.18419961 12.99965751 53.18419961 14.83203125 51.765625 C16.34833088 49.47342623 16.3059493 48.03683399 16.1875 45.3125 C16.16042969 44.50425781 16.13335937 43.69601562 16.10546875 42.86328125 C16.05326172 41.94095703 16.05326172 41.94095703 16 41 C14.02 40.01 12.04 39.02 10 38 C10 37.34 10 36.68 10 36 C8.6078125 35.9690625 8.6078125 35.9690625 7.1875 35.9375 C1.33491956 35.07577036 -3.55014965 31.74800404 -8 28 C-11.3972646 23.14123411 -11.38885168 17.73556226 -11 12 C-10.67 11.01 -10.34 10.02 -10 9 C-9.34 9 -8.68 9 -8 9 C-7.731875 8.401875 -7.46375 7.80375 -7.1875 7.1875 C-5.99012525 4.98180967 -4.95521016 3.56416813 -3 2 C-2.01 2 -1.02 2 0 2 C0 1.34 0 0.68 0 0 Z " fill="#3B466F" transform="translate(220,374)"/>
<path d="M0 0 C0.69996094 -0.020625 1.39992188 -0.04125 2.12109375 -0.0625 C7.26825632 -0.10069787 10.8002595 0.86368498 15.375 3.25 C17.27418051 5.62397564 17.40114812 6.72703761 17.25 9.75 C16.16023867 12.86360381 15.05041442 14.31775625 12.375 16.25 C9.8125 16.5 9.8125 16.5 7.375 15.25 C6.36141646 13.22283291 5.68392538 11.23771911 5.05078125 9.0625 C4.5331648 7.0449843 4.5331648 7.0449843 2.375 6.25 C-1.66056578 5.98537274 -4.60795818 5.91098606 -8.4375 7.1875 C-12.8433358 11.34157376 -13.76674953 17.57221645 -14.05859375 23.44140625 C-14.07559426 25.23169059 -14.07676024 27.02219174 -14.0625 28.8125 C-14.08248047 29.70646484 -14.10246094 30.60042969 -14.12304688 31.52148438 C-14.11902286 37.02231724 -13.32264539 40.83355569 -10.48461914 45.57397461 C-9.625 47.25 -9.625 47.25 -9.625 50.25 C-2.80352898 51.68609916 4.58783273 52.05991127 11.375 50.25 C11.375 49.59 11.375 48.93 11.375 48.25 C14.375 46.25 14.375 46.25 17.375 46.25 C17.375 49.4375 17.375 49.4375 16.375 53.25 C12.54711764 57.0625299 8.32898834 58.56276148 3 58.73828125 C1.12437131 58.70549054 -0.7509667 58.64650839 -2.625 58.5625 C-4.07326172 58.52866211 -4.07326172 58.52866211 -5.55078125 58.49414062 C-7.91051874 58.43573128 -10.26690223 58.35390208 -12.625 58.25 C-12.625 57.59 -12.625 56.93 -12.625 56.25 C-13.4603125 56.1571875 -13.4603125 56.1571875 -14.3125 56.0625 C-17.59699875 54.90848693 -19.27942984 52.77599863 -21.625 50.25 C-22.223125 49.693125 -22.82125 49.13625 -23.4375 48.5625 C-24.625 47.25 -24.625 47.25 -24.625 45.25 C-25.285 45.25 -25.945 45.25 -26.625 45.25 C-29.36187796 32.83630353 -29.97083608 22.14861673 -24.3125 10.5625 C-18.63642015 2.78416836 -18.63642015 2.78416836 -14.4921875 1.68359375 C-12.5435058 1.4635813 -10.58353221 1.34958638 -8.625 1.25 C-6.61466806 -0.76033194 -2.74460986 0.01956941 0 0 Z " fill="#39446E" transform="translate(404.625,374.75)"/>
<path d="M0 0 C10.39751553 0 10.39751553 0 16 4 C22.18659964 10.97975344 21.29029977 20.18544334 21 29 C20.64037172 34.48433129 19.4912579 37.7107403 16 42 C13.75 43.375 13.75 43.375 12 44 C12 44.66 12 45.32 12 46 C10 47 10 47 0 47 C0 31.49 0 15.98 0 0 Z " fill="#F3F4F9" transform="translate(166,380)"/>
<path d="M0 0 C10.23 0 20.46 0 31 0 C30.01 1.485 30.01 1.485 29 3 C25.7 3 22.4 3 19 3 C19 19.17 19 35.34 19 52 C21.97 52.33 24.94 52.66 28 53 C28 53.99 28 54.98 28 56 C18.76 56 9.52 56 0 56 C0 55.01 0 54.02 0 53 C0.804375 52.87625 1.60875 52.7525 2.4375 52.625 C3.283125 52.41875 4.12875 52.2125 5 52 C6.1760003 49.6479994 6.12084541 48.26265599 6.11352539 45.64208984 C6.11344986 44.74130707 6.11337433 43.84052429 6.11329651 42.91244507 C6.10813522 41.93844757 6.10297394 40.96445007 6.09765625 39.9609375 C6.09553383 38.46694931 6.09553383 38.46694931 6.09336853 36.94277954 C6.08775936 33.75348947 6.0752053 30.56426894 6.0625 27.375 C6.05748618 25.21614685 6.05292307 23.05729259 6.04882812 20.8984375 C6.03778695 15.5989345 6.02103988 10.29947222 6 5 C4.02 4.34 2.04 3.68 0 3 C0 2.01 0 1.02 0 0 Z " fill="#333E6A" transform="translate(146,376)"/>
<path d="M0 0 C0.99773437 0.02320313 1.99546875 0.04640625 3.0234375 0.0703125 C4.52777344 0.09738281 4.52777344 0.09738281 6.0625 0.125 C6.83335937 0.14820313 7.60421875 0.17140625 8.3984375 0.1953125 C11.99288997 5.5869912 12.93785858 8.72225957 12.3984375 15.1953125 C12.0684375 16.1853125 11.7384375 17.1753125 11.3984375 18.1953125 C10.7384375 18.1953125 10.0784375 18.1953125 9.3984375 18.1953125 C9.3984375 18.8553125 9.3984375 19.5153125 9.3984375 20.1953125 C5.67544416 22.05680917 1.45335383 21.75212654 -2.6015625 21.1953125 C-6.10748933 18.54448978 -6.85413491 15.88175764 -7.5390625 11.6953125 C-7.83463486 7.65806279 -7.224179 5.40073267 -4.6015625 2.1953125 C-2.6015625 0.1953125 -2.6015625 0.1953125 0 0 Z " fill="#404A6F" transform="translate(161.6015625,446.8046875)"/>
<path d="M0 0 C2.45862401 -0.05383848 4.9160755 -0.09359038 7.375 -0.125 C8.42300781 -0.15013672 8.42300781 -0.15013672 9.4921875 -0.17578125 C11.32897486 -0.19344267 13.16601963 -0.10303261 15 0 C17 2 17 2 17.3125 5.9375 C17.23081662 8.43791894 17.12109418 9.77205801 15.9375 12 C12.97912322 13.52690415 10.26283401 13.18468872 7 13 C7.66 15.64 8.32 18.28 9 21 C6.03 21 3.06 21 0 21 C0.33 20.34 0.66 19.68 1 19 C1.23274209 16.12089412 1.41972757 13.25853505 1.5625 10.375 C1.60568359 9.57320313 1.64886719 8.77140625 1.69335938 7.9453125 C1.79951457 5.9637489 1.90026855 3.98189729 2 2 C1.34 2 0.68 2 0 2 C0 1.34 0 0.68 0 0 Z " fill="#5F6787" transform="translate(204,447)"/>
<path d="M0 0 C2.64 0 5.28 0 8 0 C8 0.66 8 1.32 8 2 C7.34 2 6.68 2 6 2 C6 4.64 6 7.28 6 10 C8.64 9.67 11.28 9.34 14 9 C14.33 6.69 14.66 4.38 15 2 C14.01 2 13.02 2 12 2 C12 1.34 12 0.68 12 0 C14.97 0 17.94 0 21 0 C21 0.66 21 1.32 21 2 C20.34 2 19.68 2 19 2 C19 7.61 19 13.22 19 19 C19.66 19 20.32 19 21 19 C21 19.66 21 20.32 21 21 C18.03 21 15.06 21 12 21 C12 20.34 12 19.68 12 19 C12.66 19 13.32 19 14 19 C14 16.36 14 13.72 14 11 C11.36 11 8.72 11 6 11 C6 13.64 6 16.28 6 19 C6.66 19 7.32 19 8 19 C8 19.66 8 20.32 8 21 C5.36 21 2.72 21 0 21 C0.33 20.34 0.66 19.68 1 19 C1.23274209 16.12089412 1.41972757 13.25853505 1.5625 10.375 C1.60568359 9.57320313 1.64886719 8.77140625 1.69335938 7.9453125 C1.79951457 5.9637489 1.90026855 3.98189729 2 2 C1.34 2 0.68 2 0 2 C0 1.34 0 0.68 0 0 Z " fill="#313B64" transform="translate(126,447)"/>
<path d="M0 0 C2.31 0 4.62 0 7 0 C7 4.95 7 9.9 7 15 C-9.17 15 -25.34 15 -42 15 C-42 13.35 -42 11.7 -42 10 C-40.35 10 -38.7 10 -37 10 C-38.32 10.33 -39.64 10.66 -41 11 C-41 11.99 -41 12.98 -41 14 C-28.79 13.67 -16.58 13.34 -4 13 C-4 12.34 -4 11.68 -4 11 C-9.61 11 -15.22 11 -21 11 C-21 10.67 -21 10.34 -21 10 C-14.73 9.67 -8.46 9.34 -2 9 C-1.34 6.03 -0.68 3.06 0 0 Z " fill="#5B6384" transform="translate(134,418)"/>
<path d="M0 0 C17.07744875 -0.738041 17.07744875 -0.738041 23 4 C23.1953125 10.0546875 23.1953125 10.0546875 23 12 C21 14 21 14 17.375 14.125 C16.26125 14.08375 15.1475 14.0425 14 14 C14 12.35 14 10.7 14 9 C13.34 9 12.68 9 12 9 C11.80664062 8.36578125 11.61328125 7.7315625 11.4140625 7.078125 C10.1088608 4.67611298 10.1088608 4.67611298 6.9609375 4.171875 C5.77757812 4.03265625 4.59421875 3.8934375 3.375 3.75 C2.18648437 3.60046875 0.99796875 3.4509375 -0.2265625 3.296875 C-1.14179688 3.19890625 -2.05703125 3.1009375 -3 3 C-2.01 2.67 -1.02 2.34 0 2 C0 1.34 0 0.68 0 0 Z " fill="#36416C" transform="translate(222,375)"/>
<path d="M0 0 C0.33 0 0.66 0 1 0 C1 1.65 1 3.3 1 5 C1.66 5 2.32 5 3 5 C3.76052961 7.72863551 4.14101917 10.20484332 4.20532227 13.03417969 C4.22526749 13.81468689 4.24521271 14.59519409 4.26576233 15.39935303 C4.28247482 16.23178528 4.29918732 17.06421753 4.31640625 17.921875 C4.33718735 18.78186096 4.35796844 19.64184692 4.37937927 20.52789307 C4.44463739 23.26851598 4.50364917 26.00923275 4.5625 28.75 C4.60570781 30.6106867 4.64932282 32.47136398 4.69335938 34.33203125 C4.80029442 38.88792523 4.90162851 43.4439134 5 48 C4.01 47.34 3.02 46.68 2 46 C1.34 46.66 0.68 47.32 0 48 C0 32.16 0 16.32 0 0 Z " fill="#2D3965" transform="translate(24,380)"/>
<path d="M0 0 C6.27 0 12.54 0 19 0 C19 0.99 19 1.98 19 3 C17.35 3 15.7 3 14 3 C14 3.66 14 4.32 14 5 C13.34 5 12.68 5 12 5 C12 21.83 12 38.66 12 56 C10.02 56 8.04 56 6 56 C6 55.67 6 55.34 6 55 C7.65 55 9.3 55 11 55 C10.8820238 50.74564921 10.7577963 46.49154179 10.62768555 42.23754883 C10.5842837 40.7893576 10.54261256 39.34111346 10.50268555 37.89282227 C10.44510938 35.81510441 10.38137972 33.73765427 10.31640625 31.66015625 C10.27974854 30.40855713 10.24309082 29.15695801 10.20532227 27.86743164 C10.32196094 25.10369496 10.32196094 25.10369496 9 24 C8.92674832 21.13732433 8.90761795 18.299281 8.9375 15.4375 C8.94426758 14.22803711 8.94426758 14.22803711 8.95117188 12.99414062 C8.96299482 10.99606244 8.98093086 8.99802217 9 7 C8.34 7 7.68 7 7 7 C6.67 6.01 6.34 5.02 6 4 C3.03 3.505 3.03 3.505 0 3 C0 2.01 0 1.02 0 0 Z " fill="#2D3862" transform="translate(350,376)"/>
<path d="M0 0 C5.94 0 11.88 0 18 0 C18 2.31 18 4.62 18 7 C17.34 7 16.68 7 16 7 C15.67 5.35 15.34 3.7 15 2 C14.01 2 13.02 2 12 2 C12 7.61 12 13.22 12 19 C12.66 19 13.32 19 14 19 C14 19.66 14 20.32 14 21 C10.7 21 7.4 21 4 21 C4.33 20.34 4.66 19.68 5 19 C5.66 19 6.32 19 7 19 C7 13.39 7 7.78 7 2 C5.68 2 4.36 2 3 2 C2.67 3.65 2.34 5.3 2 7 C1.34 7 0.68 7 0 7 C0 4.69 0 2.38 0 0 Z " fill="#3A436A" transform="translate(245,447)"/>
<path d="M0 0 C2.6015625 -0.29296875 2.6015625 -0.29296875 5.625 -0.1875 C7.12933594 -0.14689453 7.12933594 -0.14689453 8.6640625 -0.10546875 C9.43492187 -0.07066406 10.20578125 -0.03585937 11 0 C11 1.98 11 3.96 11 6 C10.34 6 9.68 6 9 6 C8.67 4.68 8.34 3.36 8 2 C6.02 2 4.04 2 2 2 C2.78130071 4.49552484 2.78130071 4.49552484 4 7 C4.99 7.33 5.98 7.66 7 8 C7 8.66 7 9.32 7 10 C9.475 10.99 9.475 10.99 12 12 C12.25 17.625 12.25 17.625 10 21 C7.3984375 21.29296875 7.3984375 21.29296875 4.375 21.1875 C2.87066406 21.14689453 2.87066406 21.14689453 1.3359375 21.10546875 C0.56507813 21.07066406 -0.20578125 21.03585937 -1 21 C-1.33 19.68 -1.66 18.36 -2 17 C-1.34 16.67 -0.68 16.34 0 16 C0 16.99 0 17.98 0 19 C1.98 18.67 3.96 18.34 6 18 C6 16.68 6 15.36 6 14 C5.01 13.67 4.02 13.34 3 13 C3 12.34 3 11.68 3 11 C1.68 10.67 0.36 10.34 -1 10 C-2.25 3.375 -2.25 3.375 0 0 Z " fill="#485075" transform="translate(185,447)"/>
<path d="M0 0 C3.3 0 6.6 0 10 0 C10 0.66 10 1.32 10 2 C9.34 2 8.68 2 8 2 C8 7.28 8 12.56 8 18 C9.65 17.67 11.3 17.34 13 17 C13.33 16.01 13.66 15.02 14 14 C14.99 14 15.98 14 17 14 C17 16.31 17 18.62 17 21 C11.72 21 6.44 21 1 21 C1.33 20.34 1.66 19.68 2 19 C2.23274209 16.12089412 2.41972757 13.25853505 2.5625 10.375 C2.60568359 9.57320313 2.64886719 8.77140625 2.69335938 7.9453125 C2.79951457 5.9637489 2.90026855 3.98189729 3 2 C2.01 2 1.02 2 0 2 C0 1.34 0 0.68 0 0 Z " fill="#394166" transform="translate(297,447)"/>
<path d="M0 0 C0.99 0 1.98 0 3 0 C3 1.32 3 2.64 3 4 C3.66 4 4.32 4 5 4 C5.42152344 5.05960937 5.84304688 6.11921875 6.27734375 7.2109375 C6.83068362 8.59897649 7.38407153 9.98699633 7.9375 11.375 C8.35418945 12.42300781 8.35418945 12.42300781 8.77929688 13.4921875 C10.28466196 17.29232246 10.28466196 17.29232246 12 21 C9.03 21 6.06 21 3 21 C3.66 19.02 4.32 17.04 5 15 C2.36 15 -0.28 15 -3 15 C-3 16.98 -3 18.96 -3 21 C-4.98 21 -6.96 21 -9 21 C-7.7605743 15.83572624 -6.21011179 12.24563172 -3 8 C-2.67 8 -2.34 8 -2 8 C-2 9.65 -2 11.3 -2 13 C-0.35 13 1.3 13 3 13 C2.67 10.36 2.34 7.72 2 5 C1.01 5.33 0.02 5.66 -1 6 C-0.67 4.02 -0.34 2.04 0 0 Z " fill="#535B7D" transform="translate(279,447)"/>
<path d="M0 0 C0.33 0 0.66 0 1 0 C1.00586624 0.54679413 1.01173248 1.09358826 1.01777649 1.6569519 C1.08158104 7.33463519 1.16596575 13.01174479 1.26245117 18.68896484 C1.2957596 20.80933074 1.3237729 22.92978657 1.34643555 25.05029297 C1.37987303 28.09381535 1.43218253 31.13650912 1.48828125 34.1796875 C1.49467117 35.13181122 1.5010611 36.08393494 1.50764465 37.06491089 C1.53733589 38.38605392 1.53733589 38.38605392 1.56762695 39.73388672 C1.57873001 40.51110077 1.58983307 41.28831482 1.60127258 42.08908081 C1.85203989 44.40778655 1.85203989 44.40778655 5 46 C5.99 46 6.98 46 8 46 C9.67099977 46.31088368 11.33871537 46.64080332 13 47 C13 48.65 13 50.3 13 52 C6.73 52 0.46 52 -6 52 C-6.33 50.68 -6.66 49.36 -7 48 C-6.505 47.505 -6.505 47.505 -6 47 C-4.02 47 -2.04 47 0 47 C0 31.49 0 15.98 0 0 Z " fill="#4E567A" transform="translate(23,381)"/>
<path d="M0 0 C3.29714793 0.32971479 4.6226839 0.6226839 7 3 C7.265625 5.49609375 7.265625 5.49609375 7.25 8.4375 C7.25515625 9.40558594 7.2603125 10.37367188 7.265625 11.37109375 C7 14 7 14 5 17 C0.25 16.25 0.25 16.25 -2 14 C-2.265625 11.25 -2.265625 11.25 -2.25 8 C-2.25515625 6.9275 -2.2603125 5.855 -2.265625 4.75 C-2 2 -2 2 0 0 Z " fill="#F0F2F9" transform="translate(162,449)"/>
<path d="M0 0 C0 3.1875 0 3.1875 -1 7 C-4.82788236 10.8125299 -9.04601166 12.31276148 -14.375 12.48828125 C-16.25062869 12.45549054 -18.1259667 12.39650839 -20 12.3125 C-21.44826172 12.27866211 -21.44826172 12.27866211 -22.92578125 12.24414062 C-25.28551874 12.18573128 -27.64190223 12.10390208 -30 12 C-30 11.34 -30 10.68 -30 10 C-31.32 9.67 -32.64 9.34 -34 9 C-31.3333581 7.66667905 -29.83319697 8.32897967 -27 9 C-27 9.66 -27 10.32 -27 11 C-20.565 10.505 -20.565 10.505 -14 10 C-14 9.34 -14 8.68 -14 8 C-16.31 8 -18.62 8 -21 8 C-21 7.34 -21 6.68 -21 6 C-16.05 5.34 -11.1 4.68 -6 4 C-6 3.34 -6 2.68 -6 2 C-3 0 -3 0 0 0 Z " fill="#3F4870" transform="translate(422,421)"/>
<path d="M0 0 C0.99 0.495 0.99 0.495 2 1 C2 12.88 2 24.76 2 37 C20.315 37.495 20.315 37.495 39 38 C39 38.66 39 39.32 39 40 C33.60653012 40.02464849 28.21309275 40.04283531 22.81958008 40.05493164 C20.98331125 40.05997231 19.14704646 40.06680477 17.31079102 40.07543945 C14.67723599 40.08751672 12.04373384 40.09323081 9.41015625 40.09765625 C8.17109276 40.10539818 8.17109276 40.10539818 6.90699768 40.11329651 C4.93763632 40.11349205 2.96838386 40.06204152 1 40 C0 39 0 39 -0.11352539 35.30639648 C-0.11336624 33.66128708 -0.10766988 32.01617269 -0.09765625 30.37109375 C-0.0962413 29.50686295 -0.09482635 28.64263214 -0.09336853 27.75221252 C-0.08775239 24.98060708 -0.07519719 22.2090812 -0.0625 19.4375 C-0.05748708 17.5631522 -0.05292381 15.68880315 -0.04882812 13.81445312 C-0.03777772 9.20960456 -0.0205023 4.60481579 0 0 Z " fill="#D0D4E5" transform="translate(263,276)"/>
<path d="M0 0 C2.64 0 5.28 0 8 0 C8 6.93 8 13.86 8 21 C5.36 21 2.72 21 0 21 C0.33 20.34 0.66 19.68 1 19 C1.23274209 16.12089412 1.41972757 13.25853505 1.5625 10.375 C1.60568359 9.57320313 1.64886719 8.77140625 1.69335938 7.9453125 C1.79951457 5.9637489 1.90026855 3.98189729 2 2 C1.34 2 0.68 2 0 2 C0 1.34 0 0.68 0 0 Z " fill="#3A436A" transform="translate(229,447)"/>
<path d="M0 0 C2.45862401 -0.05383848 4.9160755 -0.09359038 7.375 -0.125 C8.42300781 -0.15013672 8.42300781 -0.15013672 9.4921875 -0.17578125 C11.32897486 -0.19344267 13.16601963 -0.10303261 15 0 C17 2 17 2 17.1953125 3.9453125 C17.13020833 5.96354167 17.06510417 7.98177083 17 10 C15.68 10.33 14.36 10.66 13 11 C12.67 8.69 12.34 6.38 12 4 C9.69 3.34 7.38 2.68 5 2 C5.33 7.94 5.66 13.88 6 20 C5.01 20 4.02 20 3 20 C3 14.06 3 8.12 3 2 C2.01 2 1.02 2 0 2 C0 1.34 0 0.68 0 0 Z " fill="#3E466B" transform="translate(204,447)"/>
<path d="M0 0 C0 1.32 0 2.64 0 4 C-0.99 4 -1.98 4 -3 4 C-2.67 6.31 -2.34 8.62 -2 11 C-0.68 11.33 0.64 11.66 2 12 C0.35 12 -1.3 12 -3 12 C-4.485 7.545 -4.485 7.545 -6 3 C-11.28 2.67 -16.56 2.34 -22 2 C-22 8.6 -22 15.2 -22 22 C-22.66 22 -23.32 22 -24 22 C-24 15.07 -24 8.14 -24 1 C-20.968125 0.835 -17.93625 0.67 -14.8125 0.5 C-13.86608643 0.44779297 -12.91967285 0.39558594 -11.94458008 0.34179688 C-7.95869465 0.12856195 -3.99343063 -0.06614378 0 0 Z " fill="#50597E" transform="translate(135,378)"/>
<path d="M0 0 C2.97 0 5.94 0 9 0 C9 0.66 9 1.32 9 2 C8.34 2 7.68 2 7 2 C7 7.61 7 13.22 7 19 C7.66 19 8.32 19 9 19 C9 19.66 9 20.32 9 21 C6.03 21 3.06 21 0 21 C0 20.34 0 19.68 0 19 C0.66 19 1.32 19 2 19 C2 16.69 2 14.38 2 12 C2.33 12 2.66 12 3 12 C3 14.64 3 17.28 3 20 C3.66 19.67 4.32 19.34 5 19 C4.85950482 17.52031676 4.71245174 16.04125484 4.5625 14.5625 C4.48128906 13.73878906 4.40007812 12.91507812 4.31640625 12.06640625 C4.21069185 10.01337975 4.21069185 10.01337975 3 9 C2.95907063 6.66702567 2.95758277 4.33294775 3 2 C2.01 2 1.02 2 0 2 C0 1.34 0 0.68 0 0 Z " fill="#545C7D" transform="translate(138,447)"/>
<path d="M0 0 C5.94 0 11.88 0 18 0 C18 0.33 18 0.66 18 1 C12.72 1 7.44 1 2 1 C2.33 1.99 2.66 2.98 3 4 C3.63808594 4.04898437 4.27617187 4.09796875 4.93359375 4.1484375 C5.75988281 4.22320312 6.58617187 4.29796875 7.4375 4.375 C8.26121094 4.44460938 9.08492187 4.51421875 9.93359375 4.5859375 C10.61550781 4.72257812 11.29742187 4.85921875 12 5 C12.33 5.66 12.66 6.32 13 7 C9.04 7 5.08 7 1 7 C0.979375 8.423125 0.95875 9.84625 0.9375 11.3125 C0.92589844 12.11300781 0.91429687 12.91351563 0.90234375 13.73828125 C0.90342145 16.16861334 0.90342145 16.16861334 2 19 C1.34 19 0.68 19 0 19 C-1.20272819 16.59454362 -1.10071472 15.05003047 -1.0625 12.375 C-1.04896484 11.14910156 -1.04896484 11.14910156 -1.03515625 9.8984375 C-1.02355469 9.27195312 -1.01195312 8.64546875 -1 8 C-1.66 8 -2.32 8 -3 8 C-3.33 7.34 -3.66 6.68 -4 6 C-4.66 5.67 -5.32 5.34 -6 5 C-4.6875 3.5 -4.6875 3.5 -3 2 C-2.01 2 -1.02 2 0 2 C0 1.34 0 0.68 0 0 Z " fill="#707896" transform="translate(220,374)"/>
<path d="M0 0 C7.92 0 15.84 0 24 0 C24 3.96 24 7.92 24 12 C22.68 12 21.36 12 20 12 C19.67 9.69 19.34 7.38 19 5 C19.99 5 20.98 5 22 5 C22 3.68 22 2.36 22 1 C21.34644531 1.16371094 20.69289062 1.32742188 20.01953125 1.49609375 C16.23008226 2.12848563 12.51509049 2.10696709 8.6875 2.0625 C7.94693359 2.05798828 7.20636719 2.05347656 6.44335938 2.04882812 C4.62887101 2.03712175 2.81442466 2.01918898 1 2 C0.67 1.34 0.34 0.68 0 0 Z " fill="#2B3660" transform="translate(113,377)"/>
<path d="M0 0 C2.64 0 5.28 0 8 0 C8 2.64 8 5.28 8 8 C6.02 8.99 6.02 8.99 4 10 C4 10.33 4 10.66 4 11 C0.7 11 -2.6 11 -6 11 C-6 10.67 -6 10.34 -6 10 C-3.36 10 -0.72 10 2 10 C2 9.34 2 8.68 2 8 C1.34 8 0.68 8 0 8 C0 5.36 0 2.72 0 0 Z " fill="#DFE1EA" transform="translate(132,458)"/>
<path d="M0 0 C2.31 0.66 4.62 1.32 7 2 C7.04241723 4.33294775 7.04092937 6.66702567 7 9 C6 10 6 10 4.15234375 10.09765625 C2.1015625 10.06510417 0.05078125 10.03255208 -2 10 C-2 7.36 -2 4.72 -2 2 C-1.34 2 -0.68 2 0 2 C0 1.34 0 0.68 0 0 Z " fill="#D3D7E3" transform="translate(134,447)"/>
<path d="M0 0 C5.94 0 11.88 0 18 0 C18 2.31 18 4.62 18 7 C17.34 7 16.68 7 16 7 C15.67 5.35 15.34 3.7 15 2 C14.01 2 13.02 2 12 2 C12 7.61 12 13.22 12 19 C11.67 19 11.34 19 11 19 C11 13.06 11 7.12 11 1 C8.36 1.33 5.72 1.66 3 2 C2.67 3.65 2.34 5.3 2 7 C1.34 7 0.68 7 0 7 C0 4.69 0 2.38 0 0 Z " fill="#646A87" transform="translate(245,447)"/>
<path d="M0 0 C2.34945737 0.02409572 4.69780959 0.02046546 7.04736328 0.01391602 C8.5564846 0.01947968 10.06560123 0.02658121 11.57470703 0.03540039 C12.61682343 0.03403328 12.61682343 0.03403328 13.67999268 0.03263855 C17.60685566 0.09033275 19.42427393 0.51877759 23.05908203 2.33618164 C5.73408203 1.84118164 5.73408203 1.84118164 -11.94091797 1.33618164 C-12.27091797 1.99618164 -12.60091797 2.65618164 -12.94091797 3.33618164 C-14.89038086 3.74682617 -14.89038086 3.74682617 -17.41357422 3.96899414 C-18.31269531 4.0527832 -19.21181641 4.13657227 -20.13818359 4.22290039 C-21.08371094 4.3015332 -22.02923828 4.38016602 -23.00341797 4.46118164 C-23.9528125 4.54754883 -24.90220703 4.63391602 -25.88037109 4.72290039 C-28.23326889 4.93572532 -30.58660392 5.13975195 -32.94091797 5.33618164 C-32.61091797 4.67618164 -32.28091797 4.01618164 -31.94091797 3.33618164 C-29.61417063 2.6745537 -27.39128237 2.16357972 -25.01904297 1.73071289 C-24.30693665 1.59985794 -23.59483032 1.46900299 -22.86114502 1.33418274 C-15.2458474 0.05150012 -7.70585433 -0.08467068 0 0 Z " fill="#79A4B4" transform="translate(277.94091796875,8.663818359375)"/>
<path d="M0 0 C0.66 0.33 1.32 0.66 2 1 C1.01 1.33 0.02 1.66 -1 2 C-1 2.66 -1 3.32 -1 4 C-5.455 4.495 -5.455 4.495 -10 5 C-10 5.66 -10 6.32 -10 7 C-21.55 7 -33.1 7 -45 7 C-45 5.35 -45 3.7 -45 2 C-43.02 2 -41.04 2 -39 2 C-39 2.33 -39 2.66 -39 3 C-40.65 3 -42.3 3 -44 3 C-44 3.99 -44 4.98 -44 6 C-39.71293428 5.90584607 -35.42638129 5.79962169 -31.13989258 5.68261719 C-29.68424482 5.64453573 -28.22850963 5.609648 -26.77270508 5.578125 C-24.66976852 5.53201745 -22.56742325 5.47410453 -20.46484375 5.4140625 C-19.202771 5.3826416 -17.94069824 5.3512207 -16.64038086 5.31884766 C-12.87277485 4.98885681 -9.61615222 4.07282678 -6 3 C-4.68 3 -3.36 3 -2 3 C-2 2.34 -2 1.68 -2 1 C-1.34 0.67 -0.68 0.34 0 0 Z " fill="#8086A1" transform="translate(190,426)"/>
<path d="M0 0 C1.10196568 2.86511076 1.01402944 3.95878852 0 6.9375 C-1.06565385 10.20106491 -0.95231147 11.76214101 0 15 C0.66 14.67 1.32 14.34 2 14 C1.67 15.98 1.34 17.96 1 20 C0.34 20 -0.32 20 -1 20 C-1 21.98 -1 23.96 -1 26 C-1.33 26 -1.66 26 -2 26 C-2.33 23.69 -2.66 21.38 -3 19 C-5.19097652 22.3340947 -6.43454163 25.04179141 -7 29 C-7.99 28.67 -8.98 28.34 -10 28 C-9.02904713 25.38589612 -8.08215749 23.11981301 -6.5 20.8125 C-4.33320569 16.74976066 -3.74475464 12.51233691 -3 8 C-2.34 8 -1.68 8 -1 8 C-0.67 5.36 -0.34 2.72 0 0 Z " fill="#747C99" transform="translate(61,384)"/>
<path d="M0 0 C0.33 0 0.66 0 1 0 C1 13.53 1 27.06 1 41 C0.67 41 0.34 41 0 41 C-0.33 31.1 -0.66 21.2 -1 11 C-1.66 12.98 -2.32 14.96 -3 17 C-3.66 17 -4.32 17 -5 17 C-4.35841048 14.35307023 -3.71195217 11.70750071 -3.0625 9.0625 C-2.88009766 8.30775391 -2.69769531 7.55300781 -2.50976562 6.77539062 C-1.11328125 1.11328125 -1.11328125 1.11328125 0 0 Z " fill="#CED3E3" transform="translate(67,385)"/>
<path d="M0 0 C6.27 0 12.54 0 19 0 C19 1.65 19 3.3 19 5 C12.73 5 6.46 5 0 5 C0 4.34 0 3.68 0 3 C5.61 3 11.22 3 17 3 C17 2.34 17 1.68 17 1 C11.39 1 5.78 1 0 1 C0 0.67 0 0.34 0 0 Z " fill="#575F81" transform="translate(113,400)"/>
<path d="M0 0 C0.66 0 1.32 0 2 0 C2 0.66 2 1.32 2 2 C3.32 2.33 4.64 2.66 6 3 C5.67 4.65 5.34 6.3 5 8 C3.02 8 1.04 8 -1 8 C-1.33 7.34 -1.66 6.68 -2 6 C-2 7.32 -2 8.64 -2 10 C-2.66 10 -3.32 10 -4 10 C-4 7.36 -4 4.72 -4 2 C-2.68 1.67 -1.36 1.34 0 1 C0 0.67 0 0.34 0 0 Z " fill="#CFD3E0" transform="translate(186,458)"/>
<path d="M0 0 C0.99 0 1.98 0 3 0 C6.62870159 9.41002278 6.62870159 9.41002278 5 14 C2.03 14 -0.94 14 -4 14 C-3.67 12.02 -3.34 10.04 -3 8 C-2.67 8 -2.34 8 -2 8 C-2 9.65 -2 11.3 -2 13 C-0.35 13 1.3 13 3 13 C2.67 10.36 2.34 7.72 2 5 C1.01 5.33 0.02 5.66 -1 6 C-0.67 4.02 -0.34 2.04 0 0 Z " fill="#3F486C" transform="translate(279,447)"/>
<path d="M0 0 C-0.1875 3.3125 -0.1875 3.3125 -1 7 C-3.5625 8.9375 -3.5625 8.9375 -6 10 C-6.99 9.34 -7.98 8.68 -9 8 C-8.67 7.34 -8.34 6.68 -8 6 C-8.99 5.67 -9.98 5.34 -11 5 C-9.35 4.67 -7.7 4.34 -6 4 C-6 3.34 -6 2.68 -6 2 C-3 0 -3 0 0 0 Z " fill="#414A71" transform="translate(422,421)"/>
<path d="M0 0 C4.54347826 1.43478261 4.54347826 1.43478261 6.3125 3.625 C7.32932398 7.13766465 7.12169983 10.34900507 7 14 C5.68 14.33 4.36 14.66 3 15 C2.92652344 14.00419922 2.92652344 14.00419922 2.8515625 12.98828125 C2.28874188 6.2887764 2.28874188 6.2887764 0 0 Z " fill="#363E67" transform="translate(167,448)"/>
<path d="M0 0 C0.33 0 0.66 0 1 0 C1.33 2.97 1.66 5.94 2 9 C2.66 9 3.32 9 4 9 C4 9.99 4 10.98 4 12 C3.34 12 2.68 12 2 12 C2 12.66 2 13.32 2 14 C-0.52475462 15.26237731 -2.31200466 15.09856404 -5.125 15.0625 C-6.03507813 15.05347656 -6.94515625 15.04445313 -7.8828125 15.03515625 C-8.58148438 15.02355469 -9.28015625 15.01195312 -10 15 C-10.33 14.34 -10.66 13.68 -11 13 C-10.01 13 -9.02 13 -8 13 C-8 12.01 -8 11.02 -8 10 C-7.34 10.66 -6.68 11.32 -6 12 C-4.68 12 -3.36 12 -2 12 C-0.78306124 9.56612247 -0.68040104 7.58161154 -0.4375 4.875 C-0.35371094 3.96492188 -0.26992187 3.05484375 -0.18359375 2.1171875 C-0.12300781 1.41851562 -0.06242188 0.71984375 0 0 Z " fill="#676E8C" transform="translate(169,453)"/>
<path d="M0 0 C0.33 0 0.66 0 1 0 C1 5.28 1 10.56 1 16 C2.65 15.67 4.3 15.34 6 15 C6.33 14.01 6.66 13.02 7 12 C7.99 12 8.98 12 10 12 C10 14.31 10 16.62 10 19 C8.52031676 18.85950482 7.04125484 18.71245174 5.5625 18.5625 C4.73878906 18.48128906 3.91507812 18.40007812 3.06640625 18.31640625 C1 18 1 18 0 17 C-0.07325168 14.13732433 -0.09238205 11.299281 -0.0625 8.4375 C-0.05798828 7.63119141 -0.05347656 6.82488281 -0.04882812 5.99414062 C-0.03700518 3.99606244 -0.01906914 1.99802217 0 0 Z " fill="#8086A1" transform="translate(304,449)"/>
<path d="M0 0 C3.3 0 6.6 0 10 0 C10 0.66 10 1.32 10 2 C9.01 2 8.02 2 7 2 C7 7.61 7 13.22 7 19 C6.34 19 5.68 19 5 19 C5 13.06 5 7.12 5 1 C3.35 1.33 1.7 1.66 0 2 C0 1.34 0 0.68 0 0 Z " fill="#4B5579" transform="translate(297,447)"/>
<path d="M0 0 C0.33 0.66 0.66 1.32 1 2 C0.01 2 -0.98 2 -2 2 C-2.33 2.66 -2.66 3.32 -3 4 C-3.763125 3.835 -4.52625 3.67 -5.3125 3.5 C-8.03596236 2.90854604 -8.03596236 2.90854604 -11 3 C-11.33 3.66 -11.66 4.32 -12 5 C-12.66 5 -13.32 5 -14 5 C-14 8.63 -14 12.26 -14 16 C-16.51042707 12.23435939 -16.16314359 10.48554524 -15.515625 6.1640625 C-15 4 -15 4 -13.625 1.4375 C-9.32630701 -0.91654616 -4.79340127 -0.29752146 0 0 Z " fill="#686F8D" transform="translate(170,447)"/>
<path d="M0 0 C1.32 0.33 2.64 0.66 4 1 C4 2.65 4 4.3 4 6 C3.67 5.01 3.34 4.02 3 3 C2.34 3 1.68 3 1 3 C1 15.21 1 27.42 1 40 C0.67 40 0.34 40 0 40 C0 26.8 0 13.6 0 0 Z " fill="#4A5274" transform="translate(28,384)"/>
<path d="M0 0 C0.66 0 1.32 0 2 0 C3.625 2 3.625 2 5 4 C4.67 4.66 4.34 5.32 4 6 C3.34 6 2.68 6 2 6 C1.67 16.23 1.34 26.46 1 37 C0.67 37 0.34 37 0 37 C0 24.79 0 12.58 0 0 Z " fill="#D1D6E5" transform="translate(324,390)"/>
<path d="M0 0 C4.29 0 8.58 0 13 0 C13 0.66 13 1.32 13 2 C12.01 2 11.02 2 10 2 C10 2.66 10 3.32 10 4 C8.58376784 4.05447047 7.16691809 4.09300508 5.75 4.125 C4.96109375 4.14820313 4.1721875 4.17140625 3.359375 4.1953125 C0.79268059 3.9828378 -0.7916067 3.28654105 -3 2 C-2.01 2 -1.02 2 0 2 C0 1.34 0 0.68 0 0 Z " fill="#303A61" transform="translate(222,375)"/>
<path d="M0 0 C0.33 0.99 0.66 1.98 1 3 C0.01 3.495 0.01 3.495 -1 4 C-1.99 3.67 -2.98 3.34 -4 3 C-4 3.99 -4 4.98 -4 6 C3.92 6 11.84 6 20 6 C20 5.01 20 4.02 20 3 C18.68 2.67 17.36 2.34 16 2 C17.65 2 19.3 2 21 2 C21 3.65 21 5.3 21 7 C12.42 7 3.84 7 -5 7 C-5 5.35 -5 3.7 -5 2 C-3.35 1.34 -1.7 0.68 0 0 Z " fill="#797F99" transform="translate(67,426)"/>
<path d="M0 0 C0 0.66 0 1.32 0 2 C0.99 2.66 1.98 3.32 3 4 C0.89807303 4.24887295 -1.20673964 4.4734719 -3.3125 4.6875 C-4.48425781 4.81511719 -5.65601563 4.94273437 -6.86328125 5.07421875 C-10 5 -10 5 -11.91796875 3.51953125 C-12.27503906 3.01808594 -12.63210938 2.51664062 -13 2 C-8.50343896 -0.24828052 -4.92127034 -0.16682272 0 0 Z " fill="#2C3761" transform="translate(405,375)"/>
<path d="M0 0 C8.91 0 17.82 0 27 0 C27 0.33 27 0.66 27 1 C18.42 1 9.84 1 1 1 C1 1.99 1 2.98 1 4 C2.98 3.67 4.96 3.34 7 3 C7.33 5.31 7.66 7.62 8 10 C6 9 6 9 5 6 C3.35 5.67 1.7 5.34 0 5 C0 3.35 0 1.7 0 0 Z " fill="#646B89" transform="translate(252,375)"/>
<path d="M0 0 C0.33 0.66 0.66 1.32 1 2 C0.67 2.99 0.34 3.98 0 5 C2.64 5 5.28 5 8 5 C8 5.33 8 5.66 8 6 C5.69 6 3.38 6 1 6 C1 7.98 1 9.96 1 12 C-0.98 12 -2.96 12 -5 12 C-3.85814266 7.52040582 -2.56984833 3.85477249 0 0 Z " fill="#727894" transform="translate(275,456)"/>
<path d="M0 0 C2.64 0 5.28 0 8 0 C8 0.66 8 1.32 8 2 C7.34 2 6.68 2 6 2 C6 2.99 6 3.98 6 5 C5.34 5 4.68 5 4 5 C3.67 9.62 3.34 14.24 3 19 C2.67 19 2.34 19 2 19 C2 13.39 2 7.78 2 2 C1.34 2 0.68 2 0 2 C0 1.34 0 0.68 0 0 Z " fill="#474F73" transform="translate(126,447)"/>
<path d="M0 0 C2.475 0.495 2.475 0.495 5 1 C5 3.31 5 5.62 5 8 C3.35 8.33 1.7 8.66 0 9 C0 6.03 0 3.06 0 0 Z " fill="#E2E6EF" transform="translate(211,449)"/>
<path d="M0 0 C2.64 0 5.28 0 8 0 C7.67 6.27 7.34 12.54 7 19 C6.67 19 6.34 19 6 19 C5.67 14.05 5.34 9.1 5 4 C4.67 5.65 4.34 7.3 4 9 C3.67 9 3.34 9 3 9 C3 6.69 3 4.38 3 2 C2.01 2 1.02 2 0 2 C0 1.34 0 0.68 0 0 Z " fill="#636B8A" transform="translate(229,447)"/>
<path d="M0 0 C5.94 0 11.88 0 18 0 C18 0.66 18 1.32 18 2 C13.05 2 8.1 2 3 2 C3 2.66 3 3.32 3 4 C2.01 4 1.02 4 0 4 C0 2.68 0 1.36 0 0 Z " fill="#4D5578" transform="translate(311,375)"/>
<path d="M0 0 C0.66 0.33 1.32 0.66 2 1 C0.625 2.5 0.625 2.5 -1 4 C-1.66 4 -2.32 4 -3 4 C-3 4.66 -3 5.32 -3 6 C-3.99 6 -4.98 6 -6 6 C-6.268125 6.969375 -6.53625 7.93875 -6.8125 8.9375 C-7.204375 9.948125 -7.59625 10.95875 -8 12 C-8.99 12.33 -9.98 12.66 -11 13 C-11 12.34 -11 11.68 -11 11 C-12.32 11.33 -13.64 11.66 -15 12 C-11.87378374 8.60582235 -9.43458973 6.3937282 -5 5 C-5 4.34 -5 3.68 -5 3 C-2.625 1.3125 -2.625 1.3125 0 0 Z " fill="#5E6687" transform="translate(94,17)"/>
<path d="M0 0 C1.98 0 3.96 0 6 0 C6.12375 0.639375 6.2475 1.27875 6.375 1.9375 C6.684375 2.9584375 6.684375 2.9584375 7 4 C7.66 4.33 8.32 4.66 9 5 C8.01 5 7.02 5 6 5 C6.33 5.99 6.66 6.98 7 8 C6.34 8 5.68 8 5 8 C5 7.34 5 6.68 5 6 C3.68 5.67 2.36 5.34 1 5 C0.67 3.35 0.34 1.7 0 0 Z " fill="#D7DBE6" transform="translate(187,449)"/>
<path d="M0 0 C3.35409194 -0.05859857 6.70805017 -0.09379582 10.0625 -0.125 C11.47692383 -0.15013672 11.47692383 -0.15013672 12.91992188 -0.17578125 C18.36523938 -0.21372771 22.85499388 0.18747357 28 2 C28 2.66 28 3.32 28 4 C29.32 4.33 30.64 4.66 32 5 C30.02 5 28.04 5 26 5 C26 4.34 26 3.68 26 3 C24.5459375 3.0309375 24.5459375 3.0309375 23.0625 3.0625 C20 3 20 3 19 2 C17.58672053 1.84379445 16.1664541 1.74943827 14.74609375 1.68359375 C13.89208984 1.64169922 13.03808594 1.59980469 12.15820312 1.55664062 C11.26037109 1.51732422 10.36253906 1.47800781 9.4375 1.4375 C8.53580078 1.39431641 7.63410156 1.35113281 6.70507812 1.30664062 C4.47021515 1.20021858 2.23523692 1.09820012 0 1 C0 0.67 0 0.34 0 0 Z " fill="#BBC0D4" transform="translate(126,8)"/>
<path d="M0 0 C0.66 0.99 1.32 1.98 2 3 C2.66 3 3.32 3 4 3 C4.33 5.64 4.66 8.28 5 11 C3.35 11 1.7 11 0 11 C-1.28571429 3.57142857 -1.28571429 3.57142857 0 0 Z " fill="#9FA5BC" transform="translate(277,449)"/>
<path d="M0 0 C0.66 0.33 1.32 0.66 2 1 C-0.63886654 5.2026393 -3.36440339 8.56638098 -7 12 C-7.99 11.67 -8.98 11.34 -10 11 C-6.79239749 7.19364503 -3.59253891 3.45436433 0 0 Z " fill="#C5C8D4" transform="translate(186,91)"/>
<path d="M0 0 C0 0.66 0 1.32 0 2 C1.918125 1.938125 1.918125 1.938125 3.875 1.875 C6.0546875 1.8046875 6.0546875 1.8046875 8 2 C8.66 2.66 9.32 3.32 10 4 C4.72 4 -0.56 4 -6 4 C-5.67 3.01 -5.34 2.02 -5 1 C-2 0 -2 0 0 0 Z " fill="#2B3661" transform="translate(224,428)"/>
<path d="M0 0 C0.66 0.33 1.32 0.66 2 1 C0.78184562 5.68520915 -0.69559987 9.70543612 -3 14 C-4.53656962 11.5595659 -5.02089707 10.29255898 -4.8125 7.375 C-4 5 -4 5 -1 3 C-0.67 2.01 -0.34 1.02 0 0 Z " fill="#3D466D" transform="translate(64,388)"/>
<path d="M0 0 C0.33 1.32 0.66 2.64 1 4 C1.99 3.67 2.98 3.34 4 3 C3.67 3.99 3.34 4.98 3 6 C-0.63 6 -4.26 6 -8 6 C-8.33 4.68 -8.66 3.36 -9 2 C-8.34 1.67 -7.68 1.34 -7 1 C-7 1.99 -7 2.98 -7 4 C-5.02 3.67 -3.04 3.34 -1 3 C-0.67 2.01 -0.34 1.02 0 0 Z " fill="#586081" transform="translate(192,462)"/>
<path d="M0 0 C0.66 0.33 1.32 0.66 2 1 C2 2.98 2 4.96 2 7 C1.34 7 0.68 7 0 7 C0 8.65 0 10.3 0 12 C-0.99 12.33 -1.98 12.66 -3 13 C-2.67 9.7 -2.34 6.4 -2 3 C-1.34 3 -0.68 3 0 3 C0 2.01 0 1.02 0 0 Z " fill="#2F3964" transform="translate(64,381)"/>
<path d="M0 0 C1.46953125 0.01450195 1.46953125 0.01450195 2.96875 0.02929688 C4.49242187 0.06700195 4.49242187 0.06700195 6.046875 0.10546875 C7.59375 0.12577148 7.59375 0.12577148 9.171875 0.14648438 C11.71407292 0.18179268 14.25520723 0.23110839 16.796875 0.29296875 C16.796875 0.95296875 16.796875 1.61296875 16.796875 2.29296875 C16.22654541 2.28773193 15.65621582 2.28249512 15.06860352 2.27709961 C12.49887177 2.25638654 9.92915753 2.24332685 7.359375 2.23046875 C6.46154297 2.22208984 5.56371094 2.21371094 4.63867188 2.20507812 C3.78466797 2.20185547 2.93066406 2.19863281 2.05078125 2.1953125 C1.26002197 2.19007568 0.4692627 2.18483887 -0.34545898 2.17944336 C-2.21905189 2.08800966 -2.21905189 2.08800966 -3.203125 3.29296875 C-5.20270864 3.33377658 -7.20357754 3.33551231 -9.203125 3.29296875 C-6.07376325 0.52444157 -4.15258687 -0.07242884 0 0 Z " fill="#9FA5BC" transform="translate(399.203125,373.70703125)"/>
<path d="M0 0 C0.66 0 1.32 0 2 0 C1.67 2.64 1.34 5.28 1 8 C0.34 8 -0.32 8 -1 8 C-1.05607422 8.93972656 -1.05607422 8.93972656 -1.11328125 9.8984375 C-1.21189453 11.12433594 -1.21189453 11.12433594 -1.3125 12.375 C-1.37050781 13.18710937 -1.42851563 13.99921875 -1.48828125 14.8359375 C-2 17 -2 17 -5 19 C-4.17812739 14.61667943 -3.09845718 10.32059823 -2 6 C-1.34 6 -0.68 6 0 6 C0 4.02 0 2.04 0 0 Z " fill="#BCC1D4" transform="translate(60,404)"/>
<path d="M0 0 C1 2 1 2 0.0625 5.125 C-0.288125 6.07375 -0.63875 7.0225 -1 8 C-0.01 8 0.98 8 2 8 C1.34 10.31 0.68 12.62 0 15 C-1.24546405 12.50907189 -0.7767578 11.58919267 0 9 C-2.51083114 10.25541557 -2.87125446 11.50063488 -4 14 C-5.305239 10.08428299 -4.32239848 8.96107003 -2.5625 5.3125 C-2.08941406 4.31863281 -1.61632812 3.32476562 -1.12890625 2.30078125 C-0.75636719 1.54152344 -0.38382812 0.78226562 0 0 Z " fill="#5F6788" transform="translate(291,390)"/>
<path d="M0 0 C0.66 0 1.32 0 2 0 C0.71480435 2.86697492 -0.57129254 4.97607712 -3 7 C-3.66 7 -4.32 7 -5 7 C-5.33 7.99 -5.66 8.98 -6 10 C-8.5625 11.6875 -8.5625 11.6875 -11 13 C-9.79618552 10.50638429 -8.54571278 8.31856917 -7 6 C-6.34 6 -5.68 6 -5 6 C-4.67 5.01 -4.34 4.02 -4 3 C-1.9375 2.3125 -1.9375 2.3125 0 2 C0 1.34 0 0.68 0 0 Z " fill="#5483A3" transform="translate(90,186)"/>
<path d="M0 0 C2.31 0.33 4.62 0.66 7 1 C7 1.66 7 2.32 7 3 C12.94 3 18.88 3 25 3 C25 3.33 25 3.66 25 4 C18.07 4 11.14 4 4 4 C4 3.34 4 2.68 4 2 C2.68 1.67 1.36 1.34 0 1 C0 0.67 0 0.34 0 0 Z " fill="#6E7593" transform="translate(388,429)"/>
<path d="M0 0 C0.33 0 0.66 0 1 0 C1.02684312 2.81256281 1.04676188 5.62487241 1.0625 8.4375 C1.07087891 9.23994141 1.07925781 10.04238281 1.08789062 10.86914062 C1.0965143 12.91295221 1.0522815 14.95683902 1 17 C0 18 0 18 -1.84765625 18.09765625 C-3.8984375 18.06510417 -5.94921875 18.03255208 -8 18 C-8.33 18.99 -8.66 19.98 -9 21 C-9 19.68 -9 18.36 -9 17 C-7.865625 16.855625 -6.73125 16.71125 -5.5625 16.5625 C-2.19222799 16.38828522 -2.19222799 16.38828522 -1 15 C-0.76346477 12.47403741 -0.57826308 9.96892793 -0.4375 7.4375 C-0.39431641 6.72658203 -0.35113281 6.01566406 -0.30664062 5.28320312 C-0.20028223 3.52238088 -0.09961154 1.7612168 0 0 Z " fill="#636A8A" transform="translate(274,411)"/>
<path d="M0 0 C3.63 0 7.26 0 11 0 C11 1.98 11 3.96 11 6 C10.34 6 9.68 6 9 6 C8.67 4.68 8.34 3.36 8 2 C5.03 2 2.06 2 -1 2 C-0.67 1.34 -0.34 0.68 0 0 Z " fill="#626886" transform="translate(185,447)"/>
<path d="M0 0 C0.99 0.33 1.98 0.66 3 1 C2.01 3.97 1.02 6.94 0 10 C-1.98 10 -3.96 10 -6 10 C-6 9.67 -6 9.34 -6 9 C-4.35 9 -2.7 9 -1 9 C-1.66 7.02 -2.32 5.04 -3 3 C-2.01 2.01 -1.02 1.02 0 0 Z " fill="#51597D" transform="translate(52,423)"/>
<path d="M0 0 C3.85645121 -0.22036864 6.49223216 0.39644899 10 2 C8.71937515 3.7074998 7.38232443 5.37373596 6 7 C5.34 7 4.68 7 4 7 C3.67 5.35 3.34 3.7 3 2 C2.01 1.67 1.02 1.34 0 1 C0 0.67 0 0.34 0 0 Z " fill="#2D3763" transform="translate(406,375)"/>
<path d="M0 0 C2.64 0 5.28 0 8 0 C7.67 1.65 7.34 3.3 7 5 C7.66 5 8.32 5 9 5 C8.67 6.32 8.34 7.64 8 9 C7.34 9 6.68 9 6 9 C5.67 6.36 5.34 3.72 5 1 C3.35 1.33 1.7 1.66 0 2 C0 1.34 0 0.68 0 0 Z " fill="#2E3963" transform="translate(254,377)"/>
<path d="M0 0 C3.79303725 1.00193437 6.71536341 1.81024227 10 4 C10.6875 7.625 10.6875 7.625 11 11 C10.01 11.495 10.01 11.495 9 12 C9 9.69 9 7.38 9 5 C7.68 4.67 6.36 4.34 5 4 C5 3.34 5 2.68 5 2 C3.35 1.67 1.7 1.34 0 1 C0 0.67 0 0.34 0 0 Z " fill="#4A5273" transform="translate(411,375)"/>
<path d="M0 0 C0.33 0.66 0.66 1.32 1 2 C0.34 2 -0.32 2 -1 2 C-1.66 4.31 -2.32 6.62 -3 9 C-4.875 8.6875 -4.875 8.6875 -7 8 C-7.66 7.01 -8.32 6.02 -9 5 C-6.69 4.34 -4.38 3.68 -2 3 C-2 2.34 -2 1.68 -2 1 C-1.34 0.67 -0.68 0.34 0 0 Z " fill="#4A5377" transform="translate(180,423)"/>
<path d="M0 0 C1.32 0 2.64 0 4 0 C4 1.65 4 3.3 4 5 C1.69 5 -0.62 5 -3 5 C-1.75 2.5 -1.75 2.5 0 0 Z " fill="#303B65" transform="translate(236,425)"/>
<path d="M0 0 C0.99 0.33 1.98 0.66 3 1 C3.33 1.99 3.66 2.98 4 4 C3.34 4.66 2.68 5.32 2 6 C1.67 5.34 1.34 4.68 1 4 C0.01 4.33 -0.98 4.66 -2 5 C-2.73323796 7.01508358 -2.73323796 7.01508358 -3 9 C-3.36923077 3.46153846 -3.36923077 3.46153846 -1.5 1.125 C-1.005 0.75375 -0.51 0.3825 0 0 Z " fill="#2C3763" transform="translate(212,416)"/>
<path d="M0 0 C0.33 0 0.66 0 1 0 C1 2.64 1 5.28 1 8 C1.66 8 2.32 8 3 8 C3 8.66 3 9.32 3 10 C0.36 10 -2.28 10 -5 10 C-4 8 -4 8 -1 7 C-1.020625 6.030625 -1.04125 5.06125 -1.0625 4.0625 C-1 1 -1 1 0 0 Z " fill="#3B4368" transform="translate(131,458)"/>
<path d="M0 0 C0.66 0 1.32 0 2 0 C1.67 2.31 1.34 4.62 1 7 C0.34 7 -0.32 7 -1 7 C-1.33 7.66 -1.66 8.32 -2 9 C-2.6875 6.75 -2.6875 6.75 -3 4 C-1.6875 1.6875 -1.6875 1.6875 0 0 Z " fill="#2D3863" transform="translate(289,399)"/>
<path d="M0 0 C1.28270075 2.56540151 0.68405835 3.26376662 0 6 C-0.03845443 7.99963028 -0.04544281 10.00051633 0 12 C-0.99 12.33 -1.98 12.66 -3 13 C-2.69240822 11.02006459 -2.3787932 9.04106401 -2.0625 7.0625 C-1.88847656 5.96035156 -1.71445313 4.85820313 -1.53515625 3.72265625 C-1 1 -1 1 0 0 Z " fill="#B7BAC9" transform="translate(173,106)"/>
<path d="M0 0 C0.75 1.6875 0.75 1.6875 1 4 C-0.8125 6.75 -0.8125 6.75 -3 9 C-3.66 9 -4.32 9 -5 9 C-4.42647107 5.12867972 -2.51295648 2.91827204 0 0 Z " fill="#DEEDF4" transform="translate(247,335)"/>
<path d="M0 0 C0.33 0 0.66 0 1 0 C1.33 2.97 1.66 5.94 2 9 C2.66 9 3.32 9 4 9 C4 9.99 4 10.98 4 12 C2.68 12.33 1.36 12.66 0 13 C0 8.71 0 4.42 0 0 Z " fill="#5D6484" transform="translate(169,453)"/>
<path d="M0 0 C0.33 0.66 0.66 1.32 1 2 C0.22265625 4.1640625 0.22265625 4.1640625 -0.9375 6.625 C-1.31777344 7.44226562 -1.69804688 8.25953125 -2.08984375 9.1015625 C-2.39019531 9.72804688 -2.69054688 10.35453125 -3 11 C-4.07174763 7.34811918 -3.76411467 4.73567172 -3 1 C-2.01 0.67 -1.02 0.34 0 0 Z " fill="#B3B8CC" transform="translate(62,50)"/>
<path d="M0 0 C0.33 0 0.66 0 1 0 C1 2.31 1 4.62 1 7 C1.66 7.33 2.32 7.66 3 8 C0.6875 8.625 0.6875 8.625 -2 9 C-2.99 8.34 -3.98 7.68 -5 7 C-3.68 6.67 -2.36 6.34 -1 6 C-0.67 4.02 -0.34 2.04 0 0 Z " fill="#6A718E" transform="translate(216,451)"/>
<path d="M0 0 C0.99 0.495 0.99 0.495 2 1 C2 1.99 2 2.98 2 4 C3.98 3.67 5.96 3.34 8 3 C7.01 4.485 7.01 4.485 6 6 C4.35 5.67 2.7 5.34 1 5 C0.67 3.35 0.34 1.7 0 0 Z " fill="#6A718D" transform="translate(411,385)"/>
<path d="M0 0 C1.32 0.33 2.64 0.66 4 1 C4 2.65 4 4.3 4 6 C3.67 5.01 3.34 4.02 3 3 C2.34 3 1.68 3 1 3 C1 4.65 1 6.3 1 8 C0.67 8 0.34 8 0 8 C0 5.36 0 2.72 0 0 Z " fill="#5B6283" transform="translate(28,384)"/>
<path d="M0 0 C0.66 0.33 1.32 0.66 2 1 C1.34 3.31 0.68 5.62 0 8 C-1.4606285 5.35261084 -2 4.10551666 -2 1 C-1.34 0.67 -0.68 0.34 0 0 Z " fill="#323C63" transform="translate(186,448)"/>
<path d="M0 0 C1.98 0 3.96 0 6 0 C6 1.98 6 3.96 6 6 C5.34 4.68 4.68 3.36 4 2 C2.35 2 0.7 2 -1 2 C-0.67 1.34 -0.34 0.68 0 0 Z " fill="#5C6384" transform="translate(211,415)"/>
<path d="M0 0 C0.33 0 0.66 0 1 0 C1 2.64 1 5.28 1 8 C0.01 8.33 -0.98 8.66 -2 9 C-2.20140476 5.37471432 -1.85776765 3.13498292 0 0 Z " fill="#2B3663" transform="translate(58,400)"/>
<path d="M0 0 C0.66 0 1.32 0 2 0 C1.34 1.98 0.68 3.96 0 6 C-0.99 6 -1.98 6 -3 6 C-2.42655063 3.13275314 -2.1385485 2.1385485 0 0 Z " fill="#3D486F" transform="translate(295,391)"/>
<path d="M0 0 C0.99 0.495 0.99 0.495 2 1 C2 1.66 2 2.32 2 3 C3.32 3 4.64 3 6 3 C6 3.66 6 4.32 6 5 C4.02 5 2.04 5 0 5 C0 3.35 0 1.7 0 0 Z " fill="#313B62" transform="translate(236,384)"/>
<path d="M0 0 C0.66 0 1.32 0 2 0 C0.79618552 2.49361571 -0.45428722 4.68143083 -2 7 C-2.66 7 -3.32 7 -4 7 C-2.92598892 4.08482708 -2.22189824 2.22189824 0 0 Z " fill="#D4D7E6" transform="translate(396,381)"/>
<path d="M0 0 C0.66 0 1.32 0 2 0 C3.38232443 1.62626404 4.71937515 3.2925002 6 5 C5.67 5.66 5.34 6.32 5 7 C4.34 7 3.68 7 3 7 C3 6.34 3 5.68 3 5 C2.34 5 1.68 5 1 5 C0.67 3.35 0.34 1.7 0 0 Z " fill="#578CAB" transform="translate(179,341)"/>
<path d="M0 0 C1.13757948 4.55031791 0.4283779 6.63084406 -1 11 C-1.66 11 -2.32 11 -3 11 C-2.01 7.37 -1.02 3.74 0 0 Z " fill="#C9E0E9" transform="translate(380,147)"/>
</svg>
